<?xml version="1.0" encoding="UTF-8" standalone="no"?>
<!DOCTYPE svg PUBLIC "-//W3C//DTD SVG 1.1//EN"
 "http://www.w3.org/Graphics/SVG/1.1/DTD/svg11.dtd">
<!-- Generated by graphviz version 7.1.0 (20230121.1956)
 -->
<!-- Title: P Pages: 1 -->
<svg width="1628pt" height="807pt"
 viewBox="0.00 0.00 1628.00 807.00" xmlns="http://www.w3.org/2000/svg" xmlns:xlink="http://www.w3.org/1999/xlink">
<g id="graph0" class="graph" transform="scale(1 1) rotate(0) translate(4 803)">
<title>P</title>
<polygon fill="white" stroke="none" points="-4,4 -4,-803 1624,-803 1624,4 -4,4"/>
<!-- x0y14_85 -->
<g id="node1" class="node">
<title>x0y14_85</title>
<polygon fill="none" stroke="blue" points="108,-680.2 0,-680.2 0,-572.2 108,-572.2 108,-680.2"/>
<text text-anchor="middle" x="54" y="-629.4" font-family="Times,serif" font-size="11.00">Rainer Dabutziak</text>
<text text-anchor="middle" x="54" y="-617.4" font-family="Times,serif" font-size="11.00">1951</text>
</g>
<!-- x0y13_05 -->
<g id="node11" class="node">
<title>x0y13_05</title>
<ellipse fill="none" stroke="black" cx="54" cy="-496.6" rx="0.5" ry="0.5"/>
</g>
<!-- x0y14_85&#45;&gt;x0y13_05 -->
<g id="edge1" class="edge">
<title>x0y14_85&#45;&gt;x0y13_05</title>
<path fill="none" stroke="black" d="M54,-571.99C54,-539.25 54,-502.8 54,-497.31"/>
</g>
<!-- x9y14_40 -->
<g id="node2" class="node">
<title>x9y14_40</title>
<ellipse fill="none" stroke="pink" cx="702" cy="-593.8" rx="54" ry="54"/>
<text text-anchor="middle" x="702" y="-597" font-family="Times,serif" font-size="11.00">Gabi Kosin</text>
<text text-anchor="middle" x="702" y="-585" font-family="Times,serif" font-size="11.00">1954</text>
</g>
<!-- x12y16_50 -->
<g id="node3" class="node">
<title>x12y16_50</title>
<polygon fill="none" stroke="blue" points="972,-799 864,-799 864,-691 972,-691 972,-799"/>
<text text-anchor="middle" x="918" y="-748.2" font-family="Times,serif" font-size="11.00">Rudi Andert</text>
<text text-anchor="middle" x="918" y="-736.2" font-family="Times,serif" font-size="11.00">1940</text>
</g>
<!-- x12y13_65 -->
<g id="node15" class="node">
<title>x12y13_65</title>
<ellipse fill="none" stroke="black" cx="918" cy="-539.8" rx="0.5" ry="0.5"/>
</g>
<!-- x12y16_50&#45;&gt;x12y13_65 -->
<g id="edge8" class="edge">
<title>x12y16_50&#45;&gt;x12y13_65</title>
<path fill="none" stroke="black" d="M918,-690.55C918,-632.61 918,-548.17 918,-540.38"/>
</g>
<!-- x21y15_30 -->
<g id="node4" class="node">
<title>x21y15_30</title>
<ellipse fill="none" stroke="pink" cx="1566" cy="-658.6" rx="54" ry="54"/>
<text text-anchor="middle" x="1566" y="-661.8" font-family="Times,serif" font-size="11.00">Edith Inge Gertrud Andert</text>
<text text-anchor="middle" x="1566" y="-649.8" font-family="Times,serif" font-size="11.00">1948</text>
</g>
<!-- x3y11_55 -->
<g id="node5" class="node">
<title>x3y11_55</title>
<polygon fill="none" stroke="blue" points="324,-442.6 216,-442.6 216,-334.6 324,-334.6 324,-442.6"/>
<text text-anchor="middle" x="270" y="-391.8" font-family="Times,serif" font-size="11.00">Randy Andert</text>
<text text-anchor="middle" x="270" y="-379.8" font-family="Times,serif" font-size="11.00">1973</text>
</g>
<!-- x3y9_15 -->
<g id="node19" class="node">
<title>x3y9_15</title>
<ellipse fill="none" stroke="black" cx="270" cy="-215.8" rx="0.5" ry="0.5"/>
</g>
<!-- x3y11_55&#45;&gt;x3y9_15 -->
<g id="edge15" class="edge">
<title>x3y11_55&#45;&gt;x3y9_15</title>
<path fill="none" stroke="black" d="M270,-334.4C270,-287.29 270,-225.27 270,-216.78"/>
</g>
<!-- x6y10_95 -->
<g id="node6" class="node">
<title>x6y10_95</title>
<polygon fill="none" stroke="blue" points="540,-399.4 432,-399.4 432,-291.4 540,-291.4 540,-399.4"/>
<text text-anchor="middle" x="486" y="-348.6" font-family="Times,serif" font-size="11.00">Mike Kosin</text>
<text text-anchor="middle" x="486" y="-336.6" font-family="Times,serif" font-size="11.00">1977</text>
</g>
<!-- x15y10_95 -->
<g id="node7" class="node">
<title>x15y10_95</title>
<ellipse fill="none" stroke="pink" cx="1134" cy="-345.4" rx="54" ry="54"/>
<text text-anchor="middle" x="1134" y="-348.6" font-family="Times,serif" font-size="11.00">Silvia Andert</text>
<text text-anchor="middle" x="1134" y="-336.6" font-family="Times,serif" font-size="11.00">1977</text>
</g>
<!-- x18y11_70 -->
<g id="node8" class="node">
<title>x18y11_70</title>
<ellipse fill="none" stroke="pink" cx="1350" cy="-399.4" rx="54" ry="54"/>
<text text-anchor="middle" x="1350" y="-402.6" font-family="Times,serif" font-size="11.00">Jeanette Andert</text>
<text text-anchor="middle" x="1350" y="-390.6" font-family="Times,serif" font-size="11.00">1972</text>
</g>
<!-- x6y7_20 -->
<g id="node9" class="node">
<title>x6y7_20</title>
<polygon fill="none" stroke="blue" points="540,-129.4 432,-129.4 432,-21.4 540,-21.4 540,-129.4"/>
<text text-anchor="middle" x="486" y="-78.6" font-family="Times,serif" font-size="11.00">Paul Randy Andert</text>
<text text-anchor="middle" x="486" y="-66.6" font-family="Times,serif" font-size="11.00">2002</text>
</g>
<!-- x9y6_90 -->
<g id="node10" class="node">
<title>x9y6_90</title>
<polygon fill="none" stroke="blue" points="756,-107.8 648,-107.8 648,0.2 756,0.2 756,-107.8"/>
<text text-anchor="middle" x="702" y="-57" font-family="Times,serif" font-size="11.00">Ben Rudi Andert</text>
<text text-anchor="middle" x="702" y="-45" font-family="Times,serif" font-size="11.00">2004</text>
</g>
<!-- x3y13_05 -->
<g id="node12" class="node">
<title>x3y13_05</title>
<ellipse fill="none" stroke="black" cx="270" cy="-496.6" rx="0.5" ry="0.5"/>
</g>
<!-- x0y13_05&#45;&gt;x3y13_05 -->
<g id="edge2" class="edge">
<title>x0y13_05&#45;&gt;x3y13_05</title>
<path fill="none" stroke="black" d="M54.96,-496.6C69.94,-496.6 254.7,-496.6 269.11,-496.6"/>
</g>
<!-- x3y13_05&#45;&gt;x3y11_55 -->
<g id="edge6" class="edge">
<title>x3y13_05&#45;&gt;x3y11_55</title>
<path fill="none" stroke="black" d="M270,-495.91C270,-491.56 270,-467.35 270,-443.03"/>
</g>
<!-- x6y13_05 -->
<g id="node13" class="node">
<title>x6y13_05</title>
<ellipse fill="none" stroke="black" cx="486" cy="-496.6" rx="0.5" ry="0.5"/>
</g>
<!-- x3y13_05&#45;&gt;x6y13_05 -->
<g id="edge3" class="edge">
<title>x3y13_05&#45;&gt;x6y13_05</title>
<path fill="none" stroke="black" d="M270.96,-496.6C285.94,-496.6 470.7,-496.6 485.11,-496.6"/>
</g>
<!-- x6y13_05&#45;&gt;x6y10_95 -->
<g id="edge7" class="edge">
<title>x6y13_05&#45;&gt;x6y10_95</title>
<path fill="none" stroke="black" d="M486,-495.63C486,-488.24 486,-439.8 486,-399.89"/>
</g>
<!-- x9y13_05 -->
<g id="node14" class="node">
<title>x9y13_05</title>
<ellipse fill="none" stroke="black" cx="702" cy="-496.6" rx="0.5" ry="0.5"/>
</g>
<!-- x6y13_05&#45;&gt;x9y13_05 -->
<g id="edge4" class="edge">
<title>x6y13_05&#45;&gt;x9y13_05</title>
<path fill="none" stroke="black" d="M486.96,-496.6C501.94,-496.6 686.7,-496.6 701.11,-496.6"/>
</g>
<!-- x9y13_05&#45;&gt;x9y14_40 -->
<g id="edge5" class="edge">
<title>x9y13_05&#45;&gt;x9y14_40</title>
<path fill="none" stroke="black" d="M702,-497.22C702,-500.81 702,-519.44 702,-539.4"/>
</g>
<!-- x15y13_65 -->
<g id="node16" class="node">
<title>x15y13_65</title>
<ellipse fill="none" stroke="black" cx="1134" cy="-539.8" rx="0.5" ry="0.5"/>
</g>
<!-- x12y13_65&#45;&gt;x15y13_65 -->
<g id="edge9" class="edge">
<title>x12y13_65&#45;&gt;x15y13_65</title>
<path fill="none" stroke="black" d="M918.96,-539.8C933.94,-539.8 1118.7,-539.8 1133.11,-539.8"/>
</g>
<!-- x15y13_65&#45;&gt;x15y10_95 -->
<g id="edge13" class="edge">
<title>x15y13_65&#45;&gt;x15y10_95</title>
<path fill="none" stroke="black" d="M1134,-538.93C1134,-529.98 1134,-453.52 1134,-399.43"/>
</g>
<!-- x18y13_65 -->
<g id="node17" class="node">
<title>x18y13_65</title>
<ellipse fill="none" stroke="black" cx="1350" cy="-539.8" rx="0.5" ry="0.5"/>
</g>
<!-- x15y13_65&#45;&gt;x18y13_65 -->
<g id="edge10" class="edge">
<title>x15y13_65&#45;&gt;x18y13_65</title>
<path fill="none" stroke="black" d="M1134.96,-539.8C1149.94,-539.8 1334.7,-539.8 1349.11,-539.8"/>
</g>
<!-- x18y13_65&#45;&gt;x18y11_70 -->
<g id="edge14" class="edge">
<title>x18y13_65&#45;&gt;x18y11_70</title>
<path fill="none" stroke="black" d="M1350,-538.9C1350,-532.27 1350,-490.07 1350,-453.81"/>
</g>
<!-- x21y13_65 -->
<g id="node18" class="node">
<title>x21y13_65</title>
<ellipse fill="none" stroke="black" cx="1566" cy="-539.8" rx="0.5" ry="0.5"/>
</g>
<!-- x18y13_65&#45;&gt;x21y13_65 -->
<g id="edge11" class="edge">
<title>x18y13_65&#45;&gt;x21y13_65</title>
<path fill="none" stroke="black" d="M1350.96,-539.8C1365.94,-539.8 1550.7,-539.8 1565.11,-539.8"/>
</g>
<!-- x21y13_65&#45;&gt;x21y15_30 -->
<g id="edge12" class="edge">
<title>x21y13_65&#45;&gt;x21y15_30</title>
<path fill="none" stroke="black" d="M1566,-540.56C1566,-545.68 1566,-575.82 1566,-604.37"/>
</g>
<!-- x6y9_15 -->
<g id="node20" class="node">
<title>x6y9_15</title>
<ellipse fill="none" stroke="black" cx="486" cy="-215.8" rx="0.5" ry="0.5"/>
</g>
<!-- x3y9_15&#45;&gt;x6y9_15 -->
<g id="edge16" class="edge">
<title>x3y9_15&#45;&gt;x6y9_15</title>
<path fill="none" stroke="black" d="M270.96,-215.8C285.94,-215.8 470.7,-215.8 485.11,-215.8"/>
</g>
<!-- x6y9_15&#45;&gt;x6y7_20 -->
<g id="edge20" class="edge">
<title>x6y9_15&#45;&gt;x6y7_20</title>
<path fill="none" stroke="black" d="M486,-214.9C486,-208.27 486,-166.07 486,-129.81"/>
</g>
<!-- x9y9_15 -->
<g id="node21" class="node">
<title>x9y9_15</title>
<ellipse fill="none" stroke="black" cx="702" cy="-215.8" rx="0.5" ry="0.5"/>
</g>
<!-- x6y9_15&#45;&gt;x9y9_15 -->
<g id="edge17" class="edge">
<title>x6y9_15&#45;&gt;x9y9_15</title>
<path fill="none" stroke="black" d="M486.96,-215.8C501.94,-215.8 686.7,-215.8 701.11,-215.8"/>
</g>
<!-- x9y9_15&#45;&gt;x9y6_90 -->
<g id="edge21" class="edge">
<title>x9y9_15&#45;&gt;x9y6_90</title>
<path fill="none" stroke="black" d="M702,-215.08C702,-208.12 702,-152.22 702,-108.16"/>
</g>
<!-- x15y9_15 -->
<g id="node22" class="node">
<title>x15y9_15</title>
<ellipse fill="none" stroke="black" cx="1134" cy="-215.8" rx="0.5" ry="0.5"/>
</g>
<!-- x9y9_15&#45;&gt;x15y9_15 -->
<g id="edge18" class="edge">
<title>x9y9_15&#45;&gt;x15y9_15</title>
<path fill="none" stroke="black" d="M702.7,-215.8C721.56,-215.8 1114.9,-215.8 1133.33,-215.8"/>
</g>
<!-- x15y9_15&#45;&gt;x15y10_95 -->
<g id="edge19" class="edge">
<title>x15y9_15&#45;&gt;x15y10_95</title>
<path fill="none" stroke="black" d="M1134,-216.63C1134,-222.49 1134,-258.47 1134,-290.91"/>
</g>
</g>
</svg>
