<?xml version="1.0" encoding="UTF-8" standalone="no"?>
<!DOCTYPE svg PUBLIC "-//W3C//DTD SVG 1.1//EN"
 "http://www.w3.org/Graphics/SVG/1.1/DTD/svg11.dtd">
<!-- Generated by graphviz version 7.1.0 (20230121.1956)
 -->
<!-- Title: P Pages: 1 -->
<svg width="4436pt" height="1412pt"
 viewBox="0.00 0.00 4436.00 1412.00" xmlns="http://www.w3.org/2000/svg" xmlns:xlink="http://www.w3.org/1999/xlink">
<g id="graph0" class="graph" transform="scale(1 1) rotate(0) translate(4 1408)">
<title>P</title>
<polygon fill="white" stroke="none" points="-4,4 -4,-1408 4432,-1408 4432,4 -4,4"/>
<!-- x54y24_90 -->
<g id="node1" class="node">
<title>x54y24_90</title>
<polygon fill="none" stroke="blue" points="3996,-1403.8 3888,-1403.8 3888,-1295.8 3996,-1295.8 3996,-1403.8"/>
<text text-anchor="middle" x="3942" y="-1353" font-family="Times,serif" font-size="11.00">Wilhelm Polz</text>
<text text-anchor="middle" x="3942" y="-1341" font-family="Times,serif" font-size="11.00">1884</text>
</g>
<!-- x54y22_65 -->
<g id="node29" class="node">
<title>x54y22_65</title>
<ellipse fill="none" stroke="black" cx="3942" cy="-1187.8" rx="0.5" ry="0.5"/>
</g>
<!-- x54y24_90&#45;&gt;x54y22_65 -->
<g id="edge1" class="edge">
<title>x54y24_90&#45;&gt;x54y22_65</title>
<path fill="none" stroke="black" d="M3942,-1295.41C3942,-1251.28 3942,-1195.32 3942,-1188.49"/>
</g>
<!-- x60y24_90 -->
<g id="node2" class="node">
<title>x60y24_90</title>
<ellipse fill="none" stroke="pink" cx="4374" cy="-1349.8" rx="54" ry="54"/>
<text text-anchor="middle" x="4374" y="-1353" font-family="Times,serif" font-size="11.00">Marie Polz</text>
<text text-anchor="middle" x="4374" y="-1341" font-family="Times,serif" font-size="11.00">1884</text>
</g>
<!-- x0y18_00 -->
<g id="node3" class="node">
<title>x0y18_00</title>
<polygon fill="none" stroke="blue" points="108,-907 0,-907 0,-799 108,-799 108,-907"/>
<text text-anchor="middle" x="54" y="-856.2" font-family="Times,serif" font-size="11.00">Paul Dabudziak</text>
<text text-anchor="middle" x="54" y="-844.2" font-family="Times,serif" font-size="11.00">1930</text>
</g>
<!-- x0y16_35 -->
<g id="node32" class="node">
<title>x0y16_35</title>
<ellipse fill="none" stroke="black" cx="54" cy="-734.2" rx="0.5" ry="0.5"/>
</g>
<!-- x0y18_00&#45;&gt;x0y16_35 -->
<g id="edge6" class="edge">
<title>x0y18_00&#45;&gt;x0y16_35</title>
<path fill="none" stroke="black" d="M54,-798.81C54,-770.42 54,-740.42 54,-735.05"/>
</g>
<!-- x15y17_85 -->
<g id="node4" class="node">
<title>x15y17_85</title>
<ellipse fill="none" stroke="pink" cx="1134" cy="-842.2" rx="54" ry="54"/>
<text text-anchor="middle" x="1134" y="-845.4" font-family="Times,serif" font-size="11.00">Irene Dabudziak</text>
<text text-anchor="middle" x="1134" y="-833.4" font-family="Times,serif" font-size="11.00">1931</text>
</g>
<!-- x18y18_90 -->
<g id="node5" class="node">
<title>x18y18_90</title>
<polygon fill="none" stroke="blue" points="1404,-971.8 1296,-971.8 1296,-863.8 1404,-863.8 1404,-971.8"/>
<text text-anchor="middle" x="1350" y="-921" font-family="Times,serif" font-size="11.00">Siegfried Ganzler</text>
<text text-anchor="middle" x="1350" y="-909" font-family="Times,serif" font-size="11.00">1924</text>
</g>
<!-- x18y16_65 -->
<g id="node38" class="node">
<title>x18y16_65</title>
<ellipse fill="none" stroke="black" cx="1350" cy="-755.8" rx="0.5" ry="0.5"/>
</g>
<!-- x18y18_90&#45;&gt;x18y16_65 -->
<g id="edge17" class="edge">
<title>x18y18_90&#45;&gt;x18y16_65</title>
<path fill="none" stroke="black" d="M1350,-863.41C1350,-819.28 1350,-763.32 1350,-756.49"/>
</g>
<!-- x27y18_90 -->
<g id="node6" class="node">
<title>x27y18_90</title>
<ellipse fill="none" stroke="pink" cx="1998" cy="-917.8" rx="54" ry="54"/>
<text text-anchor="middle" x="1998" y="-921" font-family="Times,serif" font-size="11.00">Erika Ganzler</text>
<text text-anchor="middle" x="1998" y="-909" font-family="Times,serif" font-size="11.00">1924</text>
</g>
<!-- x30y21_60 -->
<g id="node7" class="node">
<title>x30y21_60</title>
<polygon fill="none" stroke="blue" points="2268,-1166.2 2160,-1166.2 2160,-1058.2 2268,-1058.2 2268,-1166.2"/>
<text text-anchor="middle" x="2214" y="-1115.4" font-family="Times,serif" font-size="11.00">Willi Andert</text>
<text text-anchor="middle" x="2214" y="-1103.4" font-family="Times,serif" font-size="11.00">1906</text>
</g>
<!-- x30y19_95 -->
<g id="node42" class="node">
<title>x30y19_95</title>
<ellipse fill="none" stroke="black" cx="2214" cy="-993.4" rx="0.5" ry="0.5"/>
</g>
<!-- x30y21_60&#45;&gt;x30y19_95 -->
<g id="edge24" class="edge">
<title>x30y21_60&#45;&gt;x30y19_95</title>
<path fill="none" stroke="black" d="M2214,-1058.01C2214,-1029.62 2214,-999.62 2214,-994.25"/>
</g>
<!-- x42y21_75 -->
<g id="node8" class="node">
<title>x42y21_75</title>
<ellipse fill="none" stroke="pink" cx="3078" cy="-1123" rx="54" ry="54"/>
<text text-anchor="middle" x="3078" y="-1126.2" font-family="Times,serif" font-size="11.00">Gertrud Andert</text>
<text text-anchor="middle" x="3078" y="-1114.2" font-family="Times,serif" font-size="11.00">1905</text>
</g>
<!-- x45y21_60 -->
<g id="node9" class="node">
<title>x45y21_60</title>
<polygon fill="none" stroke="blue" points="3348,-1166.2 3240,-1166.2 3240,-1058.2 3348,-1058.2 3348,-1166.2"/>
<text text-anchor="middle" x="3294" y="-1115.4" font-family="Times,serif" font-size="11.00">Adolf Wendt</text>
<text text-anchor="middle" x="3294" y="-1103.4" font-family="Times,serif" font-size="11.00">1906</text>
</g>
<!-- x45y18_45 -->
<g id="node47" class="node">
<title>x45y18_45</title>
<ellipse fill="none" stroke="black" cx="3294" cy="-885.4" rx="0.5" ry="0.5"/>
</g>
<!-- x45y21_60&#45;&gt;x45y18_45 -->
<g id="edge33" class="edge">
<title>x45y21_60&#45;&gt;x45y18_45</title>
<path fill="none" stroke="black" d="M3294,-1057.88C3294,-993.92 3294,-895.2 3294,-886.08"/>
</g>
<!-- x57y20_40 -->
<g id="node10" class="node">
<title>x57y20_40</title>
<ellipse fill="none" stroke="pink" cx="4158" cy="-1025.8" rx="54" ry="54"/>
<text text-anchor="middle" x="4158" y="-1029" font-family="Times,serif" font-size="11.00">Gertrud Wendt</text>
<text text-anchor="middle" x="4158" y="-1017" font-family="Times,serif" font-size="11.00">1914</text>
</g>
<!-- x3y13_50 -->
<g id="node11" class="node">
<title>x3y13_50</title>
<ellipse fill="none" stroke="pink" cx="270" cy="-529" rx="54" ry="54"/>
<text text-anchor="middle" x="270" y="-532.2" font-family="Times,serif" font-size="11.00">Carola Dabudziak</text>
<text text-anchor="middle" x="270" y="-520.2" font-family="Times,serif" font-size="11.00">1960</text>
</g>
<!-- x6y13_50 -->
<g id="node12" class="node">
<title>x6y13_50</title>
<polygon fill="none" stroke="blue" points="540,-583 432,-583 432,-475 540,-475 540,-583"/>
<text text-anchor="middle" x="486" y="-532.2" font-family="Times,serif" font-size="11.00">Jürgen Dabudziak</text>
<text text-anchor="middle" x="486" y="-520.2" font-family="Times,serif" font-size="11.00">1960</text>
</g>
<!-- x9y13_50 -->
<g id="node13" class="node">
<title>x9y13_50</title>
<polygon fill="none" stroke="blue" points="756,-583 648,-583 648,-475 756,-475 756,-583"/>
<text text-anchor="middle" x="702" y="-532.2" font-family="Times,serif" font-size="11.00">Thomas Dabudziak</text>
<text text-anchor="middle" x="702" y="-520.2" font-family="Times,serif" font-size="11.00">1960</text>
</g>
<!-- x12y14_85 -->
<g id="node14" class="node">
<title>x12y14_85</title>
<polygon fill="none" stroke="blue" points="972,-680.2 864,-680.2 864,-572.2 972,-572.2 972,-680.2"/>
<text text-anchor="middle" x="918" y="-629.4" font-family="Times,serif" font-size="11.00">Rainer Dabudziak</text>
<text text-anchor="middle" x="918" y="-617.4" font-family="Times,serif" font-size="11.00">1951</text>
</g>
<!-- x12y13_05 -->
<g id="node52" class="node">
<title>x12y13_05</title>
<ellipse fill="none" stroke="black" cx="918" cy="-496.6" rx="0.5" ry="0.5"/>
</g>
<!-- x12y14_85&#45;&gt;x12y13_05 -->
<g id="edge42" class="edge">
<title>x12y14_85&#45;&gt;x12y13_05</title>
<path fill="none" stroke="black" d="M918,-571.99C918,-539.25 918,-502.8 918,-497.31"/>
</g>
<!-- x21y14_40 -->
<g id="node15" class="node">
<title>x21y14_40</title>
<ellipse fill="none" stroke="pink" cx="1566" cy="-593.8" rx="54" ry="54"/>
<text text-anchor="middle" x="1566" y="-597" font-family="Times,serif" font-size="11.00">Gabi Kosin</text>
<text text-anchor="middle" x="1566" y="-585" font-family="Times,serif" font-size="11.00">1954</text>
</g>
<!-- x24y14_40 -->
<g id="node16" class="node">
<title>x24y14_40</title>
<polygon fill="none" stroke="blue" points="1836,-647.8 1728,-647.8 1728,-539.8 1836,-539.8 1836,-647.8"/>
<text text-anchor="middle" x="1782" y="-597" font-family="Times,serif" font-size="11.00">Gerd Ganzler</text>
<text text-anchor="middle" x="1782" y="-585" font-family="Times,serif" font-size="11.00">1954</text>
</g>
<!-- x33y17_25 -->
<g id="node17" class="node">
<title>x33y17_25</title>
<polygon fill="none" stroke="blue" points="2484,-853 2376,-853 2376,-745 2484,-745 2484,-853"/>
<text text-anchor="middle" x="2430" y="-802.2" font-family="Times,serif" font-size="11.00">Siegfried Andert</text>
<text text-anchor="middle" x="2430" y="-790.2" font-family="Times,serif" font-size="11.00">1935</text>
</g>
<!-- x36y18_15 -->
<g id="node18" class="node">
<title>x36y18_15</title>
<ellipse fill="none" stroke="pink" cx="2646" cy="-863.8" rx="54" ry="54"/>
<text text-anchor="middle" x="2646" y="-867" font-family="Times,serif" font-size="11.00">Edith Jungnickel</text>
<text text-anchor="middle" x="2646" y="-855" font-family="Times,serif" font-size="11.00">1929</text>
</g>
<!-- x39y16_50 -->
<g id="node19" class="node">
<title>x39y16_50</title>
<polygon fill="none" stroke="blue" points="2916,-799 2808,-799 2808,-691 2916,-691 2916,-799"/>
<text text-anchor="middle" x="2862" y="-748.2" font-family="Times,serif" font-size="11.00">Rudi Andert</text>
<text text-anchor="middle" x="2862" y="-736.2" font-family="Times,serif" font-size="11.00">1940</text>
</g>
<!-- x39y13_50 -->
<g id="node56" class="node">
<title>x39y13_50</title>
<ellipse fill="none" stroke="black" cx="2862" cy="-529" rx="0.5" ry="0.5"/>
</g>
<!-- x39y16_50&#45;&gt;x39y13_50 -->
<g id="edge49" class="edge">
<title>x39y16_50&#45;&gt;x39y13_50</title>
<path fill="none" stroke="black" d="M2862,-690.77C2862,-629.79 2862,-538.09 2862,-529.63"/>
</g>
<!-- x48y15_30 -->
<g id="node20" class="node">
<title>x48y15_30</title>
<ellipse fill="none" stroke="pink" cx="3510" cy="-658.6" rx="54" ry="54"/>
<text text-anchor="middle" x="3510" y="-661.8" font-family="Times,serif" font-size="11.00">Edith Andert</text>
<text text-anchor="middle" x="3510" y="-649.8" font-family="Times,serif" font-size="11.00">1948</text>
</g>
<!-- x51y16_50 -->
<g id="node21" class="node">
<title>x51y16_50</title>
<ellipse fill="none" stroke="pink" cx="3726" cy="-745" rx="54" ry="54"/>
<text text-anchor="middle" x="3726" y="-748.2" font-family="Times,serif" font-size="11.00">Inge Wendt</text>
<text text-anchor="middle" x="3726" y="-736.2" font-family="Times,serif" font-size="11.00">1940</text>
</g>
<!-- x54y16_50 -->
<g id="node22" class="node">
<title>x54y16_50</title>
<polygon fill="none" stroke="blue" points="3996,-799 3888,-799 3888,-691 3996,-691 3996,-799"/>
<text text-anchor="middle" x="3942" y="-748.2" font-family="Times,serif" font-size="11.00">Adolf Wendt jr.</text>
<text text-anchor="middle" x="3942" y="-736.2" font-family="Times,serif" font-size="11.00">1940</text>
</g>
<!-- x15y10_95 -->
<g id="node23" class="node">
<title>x15y10_95</title>
<polygon fill="none" stroke="blue" points="1188,-399.4 1080,-399.4 1080,-291.4 1188,-291.4 1188,-399.4"/>
<text text-anchor="middle" x="1134" y="-348.6" font-family="Times,serif" font-size="11.00">Mike Kosin</text>
<text text-anchor="middle" x="1134" y="-336.6" font-family="Times,serif" font-size="11.00">1977</text>
</g>
<!-- x18y11_55 -->
<g id="node24" class="node">
<title>x18y11_55</title>
<polygon fill="none" stroke="blue" points="1404,-442.6 1296,-442.6 1296,-334.6 1404,-334.6 1404,-442.6"/>
<text text-anchor="middle" x="1350" y="-391.8" font-family="Times,serif" font-size="11.00">Randy Andert</text>
<text text-anchor="middle" x="1350" y="-379.8" font-family="Times,serif" font-size="11.00">1973</text>
</g>
<!-- x18y9_15 -->
<g id="node60" class="node">
<title>x18y9_15</title>
<ellipse fill="none" stroke="black" cx="1350" cy="-215.8" rx="0.5" ry="0.5"/>
</g>
<!-- x18y11_55&#45;&gt;x18y9_15 -->
<g id="edge56" class="edge">
<title>x18y11_55&#45;&gt;x18y9_15</title>
<path fill="none" stroke="black" d="M1350,-334.4C1350,-287.29 1350,-225.27 1350,-216.78"/>
</g>
<!-- x42y10_95 -->
<g id="node25" class="node">
<title>x42y10_95</title>
<ellipse fill="none" stroke="pink" cx="3078" cy="-345.4" rx="54" ry="54"/>
<text text-anchor="middle" x="3078" y="-348.6" font-family="Times,serif" font-size="11.00">Silvia Andert</text>
<text text-anchor="middle" x="3078" y="-336.6" font-family="Times,serif" font-size="11.00">1977</text>
</g>
<!-- x45y11_70 -->
<g id="node26" class="node">
<title>x45y11_70</title>
<ellipse fill="none" stroke="pink" cx="3294" cy="-399.4" rx="54" ry="54"/>
<text text-anchor="middle" x="3294" y="-402.6" font-family="Times,serif" font-size="11.00">Jeanette Andert</text>
<text text-anchor="middle" x="3294" y="-390.6" font-family="Times,serif" font-size="11.00">1972</text>
</g>
<!-- x27y7_20 -->
<g id="node27" class="node">
<title>x27y7_20</title>
<polygon fill="none" stroke="blue" points="2052,-129.4 1944,-129.4 1944,-21.4 2052,-21.4 2052,-129.4"/>
<text text-anchor="middle" x="1998" y="-78.6" font-family="Times,serif" font-size="11.00">Paul Andert</text>
<text text-anchor="middle" x="1998" y="-66.6" font-family="Times,serif" font-size="11.00">2002</text>
</g>
<!-- x33y6_90 -->
<g id="node28" class="node">
<title>x33y6_90</title>
<polygon fill="none" stroke="blue" points="2484,-107.8 2376,-107.8 2376,0.2 2484,0.2 2484,-107.8"/>
<text text-anchor="middle" x="2430" y="-57" font-family="Times,serif" font-size="11.00">Ben Andert</text>
<text text-anchor="middle" x="2430" y="-45" font-family="Times,serif" font-size="11.00">2004</text>
</g>
<!-- x57y22_65 -->
<g id="node30" class="node">
<title>x57y22_65</title>
<ellipse fill="none" stroke="black" cx="4158" cy="-1187.8" rx="0.5" ry="0.5"/>
</g>
<!-- x54y22_65&#45;&gt;x57y22_65 -->
<g id="edge2" class="edge">
<title>x54y22_65&#45;&gt;x57y22_65</title>
<path fill="none" stroke="black" d="M3942.96,-1187.8C3957.94,-1187.8 4142.7,-1187.8 4157.11,-1187.8"/>
</g>
<!-- x57y22_65&#45;&gt;x57y20_40 -->
<g id="edge5" class="edge">
<title>x57y22_65&#45;&gt;x57y20_40</title>
<path fill="none" stroke="black" d="M4158,-1187.08C4158,-1180.12 4158,-1124.22 4158,-1080.16"/>
</g>
<!-- x60y22_65 -->
<g id="node31" class="node">
<title>x60y22_65</title>
<ellipse fill="none" stroke="black" cx="4374" cy="-1187.8" rx="0.5" ry="0.5"/>
</g>
<!-- x57y22_65&#45;&gt;x60y22_65 -->
<g id="edge3" class="edge">
<title>x57y22_65&#45;&gt;x60y22_65</title>
<path fill="none" stroke="black" d="M4158.96,-1187.8C4173.94,-1187.8 4358.7,-1187.8 4373.11,-1187.8"/>
</g>
<!-- x60y22_65&#45;&gt;x60y24_90 -->
<g id="edge4" class="edge">
<title>x60y22_65&#45;&gt;x60y24_90</title>
<path fill="none" stroke="black" d="M4374,-1188.52C4374,-1195.48 4374,-1251.38 4374,-1295.44"/>
</g>
<!-- x3y16_35 -->
<g id="node33" class="node">
<title>x3y16_35</title>
<ellipse fill="none" stroke="black" cx="270" cy="-734.2" rx="0.5" ry="0.5"/>
</g>
<!-- x0y16_35&#45;&gt;x3y16_35 -->
<g id="edge7" class="edge">
<title>x0y16_35&#45;&gt;x3y16_35</title>
<path fill="none" stroke="black" d="M54.96,-734.2C69.94,-734.2 254.7,-734.2 269.11,-734.2"/>
</g>
<!-- x3y16_35&#45;&gt;x3y13_50 -->
<g id="edge13" class="edge">
<title>x3y16_35&#45;&gt;x3y13_50</title>
<path fill="none" stroke="black" d="M270,-733.28C270,-723.69 270,-640.64 270,-583.43"/>
</g>
<!-- x6y16_35 -->
<g id="node34" class="node">
<title>x6y16_35</title>
<ellipse fill="none" stroke="black" cx="486" cy="-734.2" rx="0.5" ry="0.5"/>
</g>
<!-- x3y16_35&#45;&gt;x6y16_35 -->
<g id="edge8" class="edge">
<title>x3y16_35&#45;&gt;x6y16_35</title>
<path fill="none" stroke="black" d="M270.96,-734.2C285.94,-734.2 470.7,-734.2 485.11,-734.2"/>
</g>
<!-- x6y16_35&#45;&gt;x6y13_50 -->
<g id="edge14" class="edge">
<title>x6y16_35&#45;&gt;x6y13_50</title>
<path fill="none" stroke="black" d="M486,-733.28C486,-723.69 486,-640.64 486,-583.43"/>
</g>
<!-- x9y16_35 -->
<g id="node35" class="node">
<title>x9y16_35</title>
<ellipse fill="none" stroke="black" cx="702" cy="-734.2" rx="0.5" ry="0.5"/>
</g>
<!-- x6y16_35&#45;&gt;x9y16_35 -->
<g id="edge9" class="edge">
<title>x6y16_35&#45;&gt;x9y16_35</title>
<path fill="none" stroke="black" d="M486.96,-734.2C501.94,-734.2 686.7,-734.2 701.11,-734.2"/>
</g>
<!-- x9y16_35&#45;&gt;x9y13_50 -->
<g id="edge15" class="edge">
<title>x9y16_35&#45;&gt;x9y13_50</title>
<path fill="none" stroke="black" d="M702,-733.28C702,-723.69 702,-640.64 702,-583.43"/>
</g>
<!-- x12y16_35 -->
<g id="node36" class="node">
<title>x12y16_35</title>
<ellipse fill="none" stroke="black" cx="918" cy="-734.2" rx="0.5" ry="0.5"/>
</g>
<!-- x9y16_35&#45;&gt;x12y16_35 -->
<g id="edge10" class="edge">
<title>x9y16_35&#45;&gt;x12y16_35</title>
<path fill="none" stroke="black" d="M702.96,-734.2C717.94,-734.2 902.7,-734.2 917.11,-734.2"/>
</g>
<!-- x12y16_35&#45;&gt;x12y14_85 -->
<g id="edge16" class="edge">
<title>x12y16_35&#45;&gt;x12y14_85</title>
<path fill="none" stroke="black" d="M918,-733.51C918,-729.16 918,-704.95 918,-680.63"/>
</g>
<!-- x15y16_35 -->
<g id="node37" class="node">
<title>x15y16_35</title>
<ellipse fill="none" stroke="black" cx="1134" cy="-734.2" rx="0.5" ry="0.5"/>
</g>
<!-- x12y16_35&#45;&gt;x15y16_35 -->
<g id="edge11" class="edge">
<title>x12y16_35&#45;&gt;x15y16_35</title>
<path fill="none" stroke="black" d="M918.96,-734.2C933.94,-734.2 1118.7,-734.2 1133.11,-734.2"/>
</g>
<!-- x15y16_35&#45;&gt;x15y17_85 -->
<g id="edge12" class="edge">
<title>x15y16_35&#45;&gt;x15y17_85</title>
<path fill="none" stroke="black" d="M1134,-734.89C1134,-739.24 1134,-763.45 1134,-787.77"/>
</g>
<!-- x21y16_65 -->
<g id="node39" class="node">
<title>x21y16_65</title>
<ellipse fill="none" stroke="black" cx="1566" cy="-755.8" rx="0.5" ry="0.5"/>
</g>
<!-- x18y16_65&#45;&gt;x21y16_65 -->
<g id="edge18" class="edge">
<title>x18y16_65&#45;&gt;x21y16_65</title>
<path fill="none" stroke="black" d="M1350.96,-755.8C1365.94,-755.8 1550.7,-755.8 1565.11,-755.8"/>
</g>
<!-- x21y16_65&#45;&gt;x21y14_40 -->
<g id="edge22" class="edge">
<title>x21y16_65&#45;&gt;x21y14_40</title>
<path fill="none" stroke="black" d="M1566,-755.08C1566,-748.12 1566,-692.22 1566,-648.16"/>
</g>
<!-- x24y16_65 -->
<g id="node40" class="node">
<title>x24y16_65</title>
<ellipse fill="none" stroke="black" cx="1782" cy="-755.8" rx="0.5" ry="0.5"/>
</g>
<!-- x21y16_65&#45;&gt;x24y16_65 -->
<g id="edge19" class="edge">
<title>x21y16_65&#45;&gt;x24y16_65</title>
<path fill="none" stroke="black" d="M1566.96,-755.8C1581.94,-755.8 1766.7,-755.8 1781.11,-755.8"/>
</g>
<!-- x24y16_65&#45;&gt;x24y14_40 -->
<g id="edge23" class="edge">
<title>x24y16_65&#45;&gt;x24y14_40</title>
<path fill="none" stroke="black" d="M1782,-755.08C1782,-748.12 1782,-692.22 1782,-648.16"/>
</g>
<!-- x27y16_65 -->
<g id="node41" class="node">
<title>x27y16_65</title>
<ellipse fill="none" stroke="black" cx="1998" cy="-755.8" rx="0.5" ry="0.5"/>
</g>
<!-- x24y16_65&#45;&gt;x27y16_65 -->
<g id="edge20" class="edge">
<title>x24y16_65&#45;&gt;x27y16_65</title>
<path fill="none" stroke="black" d="M1782.96,-755.8C1797.94,-755.8 1982.7,-755.8 1997.11,-755.8"/>
</g>
<!-- x27y16_65&#45;&gt;x27y18_90 -->
<g id="edge21" class="edge">
<title>x27y16_65&#45;&gt;x27y18_90</title>
<path fill="none" stroke="black" d="M1998,-756.52C1998,-763.48 1998,-819.38 1998,-863.44"/>
</g>
<!-- x33y19_95 -->
<g id="node43" class="node">
<title>x33y19_95</title>
<ellipse fill="none" stroke="black" cx="2430" cy="-993.4" rx="0.5" ry="0.5"/>
</g>
<!-- x30y19_95&#45;&gt;x33y19_95 -->
<g id="edge25" class="edge">
<title>x30y19_95&#45;&gt;x33y19_95</title>
<path fill="none" stroke="black" d="M2214.96,-993.4C2229.94,-993.4 2414.7,-993.4 2429.11,-993.4"/>
</g>
<!-- x33y19_95&#45;&gt;x33y17_25 -->
<g id="edge30" class="edge">
<title>x33y19_95&#45;&gt;x33y17_25</title>
<path fill="none" stroke="black" d="M2430,-992.53C2430,-983.58 2430,-907.12 2430,-853.03"/>
</g>
<!-- x36y19_95 -->
<g id="node44" class="node">
<title>x36y19_95</title>
<ellipse fill="none" stroke="black" cx="2646" cy="-993.4" rx="0.5" ry="0.5"/>
</g>
<!-- x33y19_95&#45;&gt;x36y19_95 -->
<g id="edge26" class="edge">
<title>x33y19_95&#45;&gt;x36y19_95</title>
<path fill="none" stroke="black" d="M2430.96,-993.4C2445.94,-993.4 2630.7,-993.4 2645.11,-993.4"/>
</g>
<!-- x36y19_95&#45;&gt;x36y18_15 -->
<g id="edge31" class="edge">
<title>x36y19_95&#45;&gt;x36y18_15</title>
<path fill="none" stroke="black" d="M2646,-992.57C2646,-986.71 2646,-950.73 2646,-918.29"/>
</g>
<!-- x39y19_95 -->
<g id="node45" class="node">
<title>x39y19_95</title>
<ellipse fill="none" stroke="black" cx="2862" cy="-993.4" rx="0.5" ry="0.5"/>
</g>
<!-- x36y19_95&#45;&gt;x39y19_95 -->
<g id="edge27" class="edge">
<title>x36y19_95&#45;&gt;x39y19_95</title>
<path fill="none" stroke="black" d="M2646.96,-993.4C2661.94,-993.4 2846.7,-993.4 2861.11,-993.4"/>
</g>
<!-- x39y19_95&#45;&gt;x39y16_50 -->
<g id="edge32" class="edge">
<title>x39y19_95&#45;&gt;x39y16_50</title>
<path fill="none" stroke="black" d="M2862,-992.69C2862,-982.66 2862,-869.03 2862,-799.22"/>
</g>
<!-- x42y19_95 -->
<g id="node46" class="node">
<title>x42y19_95</title>
<ellipse fill="none" stroke="black" cx="3078" cy="-993.4" rx="0.5" ry="0.5"/>
</g>
<!-- x39y19_95&#45;&gt;x42y19_95 -->
<g id="edge28" class="edge">
<title>x39y19_95&#45;&gt;x42y19_95</title>
<path fill="none" stroke="black" d="M2862.96,-993.4C2877.94,-993.4 3062.7,-993.4 3077.11,-993.4"/>
</g>
<!-- x42y19_95&#45;&gt;x42y21_75 -->
<g id="edge29" class="edge">
<title>x42y19_95&#45;&gt;x42y21_75</title>
<path fill="none" stroke="black" d="M3078,-994.23C3078,-1000.09 3078,-1036.07 3078,-1068.51"/>
</g>
<!-- x48y18_45 -->
<g id="node48" class="node">
<title>x48y18_45</title>
<ellipse fill="none" stroke="black" cx="3510" cy="-885.4" rx="0.5" ry="0.5"/>
</g>
<!-- x45y18_45&#45;&gt;x48y18_45 -->
<g id="edge34" class="edge">
<title>x45y18_45&#45;&gt;x48y18_45</title>
<path fill="none" stroke="black" d="M3294.96,-885.4C3309.94,-885.4 3494.7,-885.4 3509.11,-885.4"/>
</g>
<!-- x48y18_45&#45;&gt;x48y15_30 -->
<g id="edge39" class="edge">
<title>x48y18_45&#45;&gt;x48y15_30</title>
<path fill="none" stroke="black" d="M3510,-884.75C3510,-875.82 3510,-777.08 3510,-713.06"/>
</g>
<!-- x51y18_45 -->
<g id="node49" class="node">
<title>x51y18_45</title>
<ellipse fill="none" stroke="black" cx="3726" cy="-885.4" rx="0.5" ry="0.5"/>
</g>
<!-- x48y18_45&#45;&gt;x51y18_45 -->
<g id="edge35" class="edge">
<title>x48y18_45&#45;&gt;x51y18_45</title>
<path fill="none" stroke="black" d="M3510.96,-885.4C3525.94,-885.4 3710.7,-885.4 3725.11,-885.4"/>
</g>
<!-- x51y18_45&#45;&gt;x51y16_50 -->
<g id="edge40" class="edge">
<title>x51y18_45&#45;&gt;x51y16_50</title>
<path fill="none" stroke="black" d="M3726,-884.5C3726,-877.87 3726,-835.67 3726,-799.41"/>
</g>
<!-- x54y18_45 -->
<g id="node50" class="node">
<title>x54y18_45</title>
<ellipse fill="none" stroke="black" cx="3942" cy="-885.4" rx="0.5" ry="0.5"/>
</g>
<!-- x51y18_45&#45;&gt;x54y18_45 -->
<g id="edge36" class="edge">
<title>x51y18_45&#45;&gt;x54y18_45</title>
<path fill="none" stroke="black" d="M3726.96,-885.4C3741.94,-885.4 3926.7,-885.4 3941.11,-885.4"/>
</g>
<!-- x54y18_45&#45;&gt;x54y16_50 -->
<g id="edge41" class="edge">
<title>x54y18_45&#45;&gt;x54y16_50</title>
<path fill="none" stroke="black" d="M3942,-884.5C3942,-877.87 3942,-835.67 3942,-799.41"/>
</g>
<!-- x57y18_45 -->
<g id="node51" class="node">
<title>x57y18_45</title>
<ellipse fill="none" stroke="black" cx="4158" cy="-885.4" rx="0.5" ry="0.5"/>
</g>
<!-- x54y18_45&#45;&gt;x57y18_45 -->
<g id="edge37" class="edge">
<title>x54y18_45&#45;&gt;x57y18_45</title>
<path fill="none" stroke="black" d="M3942.96,-885.4C3957.94,-885.4 4142.7,-885.4 4157.11,-885.4"/>
</g>
<!-- x57y18_45&#45;&gt;x57y20_40 -->
<g id="edge38" class="edge">
<title>x57y18_45&#45;&gt;x57y20_40</title>
<path fill="none" stroke="black" d="M4158,-886.3C4158,-892.93 4158,-935.13 4158,-971.39"/>
</g>
<!-- x15y13_05 -->
<g id="node53" class="node">
<title>x15y13_05</title>
<ellipse fill="none" stroke="black" cx="1134" cy="-496.6" rx="0.5" ry="0.5"/>
</g>
<!-- x12y13_05&#45;&gt;x15y13_05 -->
<g id="edge43" class="edge">
<title>x12y13_05&#45;&gt;x15y13_05</title>
<path fill="none" stroke="black" d="M918.96,-496.6C933.94,-496.6 1118.7,-496.6 1133.11,-496.6"/>
</g>
<!-- x15y13_05&#45;&gt;x15y10_95 -->
<g id="edge47" class="edge">
<title>x15y13_05&#45;&gt;x15y10_95</title>
<path fill="none" stroke="black" d="M1134,-495.63C1134,-488.24 1134,-439.8 1134,-399.89"/>
</g>
<!-- x18y13_05 -->
<g id="node54" class="node">
<title>x18y13_05</title>
<ellipse fill="none" stroke="black" cx="1350" cy="-496.6" rx="0.5" ry="0.5"/>
</g>
<!-- x15y13_05&#45;&gt;x18y13_05 -->
<g id="edge44" class="edge">
<title>x15y13_05&#45;&gt;x18y13_05</title>
<path fill="none" stroke="black" d="M1134.96,-496.6C1149.94,-496.6 1334.7,-496.6 1349.11,-496.6"/>
</g>
<!-- x18y13_05&#45;&gt;x18y11_55 -->
<g id="edge48" class="edge">
<title>x18y13_05&#45;&gt;x18y11_55</title>
<path fill="none" stroke="black" d="M1350,-495.91C1350,-491.56 1350,-467.35 1350,-443.03"/>
</g>
<!-- x21y13_05 -->
<g id="node55" class="node">
<title>x21y13_05</title>
<ellipse fill="none" stroke="black" cx="1566" cy="-496.6" rx="0.5" ry="0.5"/>
</g>
<!-- x18y13_05&#45;&gt;x21y13_05 -->
<g id="edge45" class="edge">
<title>x18y13_05&#45;&gt;x21y13_05</title>
<path fill="none" stroke="black" d="M1350.96,-496.6C1365.94,-496.6 1550.7,-496.6 1565.11,-496.6"/>
</g>
<!-- x21y13_05&#45;&gt;x21y14_40 -->
<g id="edge46" class="edge">
<title>x21y13_05&#45;&gt;x21y14_40</title>
<path fill="none" stroke="black" d="M1566,-497.22C1566,-500.81 1566,-519.44 1566,-539.4"/>
</g>
<!-- x42y13_50 -->
<g id="node57" class="node">
<title>x42y13_50</title>
<ellipse fill="none" stroke="black" cx="3078" cy="-529" rx="0.5" ry="0.5"/>
</g>
<!-- x39y13_50&#45;&gt;x42y13_50 -->
<g id="edge50" class="edge">
<title>x39y13_50&#45;&gt;x42y13_50</title>
<path fill="none" stroke="black" d="M2862.96,-529C2877.94,-529 3062.7,-529 3077.11,-529"/>
</g>
<!-- x42y13_50&#45;&gt;x42y10_95 -->
<g id="edge54" class="edge">
<title>x42y13_50&#45;&gt;x42y10_95</title>
<path fill="none" stroke="black" d="M3078,-528.18C3078,-519.9 3078,-450.57 3078,-399.74"/>
</g>
<!-- x45y13_50 -->
<g id="node58" class="node">
<title>x45y13_50</title>
<ellipse fill="none" stroke="black" cx="3294" cy="-529" rx="0.5" ry="0.5"/>
</g>
<!-- x42y13_50&#45;&gt;x45y13_50 -->
<g id="edge51" class="edge">
<title>x42y13_50&#45;&gt;x45y13_50</title>
<path fill="none" stroke="black" d="M3078.96,-529C3093.94,-529 3278.7,-529 3293.11,-529"/>
</g>
<!-- x45y13_50&#45;&gt;x45y11_70 -->
<g id="edge55" class="edge">
<title>x45y13_50&#45;&gt;x45y11_70</title>
<path fill="none" stroke="black" d="M3294,-528.17C3294,-522.31 3294,-486.33 3294,-453.89"/>
</g>
<!-- x48y13_50 -->
<g id="node59" class="node">
<title>x48y13_50</title>
<ellipse fill="none" stroke="black" cx="3510" cy="-529" rx="0.5" ry="0.5"/>
</g>
<!-- x45y13_50&#45;&gt;x48y13_50 -->
<g id="edge52" class="edge">
<title>x45y13_50&#45;&gt;x48y13_50</title>
<path fill="none" stroke="black" d="M3294.96,-529C3309.94,-529 3494.7,-529 3509.11,-529"/>
</g>
<!-- x48y13_50&#45;&gt;x48y15_30 -->
<g id="edge53" class="edge">
<title>x48y13_50&#45;&gt;x48y15_30</title>
<path fill="none" stroke="black" d="M3510,-529.83C3510,-535.69 3510,-571.67 3510,-604.11"/>
</g>
<!-- x27y9_15 -->
<g id="node61" class="node">
<title>x27y9_15</title>
<ellipse fill="none" stroke="black" cx="1998" cy="-215.8" rx="0.5" ry="0.5"/>
</g>
<!-- x18y9_15&#45;&gt;x27y9_15 -->
<g id="edge57" class="edge">
<title>x18y9_15&#45;&gt;x27y9_15</title>
<path fill="none" stroke="black" d="M1350.73,-215.8C1374.59,-215.8 1973.89,-215.8 1997.3,-215.8"/>
</g>
<!-- x27y9_15&#45;&gt;x27y7_20 -->
<g id="edge61" class="edge">
<title>x27y9_15&#45;&gt;x27y7_20</title>
<path fill="none" stroke="black" d="M1998,-214.9C1998,-208.27 1998,-166.07 1998,-129.81"/>
</g>
<!-- x33y9_15 -->
<g id="node62" class="node">
<title>x33y9_15</title>
<ellipse fill="none" stroke="black" cx="2430" cy="-215.8" rx="0.5" ry="0.5"/>
</g>
<!-- x27y9_15&#45;&gt;x33y9_15 -->
<g id="edge58" class="edge">
<title>x27y9_15&#45;&gt;x33y9_15</title>
<path fill="none" stroke="black" d="M1998.7,-215.8C2017.56,-215.8 2410.9,-215.8 2429.33,-215.8"/>
</g>
<!-- x33y9_15&#45;&gt;x33y6_90 -->
<g id="edge62" class="edge">
<title>x33y9_15&#45;&gt;x33y6_90</title>
<path fill="none" stroke="black" d="M2430,-215.08C2430,-208.12 2430,-152.22 2430,-108.16"/>
</g>
<!-- x42y9_15 -->
<g id="node63" class="node">
<title>x42y9_15</title>
<ellipse fill="none" stroke="black" cx="3078" cy="-215.8" rx="0.5" ry="0.5"/>
</g>
<!-- x33y9_15&#45;&gt;x42y9_15 -->
<g id="edge59" class="edge">
<title>x33y9_15&#45;&gt;x42y9_15</title>
<path fill="none" stroke="black" d="M2430.73,-215.8C2454.59,-215.8 3053.89,-215.8 3077.3,-215.8"/>
</g>
<!-- x42y9_15&#45;&gt;x42y10_95 -->
<g id="edge60" class="edge">
<title>x42y9_15&#45;&gt;x42y10_95</title>
<path fill="none" stroke="black" d="M3078,-216.63C3078,-222.49 3078,-258.47 3078,-290.91"/>
</g>
</g>
</svg>
