<?xml version="1.0" encoding="UTF-8" standalone="no"?>
<!DOCTYPE svg PUBLIC "-//W3C//DTD SVG 1.1//EN"
 "http://www.w3.org/Graphics/SVG/1.1/DTD/svg11.dtd">
<!-- Generated by graphviz version 5.0.0 (20220707.1540)
 -->
<!-- Title: P Pages: 1 -->
<svg width="4815pt" height="1444pt"
 viewBox="0.00 0.00 4815.00 1444.00" xmlns="http://www.w3.org/2000/svg" xmlns:xlink="http://www.w3.org/1999/xlink">
<g id="graph0" class="graph" transform="scale(1 1) rotate(0) translate(4 1440)">
<title>P</title>
<polygon fill="white" stroke="transparent" points="-4,4 -4,-1440 4811,-1440 4811,4 -4,4"/>
<!-- x40_66y_18_45 -->
<g id="node1" class="node">
<title>x40_66y_18_45</title>
<polygon fill="none" stroke="blue" points="3612,-442.6 3504,-442.6 3504,-334.6 3612,-334.6 3612,-442.6"/>
<text text-anchor="middle" x="3558" y="-391.8" font-family="Times,serif" font-size="11.00">Randy Andert</text>
<text text-anchor="middle" x="3558" y="-379.8" font-family="Times,serif" font-size="11.00">1973</text>
</g>
<!-- x40_66y_20_92 -->
<g id="node38" class="node">
<title>x40_66y_20_92</title>
<ellipse fill="none" stroke="black" cx="3558" cy="-210.4" rx="0.5" ry="0.5"/>
</g>
<!-- x40_66y_18_45&#45;&gt;x40_66y_20_92 -->
<g id="edge3" class="edge">
<title>x40_66y_18_45&#45;&gt;x40_66y_20_92</title>
<path fill="none" stroke="black" d="M3558,-334.17C3558,-285.04 3558,-219.25 3558,-211.21"/>
</g>
<!-- x16_0y_5_84 -->
<g id="node2" class="node">
<title>x16_0y_5_84</title>
<polygon fill="none" stroke="blue" points="1836,-1349.8 1728,-1349.8 1728,-1241.8 1836,-1241.8 1836,-1349.8"/>
<text text-anchor="middle" x="1782" y="-1299" font-family="Times,serif" font-size="11.00">Wilhelm Polz</text>
<text text-anchor="middle" x="1782" y="-1287" font-family="Times,serif" font-size="11.00">Unknown</text>
</g>
<!-- x16_0y_7_72 -->
<g id="node51" class="node">
<title>x16_0y_7_72</title>
<ellipse fill="none" stroke="black" cx="1782" cy="-1160.8" rx="0.5" ry="0.5"/>
</g>
<!-- x16_0y_5_84&#45;&gt;x16_0y_7_72 -->
<g id="edge26" class="edge">
<title>x16_0y_5_84&#45;&gt;x16_0y_7_72</title>
<path fill="none" stroke="black" d="M1782,-1241.67C1782,-1207.04 1782,-1167.53 1782,-1161.57"/>
</g>
<!-- x15_50y_13_34 -->
<g id="node3" class="node">
<title>x15_50y_13_34</title>
<ellipse fill="none" stroke="pink" cx="1746" cy="-755.8" rx="54" ry="54"/>
<text text-anchor="middle" x="1746" y="-759" font-family="Times,serif" font-size="11.00">Inge Wendt</text>
<text text-anchor="middle" x="1746" y="-747" font-family="Times,serif" font-size="11.00">Unknown</text>
</g>
<!-- x43_33y_19_4 -->
<g id="node4" class="node">
<title>x43_33y_19_4</title>
<polygon fill="none" stroke="blue" points="3804,-399.4 3696,-399.4 3696,-291.4 3804,-291.4 3804,-399.4"/>
<text text-anchor="middle" x="3750" y="-348.6" font-family="Times,serif" font-size="11.00">Mike Kosin</text>
<text text-anchor="middle" x="3750" y="-336.6" font-family="Times,serif" font-size="11.00">1977</text>
</g>
<!-- x50_0y_12_0 -->
<g id="node5" class="node">
<title>x50_0y_12_0</title>
<polygon fill="none" stroke="blue" points="4284,-907 4176,-907 4176,-799 4284,-799 4284,-907"/>
<text text-anchor="middle" x="4230" y="-856.2" font-family="Times,serif" font-size="11.00">Paul Dabudziak</text>
<text text-anchor="middle" x="4230" y="-844.2" font-family="Times,serif" font-size="11.00">1930</text>
</g>
<!-- x50_0y_13_64 -->
<g id="node75" class="node">
<title>x50_0y_13_64</title>
<ellipse fill="none" stroke="black" cx="4230" cy="-734.2" rx="0.5" ry="0.5"/>
</g>
<!-- x50_0y_12_0&#45;&gt;x50_0y_13_64 -->
<g id="edge69" class="edge">
<title>x50_0y_12_0&#45;&gt;x50_0y_13_64</title>
<path fill="none" stroke="black" d="M4230,-798.81C4230,-770.42 4230,-740.42 4230,-735.05"/>
</g>
<!-- x18_0y_4_65 -->
<g id="node6" class="node">
<title>x18_0y_4_65</title>
<ellipse fill="none" stroke="pink" cx="1926" cy="-1382.2" rx="54" ry="54"/>
<text text-anchor="middle" x="1926" y="-1385.4" font-family="Times,serif" font-size="11.00">Marie Wendt</text>
<text text-anchor="middle" x="1926" y="-1373.4" font-family="Times,serif" font-size="11.00">Unknown</text>
</g>
<!-- x14_0y_9_59 -->
<g id="node7" class="node">
<title>x14_0y_9_59</title>
<ellipse fill="none" stroke="pink" cx="1638" cy="-1025.8" rx="54" ry="54"/>
<text text-anchor="middle" x="1638" y="-1029" font-family="Times,serif" font-size="11.00">Marta Polz</text>
<text text-anchor="middle" x="1638" y="-1017" font-family="Times,serif" font-size="11.00">Unknown</text>
</g>
<!-- x48_0y_15_89 -->
<g id="node8" class="node">
<title>x48_0y_15_89</title>
<polygon fill="none" stroke="blue" points="4140,-626.2 4032,-626.2 4032,-518.2 4140,-518.2 4140,-626.2"/>
<text text-anchor="middle" x="4086" y="-575.4" font-family="Times,serif" font-size="11.00">Jürgen Dabudziak</text>
<text text-anchor="middle" x="4086" y="-563.4" font-family="Times,serif" font-size="11.00">Unknown</text>
</g>
<!-- x13_0y_19_4 -->
<g id="node9" class="node">
<title>x13_0y_19_4</title>
<ellipse fill="none" stroke="pink" cx="1566" cy="-345.4" rx="54" ry="54"/>
<text text-anchor="middle" x="1566" y="-348.6" font-family="Times,serif" font-size="11.00">Silvia Andert</text>
<text text-anchor="middle" x="1566" y="-336.6" font-family="Times,serif" font-size="11.00">1977</text>
</g>
<!-- x44_0y_12_14 -->
<g id="node10" class="node">
<title>x44_0y_12_14</title>
<ellipse fill="none" stroke="pink" cx="3798" cy="-842.2" rx="54" ry="54"/>
<text text-anchor="middle" x="3798" y="-845.4" font-family="Times,serif" font-size="11.00">Irene Dabudziak</text>
<text text-anchor="middle" x="3798" y="-833.4" font-family="Times,serif" font-size="11.00">1931</text>
</g>
<!-- x6_50y_14_70 -->
<g id="node11" class="node">
<title>x6_50y_14_70</title>
<ellipse fill="none" stroke="pink" cx="1098" cy="-658.6" rx="54" ry="54"/>
<text text-anchor="middle" x="1098" y="-667.8" font-family="Times,serif" font-size="11.00">Edith Inge</text>
<text text-anchor="middle" x="1098" y="-655.8" font-family="Times,serif" font-size="11.00">Gertrud Andert </text>
<text text-anchor="middle" x="1098" y="-643.8" font-family="Times,serif" font-size="11.00">1948</text>
</g>
<!-- x12_0y_9_59 -->
<g id="node12" class="node">
<title>x12_0y_9_59</title>
<ellipse fill="none" stroke="pink" cx="1494" cy="-1025.8" rx="54" ry="54"/>
<text text-anchor="middle" x="1494" y="-1029" font-family="Times,serif" font-size="11.00">Herta Polz</text>
<text text-anchor="middle" x="1494" y="-1017" font-family="Times,serif" font-size="11.00">Unknown</text>
</g>
<!-- x34_0y_11_85 -->
<g id="node13" class="node">
<title>x34_0y_11_85</title>
<ellipse fill="none" stroke="pink" cx="3078" cy="-863.8" rx="54" ry="54"/>
<text text-anchor="middle" x="3078" y="-867" font-family="Times,serif" font-size="11.00">Erika Ganzler</text>
<text text-anchor="middle" x="3078" y="-855" font-family="Times,serif" font-size="11.00">Unknown</text>
</g>
<!-- x0_0y_5_84 -->
<g id="node14" class="node">
<title>x0_0y_5_84</title>
<ellipse fill="none" stroke="pink" cx="630" cy="-1295.8" rx="54" ry="54"/>
<text text-anchor="middle" x="630" y="-1299" font-family="Times,serif" font-size="11.00">Marie Polz</text>
<text text-anchor="middle" x="630" y="-1287" font-family="Times,serif" font-size="11.00">Unknown</text>
</g>
<!-- x4_0y_9_59 -->
<g id="node15" class="node">
<title>x4_0y_9_59</title>
<polygon fill="none" stroke="blue" points="972,-1079.8 864,-1079.8 864,-971.8 972,-971.8 972,-1079.8"/>
<text text-anchor="middle" x="918" y="-1029" font-family="Times,serif" font-size="11.00">Wilhelm Polz jr.</text>
<text text-anchor="middle" x="918" y="-1017" font-family="Times,serif" font-size="11.00">Unknown</text>
</g>
<!-- x2_0y_9_59 -->
<g id="node16" class="node">
<title>x2_0y_9_59</title>
<ellipse fill="none" stroke="pink" cx="774" cy="-1025.8" rx="54" ry="54"/>
<text text-anchor="middle" x="774" y="-1029" font-family="Times,serif" font-size="11.00">Gertrud Wendt</text>
<text text-anchor="middle" x="774" y="-1017" font-family="Times,serif" font-size="11.00">1914</text>
</g>
<!-- x19_50y_18_30 -->
<g id="node17" class="node">
<title>x19_50y_18_30</title>
<ellipse fill="none" stroke="pink" cx="2034" cy="-399.4" rx="54" ry="54"/>
<text text-anchor="middle" x="2034" y="-402.6" font-family="Times,serif" font-size="11.00">Jeanette Andert</text>
<text text-anchor="middle" x="2034" y="-390.6" font-family="Times,serif" font-size="11.00">1972</text>
</g>
<!-- x8_0y_9_59 -->
<g id="node18" class="node">
<title>x8_0y_9_59</title>
<polygon fill="none" stroke="blue" points="1260,-1079.8 1152,-1079.8 1152,-971.8 1260,-971.8 1260,-1079.8"/>
<text text-anchor="middle" x="1206" y="-1029" font-family="Times,serif" font-size="11.00">Adolf Polz</text>
<text text-anchor="middle" x="1206" y="-1017" font-family="Times,serif" font-size="11.00">Unknown</text>
</g>
<!-- x11_0y_13_34 -->
<g id="node19" class="node">
<title>x11_0y_13_34</title>
<polygon fill="none" stroke="blue" points="1476,-809.8 1368,-809.8 1368,-701.8 1476,-701.8 1476,-809.8"/>
<text text-anchor="middle" x="1422" y="-759" font-family="Times,serif" font-size="11.00">Adolf Wendt jr.</text>
<text text-anchor="middle" x="1422" y="-747" font-family="Times,serif" font-size="11.00">Unknown</text>
</g>
<!-- x20_0y_8_39 -->
<g id="node20" class="node">
<title>x20_0y_8_39</title>
<polygon fill="none" stroke="blue" points="2124,-1166.2 2016,-1166.2 2016,-1058.2 2124,-1058.2 2124,-1166.2"/>
<text text-anchor="middle" x="2070" y="-1115.4" font-family="Times,serif" font-size="11.00">Adolf Wendt</text>
<text text-anchor="middle" x="2070" y="-1103.4" font-family="Times,serif" font-size="11.00">1906</text>
</g>
<!-- x20_0y_11_47 -->
<g id="node46" class="node">
<title>x20_0y_11_47</title>
<ellipse fill="none" stroke="black" cx="2070" cy="-890.8" rx="0.5" ry="0.5"/>
</g>
<!-- x20_0y_8_39&#45;&gt;x20_0y_11_47 -->
<g id="edge17" class="edge">
<title>x20_0y_8_39&#45;&gt;x20_0y_11_47</title>
<path fill="none" stroke="black" d="M2070,-1058.04C2070,-995.57 2070,-900.25 2070,-891.46"/>
</g>
<!-- x32_0y_8_39 -->
<g id="node21" class="node">
<title>x32_0y_8_39</title>
<polygon fill="none" stroke="blue" points="2988,-1166.2 2880,-1166.2 2880,-1058.2 2988,-1058.2 2988,-1166.2"/>
<text text-anchor="middle" x="2934" y="-1115.4" font-family="Times,serif" font-size="11.00">Willi Andert</text>
<text text-anchor="middle" x="2934" y="-1103.4" font-family="Times,serif" font-size="11.00">1906</text>
</g>
<!-- x32_0y_10_12 -->
<g id="node63" class="node">
<title>x32_0y_10_12</title>
<ellipse fill="none" stroke="black" cx="2934" cy="-988" rx="0.5" ry="0.5"/>
</g>
<!-- x32_0y_8_39&#45;&gt;x32_0y_10_12 -->
<g id="edge48" class="edge">
<title>x32_0y_8_39&#45;&gt;x32_0y_10_12</title>
<path fill="none" stroke="black" d="M2934,-1058.09C2934,-1027.23 2934,-993.7 2934,-988.65"/>
</g>
<!-- x42_0y_11_85 -->
<g id="node22" class="node">
<title>x42_0y_11_85</title>
<polygon fill="none" stroke="blue" points="3708,-917.8 3600,-917.8 3600,-809.8 3708,-809.8 3708,-917.8"/>
<text text-anchor="middle" x="3654" y="-867" font-family="Times,serif" font-size="11.00">Siegfried Ganzler</text>
<text text-anchor="middle" x="3654" y="-855" font-family="Times,serif" font-size="11.00">Unknown</text>
</g>
<!-- x42_0y_13_72 -->
<g id="node72" class="node">
<title>x42_0y_13_72</title>
<ellipse fill="none" stroke="black" cx="3654" cy="-728.8" rx="0.5" ry="0.5"/>
</g>
<!-- x42_0y_11_85&#45;&gt;x42_0y_13_72 -->
<g id="edge64" class="edge">
<title>x42_0y_11_85&#45;&gt;x42_0y_13_72</title>
<path fill="none" stroke="black" d="M3654,-809.67C3654,-775.04 3654,-735.53 3654,-729.57"/>
</g>
<!-- x6_0y_9_59 -->
<g id="node23" class="node">
<title>x6_0y_9_59</title>
<polygon fill="none" stroke="blue" points="1116,-1079.8 1008,-1079.8 1008,-971.8 1116,-971.8 1116,-1079.8"/>
<text text-anchor="middle" x="1062" y="-1029" font-family="Times,serif" font-size="11.00">Albert Polz</text>
<text text-anchor="middle" x="1062" y="-1017" font-family="Times,serif" font-size="11.00">Unknown</text>
</g>
<!-- x30_0y_12_75 -->
<g id="node24" class="node">
<title>x30_0y_12_75</title>
<polygon fill="none" stroke="blue" points="2844,-853 2736,-853 2736,-745 2844,-745 2844,-853"/>
<text text-anchor="middle" x="2790" y="-802.2" font-family="Times,serif" font-size="11.00">Siegfried Andert</text>
<text text-anchor="middle" x="2790" y="-790.2" font-family="Times,serif" font-size="11.00">1935</text>
</g>
<!-- x46_0y_15_14 -->
<g id="node25" class="node">
<title>x46_0y_15_14</title>
<polygon fill="none" stroke="blue" points="3996,-680.2 3888,-680.2 3888,-572.2 3996,-572.2 3996,-680.2"/>
<text text-anchor="middle" x="3942" y="-629.4" font-family="Times,serif" font-size="11.00">Rainer Dabudziak</text>
<text text-anchor="middle" x="3942" y="-617.4" font-family="Times,serif" font-size="11.00">1951</text>
</g>
<!-- x46_0y_17_2 -->
<g id="node68" class="node">
<title>x46_0y_17_2</title>
<ellipse fill="none" stroke="black" cx="3942" cy="-491.2" rx="0.5" ry="0.5"/>
</g>
<!-- x46_0y_15_14&#45;&gt;x46_0y_17_2 -->
<g id="edge57" class="edge">
<title>x46_0y_15_14&#45;&gt;x46_0y_17_2</title>
<path fill="none" stroke="black" d="M3942,-572.07C3942,-537.44 3942,-497.93 3942,-491.97"/>
</g>
<!-- x10_0y_9_59 -->
<g id="node26" class="node">
<title>x10_0y_9_59</title>
<ellipse fill="none" stroke="pink" cx="1350" cy="-1025.8" rx="54" ry="54"/>
<text text-anchor="middle" x="1350" y="-1029" font-family="Times,serif" font-size="11.00">Marie Polz jr.</text>
<text text-anchor="middle" x="1350" y="-1017" font-family="Times,serif" font-size="11.00">Unknown</text>
</g>
<!-- x31_44y_23_9 -->
<g id="node27" class="node">
<title>x31_44y_23_9</title>
<polygon fill="none" stroke="blue" points="2948,-107.8 2840,-107.8 2840,0.2 2948,0.2 2948,-107.8"/>
<text text-anchor="middle" x="2894" y="-57" font-family="Times,serif" font-size="11.00">Ben Rudi Andert</text>
<text text-anchor="middle" x="2894" y="-45" font-family="Times,serif" font-size="11.00">2004</text>
</g>
<!-- x28_0y_11_85 -->
<g id="node28" class="node">
<title>x28_0y_11_85</title>
<ellipse fill="none" stroke="pink" cx="2646" cy="-863.8" rx="54" ry="54"/>
<text text-anchor="middle" x="2646" y="-867" font-family="Times,serif" font-size="11.00">Edith Jungnickel</text>
<text text-anchor="middle" x="2646" y="-855" font-family="Times,serif" font-size="11.00">1929</text>
</g>
<!-- x26_0y_13_50 -->
<g id="node29" class="node">
<title>x26_0y_13_50</title>
<polygon fill="none" stroke="blue" points="2556,-799 2448,-799 2448,-691 2556,-691 2556,-799"/>
<text text-anchor="middle" x="2502" y="-748.2" font-family="Times,serif" font-size="11.00">Rudi Horst Andert</text>
<text text-anchor="middle" x="2502" y="-736.2" font-family="Times,serif" font-size="11.00">1940</text>
</g>
<!-- x26_0y_16_50 -->
<g id="node42" class="node">
<title>x26_0y_16_50</title>
<ellipse fill="none" stroke="black" cx="2502" cy="-529" rx="0.5" ry="0.5"/>
</g>
<!-- x26_0y_13_50&#45;&gt;x26_0y_16_50 -->
<g id="edge10" class="edge">
<title>x26_0y_13_50&#45;&gt;x26_0y_16_50</title>
<path fill="none" stroke="black" d="M2502,-690.77C2502,-629.79 2502,-538.09 2502,-529.63"/>
</g>
<!-- x38_0y_15_59 -->
<g id="node30" class="node">
<title>x38_0y_15_59</title>
<ellipse fill="none" stroke="pink" cx="3366" cy="-593.8" rx="54" ry="54"/>
<text text-anchor="middle" x="3366" y="-597" font-family="Times,serif" font-size="11.00">Gabi Kosin</text>
<text text-anchor="middle" x="3366" y="-585" font-family="Times,serif" font-size="11.00">1954</text>
</g>
<!-- x22_22y_22_79 -->
<g id="node31" class="node">
<title>x22_22y_22_79</title>
<polygon fill="none" stroke="blue" points="2284,-129.4 2176,-129.4 2176,-21.4 2284,-21.4 2284,-129.4"/>
<text text-anchor="middle" x="2230" y="-78.6" font-family="Times,serif" font-size="11.00">Paul Randy Andert</text>
<text text-anchor="middle" x="2230" y="-66.6" font-family="Times,serif" font-size="11.00">2002</text>
</g>
<!-- x24_0y_8_25 -->
<g id="node32" class="node">
<title>x24_0y_8_25</title>
<ellipse fill="none" stroke="pink" cx="2358" cy="-1123" rx="54" ry="54"/>
<text text-anchor="middle" x="2358" y="-1126.2" font-family="Times,serif" font-size="11.00">Gertrud Andert</text>
<text text-anchor="middle" x="2358" y="-1114.2" font-family="Times,serif" font-size="11.00">1905</text>
</g>
<!-- x22_0y_4_65 -->
<g id="node33" class="node">
<title>x22_0y_4_65</title>
<polygon fill="none" stroke="grey" points="2268,-1436.2 2160,-1436.2 2160,-1328.2 2268,-1328.2 2268,-1436.2"/>
<text text-anchor="middle" x="2214" y="-1385.4" font-family="Times,serif" font-size="11.00">Unknown &#160;</text>
<text text-anchor="middle" x="2214" y="-1373.4" font-family="Times,serif" font-size="11.00">Unknown</text>
</g>
<!-- x22_0y_6_52 -->
<g id="node60" class="node">
<title>x22_0y_6_52</title>
<ellipse fill="none" stroke="black" cx="2214" cy="-1247.2" rx="0.5" ry="0.5"/>
</g>
<!-- x22_0y_4_65&#45;&gt;x22_0y_6_52 -->
<g id="edge43" class="edge">
<title>x22_0y_4_65&#45;&gt;x22_0y_6_52</title>
<path fill="none" stroke="black" d="M2214,-1328.07C2214,-1293.44 2214,-1253.93 2214,-1247.97"/>
</g>
<!-- y1900 -->
<g id="node34" class="node">
<title>y1900</title>
<text text-anchor="middle" x="54" y="-1171" font-family="Times,serif" font-size="25.00">1900</text>
</g>
<!-- y0 -->
<g id="node36" class="node">
<title>y0</title>
<ellipse fill="none" stroke="black" cx="4806" cy="-1177" rx="0.5" ry="0.5"/>
</g>
<!-- y1900&#45;&gt;y0 -->
<g id="edge1" class="edge">
<title>y1900&#45;&gt;y0</title>
<path fill="none" stroke="grey" stroke-dasharray="5,2" d="M108.19,-1177C629.68,-1177 4741.03,-1177 4805.24,-1177"/>
</g>
<!-- y2000 -->
<g id="node35" class="node">
<title>y2000</title>
<text text-anchor="middle" x="54" y="-91" font-family="Times,serif" font-size="25.00">2000</text>
</g>
<!-- y1 -->
<g id="node37" class="node">
<title>y1</title>
<ellipse fill="none" stroke="black" cx="4806" cy="-97" rx="0.5" ry="0.5"/>
</g>
<!-- y2000&#45;&gt;y1 -->
<g id="edge2" class="edge">
<title>y2000&#45;&gt;y1</title>
<path fill="none" stroke="grey" stroke-dasharray="5,2" d="M108.19,-97C629.68,-97 4741.03,-97 4805.24,-97"/>
</g>
<!-- x22_22y_20_92 -->
<g id="node40" class="node">
<title>x22_22y_20_92</title>
<ellipse fill="none" stroke="black" cx="2230" cy="-210.4" rx="0.5" ry="0.5"/>
</g>
<!-- x40_66y_20_92&#45;&gt;x22_22y_20_92 -->
<g id="edge4" class="edge">
<title>x40_66y_20_92&#45;&gt;x22_22y_20_92</title>
<path fill="none" stroke="black" d="M3557.46,-210.4C3527.41,-210.4 2260.23,-210.4 2230.53,-210.4"/>
</g>
<!-- x13_0y_20_92 -->
<g id="node39" class="node">
<title>x13_0y_20_92</title>
<ellipse fill="none" stroke="black" cx="1566" cy="-210.4" rx="0.5" ry="0.5"/>
</g>
<!-- x13_0y_20_92&#45;&gt;x13_0y_19_4 -->
<g id="edge7" class="edge">
<title>x13_0y_20_92&#45;&gt;x13_0y_19_4</title>
<path fill="none" stroke="black" d="M1566,-211.26C1566,-217.53 1566,-256.8 1566,-291.24"/>
</g>
<!-- x22_22y_20_92&#45;&gt;x22_22y_22_79 -->
<g id="edge8" class="edge">
<title>x22_22y_20_92&#45;&gt;x22_22y_22_79</title>
<path fill="none" stroke="black" d="M2230,-209.54C2230,-203.27 2230,-164 2230,-129.56"/>
</g>
<!-- x31_44y_20_92 -->
<g id="node41" class="node">
<title>x31_44y_20_92</title>
<ellipse fill="none" stroke="black" cx="2894" cy="-210.4" rx="0.5" ry="0.5"/>
</g>
<!-- x22_22y_20_92&#45;&gt;x31_44y_20_92 -->
<g id="edge5" class="edge">
<title>x22_22y_20_92&#45;&gt;x31_44y_20_92</title>
<path fill="none" stroke="black" d="M2230.75,-210.4C2255.2,-210.4 2869.3,-210.4 2893.28,-210.4"/>
</g>
<!-- x31_44y_20_92&#45;&gt;x31_44y_23_9 -->
<g id="edge9" class="edge">
<title>x31_44y_20_92&#45;&gt;x31_44y_23_9</title>
<path fill="none" stroke="black" d="M2894,-209.7C2894,-203.06 2894,-150.35 2894,-108.03"/>
</g>
<!-- x31_44y_20_92&#45;&gt;x13_0y_20_92 -->
<g id="edge6" class="edge">
<title>x31_44y_20_92&#45;&gt;x13_0y_20_92</title>
<path fill="none" stroke="black" d="M2893.46,-210.4C2863.41,-210.4 1596.23,-210.4 1566.53,-210.4"/>
</g>
<!-- x13_0y_16_50 -->
<g id="node44" class="node">
<title>x13_0y_16_50</title>
<ellipse fill="none" stroke="black" cx="1566" cy="-529" rx="0.5" ry="0.5"/>
</g>
<!-- x26_0y_16_50&#45;&gt;x13_0y_16_50 -->
<g id="edge11" class="edge">
<title>x26_0y_16_50&#45;&gt;x13_0y_16_50</title>
<path fill="none" stroke="black" d="M2501.32,-529C2473.42,-529 1594.13,-529 1566.66,-529"/>
</g>
<!-- x6_50y_16_50 -->
<g id="node43" class="node">
<title>x6_50y_16_50</title>
<ellipse fill="none" stroke="black" cx="1098" cy="-529" rx="0.5" ry="0.5"/>
</g>
<!-- x6_50y_16_50&#45;&gt;x6_50y_14_70 -->
<g id="edge14" class="edge">
<title>x6_50y_16_50&#45;&gt;x6_50y_14_70</title>
<path fill="none" stroke="black" d="M1098,-529.83C1098,-535.71 1098,-571.93 1098,-604.47"/>
</g>
<!-- x13_0y_16_50&#45;&gt;x13_0y_19_4 -->
<g id="edge15" class="edge">
<title>x13_0y_16_50&#45;&gt;x13_0y_19_4</title>
<path fill="none" stroke="black" d="M1566,-528.47C1566,-521.7 1566,-451.04 1566,-399.52"/>
</g>
<!-- x19_50y_16_50 -->
<g id="node45" class="node">
<title>x19_50y_16_50</title>
<ellipse fill="none" stroke="black" cx="2034" cy="-529" rx="0.5" ry="0.5"/>
</g>
<!-- x13_0y_16_50&#45;&gt;x19_50y_16_50 -->
<g id="edge12" class="edge">
<title>x13_0y_16_50&#45;&gt;x19_50y_16_50</title>
<path fill="none" stroke="black" d="M1566.76,-529C1587.19,-529 2013.31,-529 2033.28,-529"/>
</g>
<!-- x19_50y_16_50&#45;&gt;x19_50y_18_30 -->
<g id="edge16" class="edge">
<title>x19_50y_16_50&#45;&gt;x19_50y_18_30</title>
<path fill="none" stroke="black" d="M2034,-528.17C2034,-522.29 2034,-486.07 2034,-453.53"/>
</g>
<!-- x19_50y_16_50&#45;&gt;x6_50y_16_50 -->
<g id="edge13" class="edge">
<title>x19_50y_16_50&#45;&gt;x6_50y_16_50</title>
<path fill="none" stroke="black" d="M2033.32,-529C2005.42,-529 1126.13,-529 1098.66,-529"/>
</g>
<!-- x6_50y_11_47 -->
<g id="node48" class="node">
<title>x6_50y_11_47</title>
<ellipse fill="none" stroke="black" cx="1098" cy="-890.8" rx="0.5" ry="0.5"/>
</g>
<!-- x20_0y_11_47&#45;&gt;x6_50y_11_47 -->
<g id="edge18" class="edge">
<title>x20_0y_11_47&#45;&gt;x6_50y_11_47</title>
<path fill="none" stroke="black" d="M2069.3,-890.8C2040.32,-890.8 1127.21,-890.8 1098.68,-890.8"/>
</g>
<!-- x2_0y_11_47 -->
<g id="node47" class="node">
<title>x2_0y_11_47</title>
<ellipse fill="none" stroke="black" cx="774" cy="-890.8" rx="0.5" ry="0.5"/>
</g>
<!-- x2_0y_11_47&#45;&gt;x2_0y_9_59 -->
<g id="edge22" class="edge">
<title>x2_0y_11_47&#45;&gt;x2_0y_9_59</title>
<path fill="none" stroke="black" d="M774,-891.66C774,-897.93 774,-937.2 774,-971.64"/>
</g>
<!-- x6_50y_11_47&#45;&gt;x6_50y_14_70 -->
<g id="edge23" class="edge">
<title>x6_50y_11_47&#45;&gt;x6_50y_14_70</title>
<path fill="none" stroke="black" d="M1098,-890.13C1098,-880.92 1098,-778.13 1098,-712.65"/>
</g>
<!-- x11_0y_11_47 -->
<g id="node49" class="node">
<title>x11_0y_11_47</title>
<ellipse fill="none" stroke="black" cx="1422" cy="-890.8" rx="0.5" ry="0.5"/>
</g>
<!-- x6_50y_11_47&#45;&gt;x11_0y_11_47 -->
<g id="edge19" class="edge">
<title>x6_50y_11_47&#45;&gt;x11_0y_11_47</title>
<path fill="none" stroke="black" d="M1098.53,-890.8C1112.67,-890.8 1407.68,-890.8 1421.5,-890.8"/>
</g>
<!-- x11_0y_11_47&#45;&gt;x11_0y_13_34 -->
<g id="edge24" class="edge">
<title>x11_0y_11_47&#45;&gt;x11_0y_13_34</title>
<path fill="none" stroke="black" d="M1422,-889.94C1422,-883.67 1422,-844.4 1422,-809.96"/>
</g>
<!-- x15_50y_11_47 -->
<g id="node50" class="node">
<title>x15_50y_11_47</title>
<ellipse fill="none" stroke="black" cx="1746" cy="-890.8" rx="0.5" ry="0.5"/>
</g>
<!-- x11_0y_11_47&#45;&gt;x15_50y_11_47 -->
<g id="edge20" class="edge">
<title>x11_0y_11_47&#45;&gt;x15_50y_11_47</title>
<path fill="none" stroke="black" d="M1422.53,-890.8C1436.67,-890.8 1731.68,-890.8 1745.5,-890.8"/>
</g>
<!-- x15_50y_11_47&#45;&gt;x15_50y_13_34 -->
<g id="edge25" class="edge">
<title>x15_50y_11_47&#45;&gt;x15_50y_13_34</title>
<path fill="none" stroke="black" d="M1746,-889.94C1746,-883.67 1746,-844.4 1746,-809.96"/>
</g>
<!-- x15_50y_11_47&#45;&gt;x2_0y_11_47 -->
<g id="edge21" class="edge">
<title>x15_50y_11_47&#45;&gt;x2_0y_11_47</title>
<path fill="none" stroke="black" d="M1745.3,-890.8C1716.32,-890.8 803.21,-890.8 774.68,-890.8"/>
</g>
<!-- x2_0y_7_72 -->
<g id="node53" class="node">
<title>x2_0y_7_72</title>
<ellipse fill="none" stroke="black" cx="774" cy="-1160.8" rx="0.5" ry="0.5"/>
</g>
<!-- x16_0y_7_72&#45;&gt;x2_0y_7_72 -->
<g id="edge27" class="edge">
<title>x16_0y_7_72&#45;&gt;x2_0y_7_72</title>
<path fill="none" stroke="black" d="M1781.27,-1160.8C1751.22,-1160.8 804.29,-1160.8 774.71,-1160.8"/>
</g>
<!-- x0_0y_7_72 -->
<g id="node52" class="node">
<title>x0_0y_7_72</title>
<ellipse fill="none" stroke="black" cx="630" cy="-1160.8" rx="0.5" ry="0.5"/>
</g>
<!-- x0_0y_7_72&#45;&gt;x0_0y_5_84 -->
<g id="edge35" class="edge">
<title>x0_0y_7_72&#45;&gt;x0_0y_5_84</title>
<path fill="none" stroke="black" d="M630,-1161.66C630,-1167.93 630,-1207.2 630,-1241.64"/>
</g>
<!-- x2_0y_7_72&#45;&gt;x2_0y_9_59 -->
<g id="edge36" class="edge">
<title>x2_0y_7_72&#45;&gt;x2_0y_9_59</title>
<path fill="none" stroke="black" d="M774,-1159.94C774,-1153.67 774,-1114.4 774,-1079.96"/>
</g>
<!-- x4_0y_7_72 -->
<g id="node54" class="node">
<title>x4_0y_7_72</title>
<ellipse fill="none" stroke="black" cx="918" cy="-1160.8" rx="0.5" ry="0.5"/>
</g>
<!-- x2_0y_7_72&#45;&gt;x4_0y_7_72 -->
<g id="edge28" class="edge">
<title>x2_0y_7_72&#45;&gt;x4_0y_7_72</title>
<path fill="none" stroke="black" d="M774.64,-1160.8C784.54,-1160.8 905.8,-1160.8 917.15,-1160.8"/>
</g>
<!-- x4_0y_7_72&#45;&gt;x4_0y_9_59 -->
<g id="edge37" class="edge">
<title>x4_0y_7_72&#45;&gt;x4_0y_9_59</title>
<path fill="none" stroke="black" d="M918,-1159.94C918,-1153.67 918,-1114.4 918,-1079.96"/>
</g>
<!-- x6_0y_7_72 -->
<g id="node55" class="node">
<title>x6_0y_7_72</title>
<ellipse fill="none" stroke="black" cx="1062" cy="-1160.8" rx="0.5" ry="0.5"/>
</g>
<!-- x4_0y_7_72&#45;&gt;x6_0y_7_72 -->
<g id="edge29" class="edge">
<title>x4_0y_7_72&#45;&gt;x6_0y_7_72</title>
<path fill="none" stroke="black" d="M918.64,-1160.8C928.54,-1160.8 1049.8,-1160.8 1061.15,-1160.8"/>
</g>
<!-- x6_0y_7_72&#45;&gt;x6_0y_9_59 -->
<g id="edge38" class="edge">
<title>x6_0y_7_72&#45;&gt;x6_0y_9_59</title>
<path fill="none" stroke="black" d="M1062,-1159.94C1062,-1153.67 1062,-1114.4 1062,-1079.96"/>
</g>
<!-- x8_0y_7_72 -->
<g id="node56" class="node">
<title>x8_0y_7_72</title>
<ellipse fill="none" stroke="black" cx="1206" cy="-1160.8" rx="0.5" ry="0.5"/>
</g>
<!-- x6_0y_7_72&#45;&gt;x8_0y_7_72 -->
<g id="edge30" class="edge">
<title>x6_0y_7_72&#45;&gt;x8_0y_7_72</title>
<path fill="none" stroke="black" d="M1062.64,-1160.8C1072.54,-1160.8 1193.8,-1160.8 1205.15,-1160.8"/>
</g>
<!-- x8_0y_7_72&#45;&gt;x8_0y_9_59 -->
<g id="edge39" class="edge">
<title>x8_0y_7_72&#45;&gt;x8_0y_9_59</title>
<path fill="none" stroke="black" d="M1206,-1159.94C1206,-1153.67 1206,-1114.4 1206,-1079.96"/>
</g>
<!-- x10_0y_7_72 -->
<g id="node57" class="node">
<title>x10_0y_7_72</title>
<ellipse fill="none" stroke="black" cx="1350" cy="-1160.8" rx="0.5" ry="0.5"/>
</g>
<!-- x8_0y_7_72&#45;&gt;x10_0y_7_72 -->
<g id="edge31" class="edge">
<title>x8_0y_7_72&#45;&gt;x10_0y_7_72</title>
<path fill="none" stroke="black" d="M1206.64,-1160.8C1216.54,-1160.8 1337.8,-1160.8 1349.15,-1160.8"/>
</g>
<!-- x10_0y_7_72&#45;&gt;x10_0y_9_59 -->
<g id="edge40" class="edge">
<title>x10_0y_7_72&#45;&gt;x10_0y_9_59</title>
<path fill="none" stroke="black" d="M1350,-1159.94C1350,-1153.67 1350,-1114.4 1350,-1079.96"/>
</g>
<!-- x12_0y_7_72 -->
<g id="node58" class="node">
<title>x12_0y_7_72</title>
<ellipse fill="none" stroke="black" cx="1494" cy="-1160.8" rx="0.5" ry="0.5"/>
</g>
<!-- x10_0y_7_72&#45;&gt;x12_0y_7_72 -->
<g id="edge32" class="edge">
<title>x10_0y_7_72&#45;&gt;x12_0y_7_72</title>
<path fill="none" stroke="black" d="M1350.64,-1160.8C1360.54,-1160.8 1481.8,-1160.8 1493.15,-1160.8"/>
</g>
<!-- x12_0y_7_72&#45;&gt;x12_0y_9_59 -->
<g id="edge41" class="edge">
<title>x12_0y_7_72&#45;&gt;x12_0y_9_59</title>
<path fill="none" stroke="black" d="M1494,-1159.94C1494,-1153.67 1494,-1114.4 1494,-1079.96"/>
</g>
<!-- x14_0y_7_72 -->
<g id="node59" class="node">
<title>x14_0y_7_72</title>
<ellipse fill="none" stroke="black" cx="1638" cy="-1160.8" rx="0.5" ry="0.5"/>
</g>
<!-- x12_0y_7_72&#45;&gt;x14_0y_7_72 -->
<g id="edge33" class="edge">
<title>x12_0y_7_72&#45;&gt;x14_0y_7_72</title>
<path fill="none" stroke="black" d="M1494.64,-1160.8C1504.54,-1160.8 1625.8,-1160.8 1637.15,-1160.8"/>
</g>
<!-- x14_0y_7_72&#45;&gt;x14_0y_9_59 -->
<g id="edge42" class="edge">
<title>x14_0y_7_72&#45;&gt;x14_0y_9_59</title>
<path fill="none" stroke="black" d="M1638,-1159.94C1638,-1153.67 1638,-1114.4 1638,-1079.96"/>
</g>
<!-- x14_0y_7_72&#45;&gt;x0_0y_7_72 -->
<g id="edge34" class="edge">
<title>x14_0y_7_72&#45;&gt;x0_0y_7_72</title>
<path fill="none" stroke="black" d="M1637.27,-1160.8C1607.22,-1160.8 660.29,-1160.8 630.71,-1160.8"/>
</g>
<!-- x20_0y_6_52 -->
<g id="node62" class="node">
<title>x20_0y_6_52</title>
<ellipse fill="none" stroke="black" cx="2070" cy="-1247.2" rx="0.5" ry="0.5"/>
</g>
<!-- x22_0y_6_52&#45;&gt;x20_0y_6_52 -->
<g id="edge44" class="edge">
<title>x22_0y_6_52&#45;&gt;x20_0y_6_52</title>
<path fill="none" stroke="black" d="M2213.36,-1247.2C2203.46,-1247.2 2082.2,-1247.2 2070.85,-1247.2"/>
</g>
<!-- x18_0y_6_52 -->
<g id="node61" class="node">
<title>x18_0y_6_52</title>
<ellipse fill="none" stroke="black" cx="1926" cy="-1247.2" rx="0.5" ry="0.5"/>
</g>
<!-- x18_0y_6_52&#45;&gt;x18_0y_4_65 -->
<g id="edge46" class="edge">
<title>x18_0y_6_52&#45;&gt;x18_0y_4_65</title>
<path fill="none" stroke="black" d="M1926,-1248.06C1926,-1254.33 1926,-1293.6 1926,-1328.04"/>
</g>
<!-- x20_0y_6_52&#45;&gt;x20_0y_8_39 -->
<g id="edge47" class="edge">
<title>x20_0y_6_52&#45;&gt;x20_0y_8_39</title>
<path fill="none" stroke="black" d="M2070,-1246.34C2070,-1240.07 2070,-1200.8 2070,-1166.36"/>
</g>
<!-- x20_0y_6_52&#45;&gt;x18_0y_6_52 -->
<g id="edge45" class="edge">
<title>x20_0y_6_52&#45;&gt;x18_0y_6_52</title>
<path fill="none" stroke="black" d="M2069.36,-1247.2C2059.46,-1247.2 1938.2,-1247.2 1926.85,-1247.2"/>
</g>
<!-- x26_0y_10_12 -->
<g id="node65" class="node">
<title>x26_0y_10_12</title>
<ellipse fill="none" stroke="black" cx="2502" cy="-988" rx="0.5" ry="0.5"/>
</g>
<!-- x32_0y_10_12&#45;&gt;x26_0y_10_12 -->
<g id="edge49" class="edge">
<title>x32_0y_10_12&#45;&gt;x26_0y_10_12</title>
<path fill="none" stroke="black" d="M2933.3,-988C2914.44,-988 2521.1,-988 2502.67,-988"/>
</g>
<!-- x24_0y_10_12 -->
<g id="node64" class="node">
<title>x24_0y_10_12</title>
<ellipse fill="none" stroke="black" cx="2358" cy="-988" rx="0.5" ry="0.5"/>
</g>
<!-- x24_0y_10_12&#45;&gt;x24_0y_8_25 -->
<g id="edge53" class="edge">
<title>x24_0y_10_12&#45;&gt;x24_0y_8_25</title>
<path fill="none" stroke="black" d="M2358,-988.86C2358,-995.13 2358,-1034.4 2358,-1068.84"/>
</g>
<!-- x26_0y_10_12&#45;&gt;x26_0y_13_50 -->
<g id="edge54" class="edge">
<title>x26_0y_10_12&#45;&gt;x26_0y_13_50</title>
<path fill="none" stroke="black" d="M2502,-987.3C2502,-977.55 2502,-867.6 2502,-799.2"/>
</g>
<!-- x28_0y_10_12 -->
<g id="node66" class="node">
<title>x28_0y_10_12</title>
<ellipse fill="none" stroke="black" cx="2646" cy="-988" rx="0.5" ry="0.5"/>
</g>
<!-- x26_0y_10_12&#45;&gt;x28_0y_10_12 -->
<g id="edge50" class="edge">
<title>x26_0y_10_12&#45;&gt;x28_0y_10_12</title>
<path fill="none" stroke="black" d="M2502.64,-988C2512.54,-988 2633.8,-988 2645.15,-988"/>
</g>
<!-- x28_0y_10_12&#45;&gt;x28_0y_11_85 -->
<g id="edge55" class="edge">
<title>x28_0y_10_12&#45;&gt;x28_0y_11_85</title>
<path fill="none" stroke="black" d="M2646,-987.21C2646,-981.71 2646,-948.62 2646,-918.08"/>
</g>
<!-- x30_0y_10_12 -->
<g id="node67" class="node">
<title>x30_0y_10_12</title>
<ellipse fill="none" stroke="black" cx="2790" cy="-988" rx="0.5" ry="0.5"/>
</g>
<!-- x28_0y_10_12&#45;&gt;x30_0y_10_12 -->
<g id="edge51" class="edge">
<title>x28_0y_10_12&#45;&gt;x30_0y_10_12</title>
<path fill="none" stroke="black" d="M2646.64,-988C2656.54,-988 2777.8,-988 2789.15,-988"/>
</g>
<!-- x30_0y_10_12&#45;&gt;x30_0y_12_75 -->
<g id="edge56" class="edge">
<title>x30_0y_10_12&#45;&gt;x30_0y_12_75</title>
<path fill="none" stroke="black" d="M2790,-987.46C2790,-980.42 2790,-906.38 2790,-853.24"/>
</g>
<!-- x30_0y_10_12&#45;&gt;x24_0y_10_12 -->
<g id="edge52" class="edge">
<title>x30_0y_10_12&#45;&gt;x24_0y_10_12</title>
<path fill="none" stroke="black" d="M2789.3,-988C2770.44,-988 2377.1,-988 2358.67,-988"/>
</g>
<!-- x40_66y_17_2 -->
<g id="node70" class="node">
<title>x40_66y_17_2</title>
<ellipse fill="none" stroke="black" cx="3558" cy="-491.2" rx="0.5" ry="0.5"/>
</g>
<!-- x46_0y_17_2&#45;&gt;x40_66y_17_2 -->
<g id="edge58" class="edge">
<title>x46_0y_17_2&#45;&gt;x40_66y_17_2</title>
<path fill="none" stroke="black" d="M3941.38,-491.2C3924.61,-491.2 3574.97,-491.2 3558.59,-491.2"/>
</g>
<!-- x38_0y_17_2 -->
<g id="node69" class="node">
<title>x38_0y_17_2</title>
<ellipse fill="none" stroke="black" cx="3366" cy="-491.2" rx="0.5" ry="0.5"/>
</g>
<!-- x38_0y_17_2&#45;&gt;x38_0y_15_59 -->
<g id="edge61" class="edge">
<title>x38_0y_17_2&#45;&gt;x38_0y_15_59</title>
<path fill="none" stroke="black" d="M3366,-491.86C3366,-495.83 3366,-517.3 3366,-539.52"/>
</g>
<!-- x40_66y_17_2&#45;&gt;x40_66y_18_45 -->
<g id="edge62" class="edge">
<title>x40_66y_17_2&#45;&gt;x40_66y_18_45</title>
<path fill="none" stroke="black" d="M3558,-490.54C3558,-486.57 3558,-465.1 3558,-442.88"/>
</g>
<!-- x43_33y_17_2 -->
<g id="node71" class="node">
<title>x43_33y_17_2</title>
<ellipse fill="none" stroke="black" cx="3750" cy="-491.2" rx="0.5" ry="0.5"/>
</g>
<!-- x40_66y_17_2&#45;&gt;x43_33y_17_2 -->
<g id="edge59" class="edge">
<title>x40_66y_17_2&#45;&gt;x43_33y_17_2</title>
<path fill="none" stroke="black" d="M3558.55,-491.2C3569.46,-491.2 3738.9,-491.2 3749.48,-491.2"/>
</g>
<!-- x43_33y_17_2&#45;&gt;x43_33y_19_4 -->
<g id="edge63" class="edge">
<title>x43_33y_17_2&#45;&gt;x43_33y_19_4</title>
<path fill="none" stroke="black" d="M3750,-490.55C3750,-484.55 3750,-438.18 3750,-399.44"/>
</g>
<!-- x43_33y_17_2&#45;&gt;x38_0y_17_2 -->
<g id="edge60" class="edge">
<title>x43_33y_17_2&#45;&gt;x38_0y_17_2</title>
<path fill="none" stroke="black" d="M3749.38,-491.2C3732.61,-491.2 3382.97,-491.2 3366.59,-491.2"/>
</g>
<!-- x38_0y_13_72 -->
<g id="node74" class="node">
<title>x38_0y_13_72</title>
<ellipse fill="none" stroke="black" cx="3366" cy="-728.8" rx="0.5" ry="0.5"/>
</g>
<!-- x42_0y_13_72&#45;&gt;x38_0y_13_72 -->
<g id="edge65" class="edge">
<title>x42_0y_13_72&#45;&gt;x38_0y_13_72</title>
<path fill="none" stroke="black" d="M3653.17,-728.8C3636.81,-728.8 3382.65,-728.8 3366.78,-728.8"/>
</g>
<!-- x34_0y_13_72 -->
<g id="node73" class="node">
<title>x34_0y_13_72</title>
<ellipse fill="none" stroke="black" cx="3078" cy="-728.8" rx="0.5" ry="0.5"/>
</g>
<!-- x34_0y_13_72&#45;&gt;x34_0y_11_85 -->
<g id="edge67" class="edge">
<title>x34_0y_13_72&#45;&gt;x34_0y_11_85</title>
<path fill="none" stroke="black" d="M3078,-729.66C3078,-735.93 3078,-775.2 3078,-809.64"/>
</g>
<!-- x38_0y_13_72&#45;&gt;x38_0y_15_59 -->
<g id="edge68" class="edge">
<title>x38_0y_13_72&#45;&gt;x38_0y_15_59</title>
<path fill="none" stroke="black" d="M3366,-727.94C3366,-721.67 3366,-682.4 3366,-647.96"/>
</g>
<!-- x38_0y_13_72&#45;&gt;x34_0y_13_72 -->
<g id="edge66" class="edge">
<title>x38_0y_13_72&#45;&gt;x34_0y_13_72</title>
<path fill="none" stroke="black" d="M3365.17,-728.8C3348.81,-728.8 3094.65,-728.8 3078.78,-728.8"/>
</g>
<!-- x46_0y_13_64 -->
<g id="node77" class="node">
<title>x46_0y_13_64</title>
<ellipse fill="none" stroke="black" cx="3942" cy="-734.2" rx="0.5" ry="0.5"/>
</g>
<!-- x50_0y_13_64&#45;&gt;x46_0y_13_64 -->
<g id="edge70" class="edge">
<title>x50_0y_13_64&#45;&gt;x46_0y_13_64</title>
<path fill="none" stroke="black" d="M4229.17,-734.2C4212.81,-734.2 3958.65,-734.2 3942.78,-734.2"/>
</g>
<!-- x44_0y_13_64 -->
<g id="node76" class="node">
<title>x44_0y_13_64</title>
<ellipse fill="none" stroke="black" cx="3798" cy="-734.2" rx="0.5" ry="0.5"/>
</g>
<!-- x44_0y_13_64&#45;&gt;x44_0y_12_14 -->
<g id="edge73" class="edge">
<title>x44_0y_13_64&#45;&gt;x44_0y_12_14</title>
<path fill="none" stroke="black" d="M3798,-734.89C3798,-739.26 3798,-763.65 3798,-788.08"/>
</g>
<!-- x46_0y_13_64&#45;&gt;x46_0y_15_14 -->
<g id="edge74" class="edge">
<title>x46_0y_13_64&#45;&gt;x46_0y_15_14</title>
<path fill="none" stroke="black" d="M3942,-733.51C3942,-729.14 3942,-704.75 3942,-680.32"/>
</g>
<!-- x48_0y_13_64 -->
<g id="node78" class="node">
<title>x48_0y_13_64</title>
<ellipse fill="none" stroke="black" cx="4086" cy="-734.2" rx="0.5" ry="0.5"/>
</g>
<!-- x46_0y_13_64&#45;&gt;x48_0y_13_64 -->
<g id="edge71" class="edge">
<title>x46_0y_13_64&#45;&gt;x48_0y_13_64</title>
<path fill="none" stroke="black" d="M3942.64,-734.2C3952.54,-734.2 4073.8,-734.2 4085.15,-734.2"/>
</g>
<!-- x48_0y_13_64&#45;&gt;x48_0y_15_89 -->
<g id="edge75" class="edge">
<title>x48_0y_13_64&#45;&gt;x48_0y_15_89</title>
<path fill="none" stroke="black" d="M4086,-733.48C4086,-726.52 4086,-670.62 4086,-626.56"/>
</g>
<!-- x48_0y_13_64&#45;&gt;x44_0y_13_64 -->
<g id="edge72" class="edge">
<title>x48_0y_13_64&#45;&gt;x44_0y_13_64</title>
<path fill="none" stroke="black" d="M4085.17,-734.2C4068.81,-734.2 3814.65,-734.2 3798.78,-734.2"/>
</g>
</g>
</svg>
