<?xml version="1.0" encoding="UTF-8" standalone="no"?>
<!DOCTYPE svg PUBLIC "-//W3C//DTD SVG 1.1//EN"
 "http://www.w3.org/Graphics/SVG/1.1/DTD/svg11.dtd">
<!-- Generated by graphviz version 5.0.0 (20220707.1540)
 -->
<!-- Title: P Pages: 1 -->
<svg width="1700pt" height="1223pt"
 viewBox="0.00 0.00 1700.00 1223.00" xmlns="http://www.w3.org/2000/svg" xmlns:xlink="http://www.w3.org/1999/xlink">
<g id="graph0" class="graph" transform="scale(1 1) rotate(0) translate(4 1219)">
<title>P</title>
<polygon fill="white" stroke="transparent" points="-4,4 -4,-1219 1696,-1219 1696,4 -4,4"/>
<!-- x0_0y_4_87 -->
<g id="node1" class="node">
<title>x0_0y_4_87</title>
<ellipse fill="none" stroke="pink" cx="54" cy="-1089" rx="54" ry="54"/>
<text text-anchor="middle" x="54" y="-1092.2" font-family="Times,serif" font-size="11.00">Marie Polz</text>
<text text-anchor="middle" x="54" y="-1080.2" font-family="Times,serif" font-size="11.00">1889</text>
</g>
<!-- x4_0y_4_87 -->
<g id="node2" class="node">
<title>x4_0y_4_87</title>
<polygon fill="none" stroke="blue" points="396,-1143 288,-1143 288,-1035 396,-1035 396,-1143"/>
<text text-anchor="middle" x="342" y="-1092.2" font-family="Times,serif" font-size="11.00">Wilhelm Polz</text>
<text text-anchor="middle" x="342" y="-1080.2" font-family="Times,serif" font-size="11.00">1889</text>
</g>
<!-- x4_0y_6_43 -->
<g id="node38" class="node">
<title>x4_0y_6_43</title>
<ellipse fill="none" stroke="black" cx="342" cy="-976.5" rx="0.5" ry="0.5"/>
</g>
<!-- x4_0y_4_87&#45;&gt;x4_0y_6_43 -->
<g id="edge24" class="edge">
<title>x4_0y_4_87&#45;&gt;x4_0y_6_43</title>
<path fill="none" stroke="black" d="M342,-1034.73C342,-1008.66 342,-982.02 342,-977.25"/>
</g>
<!-- x6_0y_3_87 -->
<g id="node3" class="node">
<title>x6_0y_3_87</title>
<ellipse fill="none" stroke="pink" cx="486" cy="-1161" rx="54" ry="54"/>
<text text-anchor="middle" x="486" y="-1164.2" font-family="Times,serif" font-size="11.00">Marie Wendt</text>
<text text-anchor="middle" x="486" y="-1152.2" font-family="Times,serif" font-size="11.00">1881</text>
</g>
<!-- x12_0y_7_0 -->
<g id="node4" class="node">
<title>x12_0y_7_0</title>
<polygon fill="none" stroke="blue" points="972,-990 864,-990 864,-882 972,-882 972,-990"/>
<text text-anchor="middle" x="918" y="-939.2" font-family="Times,serif" font-size="11.00">Willi Andert</text>
<text text-anchor="middle" x="918" y="-927.2" font-family="Times,serif" font-size="11.00">1906</text>
</g>
<!-- x12_0y_9_12 -->
<g id="node44" class="node">
<title>x12_0y_9_12</title>
<ellipse fill="none" stroke="black" cx="918" cy="-783" rx="0.5" ry="0.5"/>
</g>
<!-- x12_0y_7_0&#45;&gt;x12_0y_9_12 -->
<g id="edge34" class="edge">
<title>x12_0y_7_0&#45;&gt;x12_0y_9_12</title>
<path fill="none" stroke="black" d="M918,-881.63C918,-840.4 918,-789.79 918,-783.62"/>
</g>
<!-- x2_0y_8_0 -->
<g id="node5" class="node">
<title>x2_0y_8_0</title>
<ellipse fill="none" stroke="pink" cx="198" cy="-864" rx="54" ry="54"/>
<text text-anchor="middle" x="198" y="-867.2" font-family="Times,serif" font-size="11.00">Gertrud Wendt</text>
<text text-anchor="middle" x="198" y="-855.2" font-family="Times,serif" font-size="11.00">1914</text>
</g>
<!-- x20_0y_10_12 -->
<g id="node6" class="node">
<title>x20_0y_10_12</title>
<ellipse fill="none" stroke="pink" cx="1494" cy="-711" rx="54" ry="54"/>
<text text-anchor="middle" x="1494" y="-714.2" font-family="Times,serif" font-size="11.00">Irene Dabudziak</text>
<text text-anchor="middle" x="1494" y="-702.2" font-family="Times,serif" font-size="11.00">1931</text>
</g>
<!-- x10_0y_6_87 -->
<g id="node7" class="node">
<title>x10_0y_6_87</title>
<ellipse fill="none" stroke="pink" cx="774" cy="-945" rx="54" ry="54"/>
<text text-anchor="middle" x="774" y="-948.2" font-family="Times,serif" font-size="11.00">Gertrud Andert</text>
<text text-anchor="middle" x="774" y="-936.2" font-family="Times,serif" font-size="11.00">1905</text>
</g>
<!-- x22_0y_10_0 -->
<g id="node8" class="node">
<title>x22_0y_10_0</title>
<polygon fill="none" stroke="blue" points="1692,-774 1584,-774 1584,-666 1692,-666 1692,-774"/>
<text text-anchor="middle" x="1638" y="-723.2" font-family="Times,serif" font-size="11.00">Paul Dabudziak</text>
<text text-anchor="middle" x="1638" y="-711.2" font-family="Times,serif" font-size="11.00">1930</text>
</g>
<!-- x22_0y_11_37 -->
<g id="node54" class="node">
<title>x22_0y_11_37</title>
<ellipse fill="none" stroke="black" cx="1638" cy="-621" rx="0.5" ry="0.5"/>
</g>
<!-- x22_0y_10_0&#45;&gt;x22_0y_11_37 -->
<g id="edge51" class="edge">
<title>x22_0y_10_0&#45;&gt;x22_0y_11_37</title>
<path fill="none" stroke="black" d="M1638,-665.87C1638,-644.92 1638,-625.09 1638,-621.56"/>
</g>
<!-- x16_0y_13_0 -->
<g id="node9" class="node">
<title>x16_0y_13_0</title>
<ellipse fill="none" stroke="pink" cx="1206" cy="-504" rx="54" ry="54"/>
<text text-anchor="middle" x="1206" y="-507.2" font-family="Times,serif" font-size="11.00">Gabi Kosin</text>
<text text-anchor="middle" x="1206" y="-495.2" font-family="Times,serif" font-size="11.00">1954</text>
</g>
<!-- x5_83y_15_87 -->
<g id="node10" class="node">
<title>x5_83y_15_87</title>
<ellipse fill="none" stroke="pink" cx="474" cy="-297" rx="54" ry="54"/>
<text text-anchor="middle" x="474" y="-300.2" font-family="Times,serif" font-size="11.00">Silvia Andert</text>
<text text-anchor="middle" x="474" y="-288.2" font-family="Times,serif" font-size="11.00">1977</text>
</g>
<!-- x14_0y_9_87 -->
<g id="node11" class="node">
<title>x14_0y_9_87</title>
<ellipse fill="none" stroke="pink" cx="1062" cy="-729" rx="54" ry="54"/>
<text text-anchor="middle" x="1062" y="-732.2" font-family="Times,serif" font-size="11.00">Erika Ganzler</text>
<text text-anchor="middle" x="1062" y="-720.2" font-family="Times,serif" font-size="11.00">1929</text>
</g>
<!-- x19_33y_15_87 -->
<g id="node12" class="node">
<title>x19_33y_15_87</title>
<polygon fill="none" stroke="blue" points="1500,-351 1392,-351 1392,-243 1500,-243 1500,-351"/>
<text text-anchor="middle" x="1446" y="-300.2" font-family="Times,serif" font-size="11.00">Mike Kosin</text>
<text text-anchor="middle" x="1446" y="-288.2" font-family="Times,serif" font-size="11.00">1977</text>
</g>
<!-- x9_77y_19_0 -->
<g id="node13" class="node">
<title>x9_77y_19_0</title>
<polygon fill="none" stroke="blue" points="812,-126 704,-126 704,-18 812,-18 812,-126"/>
<text text-anchor="middle" x="758" y="-75.2" font-family="Times,serif" font-size="11.00">Paul Randy Andert</text>
<text text-anchor="middle" x="758" y="-63.2" font-family="Times,serif" font-size="11.00">2002</text>
</g>
<!-- x13_72y_19_25 -->
<g id="node14" class="node">
<title>x13_72y_19_25</title>
<polygon fill="none" stroke="blue" points="1096,-108 988,-108 988,0 1096,0 1096,-108"/>
<text text-anchor="middle" x="1042" y="-57.2" font-family="Times,serif" font-size="11.00">Ben Rudi Andert</text>
<text text-anchor="middle" x="1042" y="-45.2" font-family="Times,serif" font-size="11.00">2004</text>
</g>
<!-- x18_0y_9_87 -->
<g id="node15" class="node">
<title>x18_0y_9_87</title>
<polygon fill="none" stroke="blue" points="1404,-783 1296,-783 1296,-675 1404,-675 1404,-783"/>
<text text-anchor="middle" x="1350" y="-732.2" font-family="Times,serif" font-size="11.00">Siegfried Ganzler</text>
<text text-anchor="middle" x="1350" y="-720.2" font-family="Times,serif" font-size="11.00">1929</text>
</g>
<!-- x18_0y_11_43 -->
<g id="node51" class="node">
<title>x18_0y_11_43</title>
<ellipse fill="none" stroke="black" cx="1350" cy="-616.5" rx="0.5" ry="0.5"/>
</g>
<!-- x18_0y_9_87&#45;&gt;x18_0y_11_43 -->
<g id="edge46" class="edge">
<title>x18_0y_9_87&#45;&gt;x18_0y_11_43</title>
<path fill="none" stroke="black" d="M1350,-674.73C1350,-648.66 1350,-622.02 1350,-617.25"/>
</g>
<!-- x17_66y_15_37 -->
<g id="node16" class="node">
<title>x17_66y_15_37</title>
<polygon fill="none" stroke="blue" points="1380,-387 1272,-387 1272,-279 1380,-279 1380,-387"/>
<text text-anchor="middle" x="1326" y="-336.2" font-family="Times,serif" font-size="11.00">Randy Andert</text>
<text text-anchor="middle" x="1326" y="-324.2" font-family="Times,serif" font-size="11.00">1973</text>
</g>
<!-- x17_66y_17_43 -->
<g id="node23" class="node">
<title>x17_66y_17_43</title>
<ellipse fill="none" stroke="black" cx="1326" cy="-184.5" rx="0.5" ry="0.5"/>
</g>
<!-- x17_66y_15_37&#45;&gt;x17_66y_17_43 -->
<g id="edge1" class="edge">
<title>x17_66y_15_37&#45;&gt;x17_66y_17_43</title>
<path fill="none" stroke="black" d="M1326,-278.97C1326,-239.16 1326,-190.96 1326,-185.09"/>
</g>
<!-- x11_0y_11_25 -->
<g id="node17" class="node">
<title>x11_0y_11_25</title>
<polygon fill="none" stroke="blue" points="900,-684 792,-684 792,-576 900,-576 900,-684"/>
<text text-anchor="middle" x="846" y="-633.2" font-family="Times,serif" font-size="11.00">Rudi Horst Andert</text>
<text text-anchor="middle" x="846" y="-621.2" font-family="Times,serif" font-size="11.00">1940</text>
</g>
<!-- x11_0y_13_75 -->
<g id="node27" class="node">
<title>x11_0y_13_75</title>
<ellipse fill="none" stroke="black" cx="846" cy="-450" rx="0.5" ry="0.5"/>
</g>
<!-- x11_0y_11_25&#45;&gt;x11_0y_13_75 -->
<g id="edge8" class="edge">
<title>x11_0y_11_25&#45;&gt;x11_0y_13_75</title>
<path fill="none" stroke="black" d="M846,-575.99C846,-526.29 846,-459.04 846,-450.83"/>
</g>
<!-- x8_41y_15_25 -->
<g id="node18" class="node">
<title>x8_41y_15_25</title>
<ellipse fill="none" stroke="pink" cx="660" cy="-342" rx="54" ry="54"/>
<text text-anchor="middle" x="660" y="-345.2" font-family="Times,serif" font-size="11.00">Jeanette Andert</text>
<text text-anchor="middle" x="660" y="-333.2" font-family="Times,serif" font-size="11.00">1972</text>
</g>
<!-- x21_0y_12_62 -->
<g id="node19" class="node">
<title>x21_0y_12_62</title>
<polygon fill="none" stroke="blue" points="1620,-585 1512,-585 1512,-477 1620,-477 1620,-585"/>
<text text-anchor="middle" x="1566" y="-534.2" font-family="Times,serif" font-size="11.00">Rainer Dabudziak</text>
<text text-anchor="middle" x="1566" y="-522.2" font-family="Times,serif" font-size="11.00">1951</text>
</g>
<!-- x21_0y_14_18 -->
<g id="node47" class="node">
<title>x21_0y_14_18</title>
<ellipse fill="none" stroke="black" cx="1566" cy="-418.5" rx="0.5" ry="0.5"/>
</g>
<!-- x21_0y_12_62&#45;&gt;x21_0y_14_18 -->
<g id="edge39" class="edge">
<title>x21_0y_12_62&#45;&gt;x21_0y_14_18</title>
<path fill="none" stroke="black" d="M1566,-476.73C1566,-450.66 1566,-424.02 1566,-419.25"/>
</g>
<!-- x7_0y_7_0 -->
<g id="node20" class="node">
<title>x7_0y_7_0</title>
<polygon fill="none" stroke="blue" points="612,-990 504,-990 504,-882 612,-882 612,-990"/>
<text text-anchor="middle" x="558" y="-939.2" font-family="Times,serif" font-size="11.00">Adolf Wendt</text>
<text text-anchor="middle" x="558" y="-927.2" font-family="Times,serif" font-size="11.00">1906</text>
</g>
<!-- x7_0y_9_56 -->
<g id="node31" class="node">
<title>x7_0y_9_56</title>
<ellipse fill="none" stroke="black" cx="558" cy="-751.5" rx="0.5" ry="0.5"/>
</g>
<!-- x7_0y_7_0&#45;&gt;x7_0y_9_56 -->
<g id="edge15" class="edge">
<title>x7_0y_7_0&#45;&gt;x7_0y_9_56</title>
<path fill="none" stroke="black" d="M558,-881.64C558,-830.62 558,-760.88 558,-752.36"/>
</g>
<!-- x3_25y_12_25 -->
<g id="node21" class="node">
<title>x3_25y_12_25</title>
<ellipse fill="none" stroke="pink" cx="288" cy="-558" rx="54" ry="54"/>
<text text-anchor="middle" x="288" y="-567.2" font-family="Times,serif" font-size="11.00">Edith Inge</text>
<text text-anchor="middle" x="288" y="-555.2" font-family="Times,serif" font-size="11.00">Gertrud Andert </text>
<text text-anchor="middle" x="288" y="-543.2" font-family="Times,serif" font-size="11.00">1948</text>
</g>
<!-- x8_0y_3_87 -->
<g id="node22" class="node">
<title>x8_0y_3_87</title>
<polygon fill="none" stroke="grey" points="684,-1215 576,-1215 576,-1107 684,-1107 684,-1215"/>
<text text-anchor="middle" x="630" y="-1164.2" font-family="Times,serif" font-size="11.00">Unknown &#160;</text>
<text text-anchor="middle" x="630" y="-1152.2" font-family="Times,serif" font-size="11.00">1881</text>
</g>
<!-- x8_0y_5_43 -->
<g id="node41" class="node">
<title>x8_0y_5_43</title>
<ellipse fill="none" stroke="black" cx="630" cy="-1048.5" rx="0.5" ry="0.5"/>
</g>
<!-- x8_0y_3_87&#45;&gt;x8_0y_5_43 -->
<g id="edge29" class="edge">
<title>x8_0y_3_87&#45;&gt;x8_0y_5_43</title>
<path fill="none" stroke="black" d="M630,-1106.73C630,-1080.66 630,-1054.02 630,-1049.25"/>
</g>
<!-- x9_77y_17_43 -->
<g id="node25" class="node">
<title>x9_77y_17_43</title>
<ellipse fill="none" stroke="black" cx="758" cy="-184.5" rx="0.5" ry="0.5"/>
</g>
<!-- x17_66y_17_43&#45;&gt;x9_77y_17_43 -->
<g id="edge2" class="edge">
<title>x17_66y_17_43&#45;&gt;x9_77y_17_43</title>
<path fill="none" stroke="black" d="M1325.36,-184.5C1304.53,-184.5 783.31,-184.5 758.89,-184.5"/>
</g>
<!-- x5_83y_17_43 -->
<g id="node24" class="node">
<title>x5_83y_17_43</title>
<ellipse fill="none" stroke="black" cx="474" cy="-184.5" rx="0.5" ry="0.5"/>
</g>
<!-- x5_83y_17_43&#45;&gt;x5_83y_15_87 -->
<g id="edge5" class="edge">
<title>x5_83y_17_43&#45;&gt;x5_83y_15_87</title>
<path fill="none" stroke="black" d="M474,-185.22C474,-189.9 474,-216.66 474,-242.82"/>
</g>
<!-- x9_77y_17_43&#45;&gt;x9_77y_19_0 -->
<g id="edge6" class="edge">
<title>x9_77y_17_43&#45;&gt;x9_77y_19_0</title>
<path fill="none" stroke="black" d="M758,-183.78C758,-179.1 758,-152.34 758,-126.18"/>
</g>
<!-- x13_72y_17_43 -->
<g id="node26" class="node">
<title>x13_72y_17_43</title>
<ellipse fill="none" stroke="black" cx="1042" cy="-184.5" rx="0.5" ry="0.5"/>
</g>
<!-- x9_77y_17_43&#45;&gt;x13_72y_17_43 -->
<g id="edge3" class="edge">
<title>x9_77y_17_43&#45;&gt;x13_72y_17_43</title>
<path fill="none" stroke="black" d="M758.81,-184.5C774.95,-184.5 1025.59,-184.5 1041.23,-184.5"/>
</g>
<!-- x13_72y_17_43&#45;&gt;x13_72y_19_25 -->
<g id="edge7" class="edge">
<title>x13_72y_17_43&#45;&gt;x13_72y_19_25</title>
<path fill="none" stroke="black" d="M1042,-183.67C1042,-177.72 1042,-141 1042,-108.15"/>
</g>
<!-- x13_72y_17_43&#45;&gt;x5_83y_17_43 -->
<g id="edge4" class="edge">
<title>x13_72y_17_43&#45;&gt;x5_83y_17_43</title>
<path fill="none" stroke="black" d="M1041.36,-184.5C1020.53,-184.5 499.31,-184.5 474.89,-184.5"/>
</g>
<!-- x5_83y_13_75 -->
<g id="node29" class="node">
<title>x5_83y_13_75</title>
<ellipse fill="none" stroke="black" cx="474" cy="-450" rx="0.5" ry="0.5"/>
</g>
<!-- x11_0y_13_75&#45;&gt;x5_83y_13_75 -->
<g id="edge9" class="edge">
<title>x11_0y_13_75&#45;&gt;x5_83y_13_75</title>
<path fill="none" stroke="black" d="M845.4,-450C829.16,-450 490.44,-450 474.58,-450"/>
</g>
<!-- x3_25y_13_75 -->
<g id="node28" class="node">
<title>x3_25y_13_75</title>
<ellipse fill="none" stroke="black" cx="288" cy="-450" rx="0.5" ry="0.5"/>
</g>
<!-- x3_25y_13_75&#45;&gt;x3_25y_12_25 -->
<g id="edge12" class="edge">
<title>x3_25y_13_75&#45;&gt;x3_25y_12_25</title>
<path fill="none" stroke="black" d="M288,-450.69C288,-455.06 288,-479.45 288,-503.88"/>
</g>
<!-- x5_83y_13_75&#45;&gt;x5_83y_15_87 -->
<g id="edge13" class="edge">
<title>x5_83y_13_75&#45;&gt;x5_83y_15_87</title>
<path fill="none" stroke="black" d="M474,-449.32C474,-442.89 474,-392.35 474,-351.22"/>
</g>
<!-- x8_41y_13_75 -->
<g id="node30" class="node">
<title>x8_41y_13_75</title>
<ellipse fill="none" stroke="black" cx="660" cy="-450" rx="0.5" ry="0.5"/>
</g>
<!-- x5_83y_13_75&#45;&gt;x8_41y_13_75 -->
<g id="edge10" class="edge">
<title>x5_83y_13_75&#45;&gt;x8_41y_13_75</title>
<path fill="none" stroke="black" d="M474.53,-450C485.1,-450 649.25,-450 659.5,-450"/>
</g>
<!-- x8_41y_13_75&#45;&gt;x8_41y_15_25 -->
<g id="edge14" class="edge">
<title>x8_41y_13_75&#45;&gt;x8_41y_15_25</title>
<path fill="none" stroke="black" d="M660,-449.31C660,-444.94 660,-420.55 660,-396.12"/>
</g>
<!-- x8_41y_13_75&#45;&gt;x3_25y_13_75 -->
<g id="edge11" class="edge">
<title>x8_41y_13_75&#45;&gt;x3_25y_13_75</title>
<path fill="none" stroke="black" d="M659.4,-450C643.16,-450 304.44,-450 288.58,-450"/>
</g>
<!-- x3_25y_9_56 -->
<g id="node33" class="node">
<title>x3_25y_9_56</title>
<ellipse fill="none" stroke="black" cx="288" cy="-751.5" rx="0.5" ry="0.5"/>
</g>
<!-- x7_0y_9_56&#45;&gt;x3_25y_9_56 -->
<g id="edge16" class="edge">
<title>x7_0y_9_56&#45;&gt;x3_25y_9_56</title>
<path fill="none" stroke="black" d="M557.23,-751.5C541.88,-751.5 303.6,-751.5 288.73,-751.5"/>
</g>
<!-- x2_0y_9_56 -->
<g id="node32" class="node">
<title>x2_0y_9_56</title>
<ellipse fill="none" stroke="black" cx="198" cy="-751.5" rx="0.5" ry="0.5"/>
</g>
<!-- x2_0y_9_56&#45;&gt;x2_0y_8_0 -->
<g id="edge20" class="edge">
<title>x2_0y_9_56&#45;&gt;x2_0y_8_0</title>
<path fill="none" stroke="black" d="M198,-752.22C198,-756.9 198,-783.66 198,-809.82"/>
</g>
<!-- x3_25y_9_56&#45;&gt;x3_25y_12_25 -->
<g id="edge21" class="edge">
<title>x3_25y_9_56&#45;&gt;x3_25y_12_25</title>
<path fill="none" stroke="black" d="M288,-750.94C288,-743.67 288,-666.53 288,-612.03"/>
</g>
<!-- x4_50y_9_56 -->
<g id="node34" class="node">
<title>x4_50y_9_56</title>
<ellipse fill="none" stroke="black" cx="378" cy="-751.5" rx="0.5" ry="0.5"/>
</g>
<!-- x3_25y_9_56&#45;&gt;x4_50y_9_56 -->
<g id="edge17" class="edge">
<title>x3_25y_9_56&#45;&gt;x4_50y_9_56</title>
<path fill="none" stroke="black" d="M288.57,-751.5C295.88,-751.5 370.5,-751.5 377.48,-751.5"/>
</g>
<!-- x5_75y_9_56 -->
<g id="node35" class="node">
<title>x5_75y_9_56</title>
<ellipse fill="none" stroke="black" cx="468" cy="-751.5" rx="0.5" ry="0.5"/>
</g>
<!-- x4_50y_9_56&#45;&gt;x5_75y_9_56 -->
<g id="edge18" class="edge">
<title>x4_50y_9_56&#45;&gt;x5_75y_9_56</title>
<path fill="none" stroke="black" d="M378.57,-751.5C385.88,-751.5 460.5,-751.5 467.48,-751.5"/>
</g>
<!-- x4_50y_11_12 -->
<g id="node36" class="node">
<title>x4_50y_11_12</title>
<ellipse fill="none" stroke="black" cx="338.44" cy="-675.36" rx="54" ry="54"/>
<text text-anchor="middle" x="338.44" y="-672.56" font-family="Times,serif" font-size="11.00">x4_50y_11_12</text>
</g>
<!-- x4_50y_9_56&#45;&gt;x4_50y_11_12 -->
<g id="edge22" class="edge">
<title>x4_50y_9_56&#45;&gt;x4_50y_11_12</title>
<path fill="none" stroke="black" d="M377.75,-751.01C376.46,-748.53 370.39,-736.86 363.4,-723.4"/>
</g>
<!-- x5_75y_9_56&#45;&gt;x2_0y_9_56 -->
<g id="edge19" class="edge">
<title>x5_75y_9_56&#45;&gt;x2_0y_9_56</title>
<path fill="none" stroke="black" d="M467.23,-751.5C451.88,-751.5 213.6,-751.5 198.73,-751.5"/>
</g>
<!-- x5_75y_11_12 -->
<g id="node37" class="node">
<title>x5_75y_11_12</title>
<ellipse fill="none" stroke="black" cx="492.75" cy="-687.54" rx="54" ry="54"/>
<text text-anchor="middle" x="492.75" y="-684.74" font-family="Times,serif" font-size="11.00">x5_75y_11_12</text>
</g>
<!-- x5_75y_9_56&#45;&gt;x5_75y_11_12 -->
<g id="edge23" class="edge">
<title>x5_75y_9_56&#45;&gt;x5_75y_11_12</title>
<path fill="none" stroke="black" d="M468.28,-750.78C468.96,-749.03 470.83,-744.19 473.25,-737.94"/>
</g>
<!-- x2_0y_6_43 -->
<g id="node40" class="node">
<title>x2_0y_6_43</title>
<ellipse fill="none" stroke="black" cx="198" cy="-976.5" rx="0.5" ry="0.5"/>
</g>
<!-- x4_0y_6_43&#45;&gt;x2_0y_6_43 -->
<g id="edge25" class="edge">
<title>x4_0y_6_43&#45;&gt;x2_0y_6_43</title>
<path fill="none" stroke="black" d="M341.36,-976.5C331.46,-976.5 210.2,-976.5 198.85,-976.5"/>
</g>
<!-- x0_0y_6_43 -->
<g id="node39" class="node">
<title>x0_0y_6_43</title>
<ellipse fill="none" stroke="black" cx="54" cy="-976.5" rx="0.5" ry="0.5"/>
</g>
<!-- x0_0y_6_43&#45;&gt;x0_0y_4_87 -->
<g id="edge27" class="edge">
<title>x0_0y_6_43&#45;&gt;x0_0y_4_87</title>
<path fill="none" stroke="black" d="M54,-977.22C54,-981.9 54,-1008.66 54,-1034.82"/>
</g>
<!-- x2_0y_6_43&#45;&gt;x2_0y_8_0 -->
<g id="edge28" class="edge">
<title>x2_0y_6_43&#45;&gt;x2_0y_8_0</title>
<path fill="none" stroke="black" d="M198,-975.78C198,-971.1 198,-944.34 198,-918.18"/>
</g>
<!-- x2_0y_6_43&#45;&gt;x0_0y_6_43 -->
<g id="edge26" class="edge">
<title>x2_0y_6_43&#45;&gt;x0_0y_6_43</title>
<path fill="none" stroke="black" d="M197.36,-976.5C187.46,-976.5 66.2,-976.5 54.85,-976.5"/>
</g>
<!-- x7_0y_5_43 -->
<g id="node43" class="node">
<title>x7_0y_5_43</title>
<ellipse fill="none" stroke="black" cx="558" cy="-1048.5" rx="0.5" ry="0.5"/>
</g>
<!-- x8_0y_5_43&#45;&gt;x7_0y_5_43 -->
<g id="edge30" class="edge">
<title>x8_0y_5_43&#45;&gt;x7_0y_5_43</title>
<path fill="none" stroke="black" d="M629.19,-1048.5C621.78,-1048.5 565.69,-1048.5 558.71,-1048.5"/>
</g>
<!-- x6_0y_5_43 -->
<g id="node42" class="node">
<title>x6_0y_5_43</title>
<ellipse fill="none" stroke="black" cx="486" cy="-1048.5" rx="0.5" ry="0.5"/>
</g>
<!-- x6_0y_5_43&#45;&gt;x6_0y_3_87 -->
<g id="edge32" class="edge">
<title>x6_0y_5_43&#45;&gt;x6_0y_3_87</title>
<path fill="none" stroke="black" d="M486,-1049.22C486,-1053.9 486,-1080.66 486,-1106.82"/>
</g>
<!-- x7_0y_5_43&#45;&gt;x7_0y_7_0 -->
<g id="edge33" class="edge">
<title>x7_0y_5_43&#45;&gt;x7_0y_7_0</title>
<path fill="none" stroke="black" d="M558,-1047.78C558,-1043.1 558,-1016.34 558,-990.18"/>
</g>
<!-- x7_0y_5_43&#45;&gt;x6_0y_5_43 -->
<g id="edge31" class="edge">
<title>x7_0y_5_43&#45;&gt;x6_0y_5_43</title>
<path fill="none" stroke="black" d="M557.19,-1048.5C549.78,-1048.5 493.69,-1048.5 486.71,-1048.5"/>
</g>
<!-- x11_0y_9_12 -->
<g id="node46" class="node">
<title>x11_0y_9_12</title>
<ellipse fill="none" stroke="black" cx="846" cy="-783" rx="0.5" ry="0.5"/>
</g>
<!-- x12_0y_9_12&#45;&gt;x11_0y_9_12 -->
<g id="edge35" class="edge">
<title>x12_0y_9_12&#45;&gt;x11_0y_9_12</title>
<path fill="none" stroke="black" d="M917.19,-783C909.78,-783 853.69,-783 846.71,-783"/>
</g>
<!-- x10_0y_9_12 -->
<g id="node45" class="node">
<title>x10_0y_9_12</title>
<ellipse fill="none" stroke="black" cx="774" cy="-783" rx="0.5" ry="0.5"/>
</g>
<!-- x10_0y_9_12&#45;&gt;x10_0y_6_87 -->
<g id="edge37" class="edge">
<title>x10_0y_9_12&#45;&gt;x10_0y_6_87</title>
<path fill="none" stroke="black" d="M774,-783.72C774,-790.68 774,-846.58 774,-890.64"/>
</g>
<!-- x11_0y_9_12&#45;&gt;x11_0y_11_25 -->
<g id="edge38" class="edge">
<title>x11_0y_9_12&#45;&gt;x11_0y_11_25</title>
<path fill="none" stroke="black" d="M846,-782.32C846,-775.89 846,-725.35 846,-684.22"/>
</g>
<!-- x11_0y_9_12&#45;&gt;x10_0y_9_12 -->
<g id="edge36" class="edge">
<title>x11_0y_9_12&#45;&gt;x10_0y_9_12</title>
<path fill="none" stroke="black" d="M845.19,-783C837.78,-783 781.69,-783 774.71,-783"/>
</g>
<!-- x17_66y_14_18 -->
<g id="node49" class="node">
<title>x17_66y_14_18</title>
<ellipse fill="none" stroke="black" cx="1326" cy="-418.5" rx="0.5" ry="0.5"/>
</g>
<!-- x21_0y_14_18&#45;&gt;x17_66y_14_18 -->
<g id="edge40" class="edge">
<title>x21_0y_14_18&#45;&gt;x17_66y_14_18</title>
<path fill="none" stroke="black" d="M1565.31,-418.5C1551.67,-418.5 1339.87,-418.5 1326.65,-418.5"/>
</g>
<!-- x16_0y_14_18 -->
<g id="node48" class="node">
<title>x16_0y_14_18</title>
<ellipse fill="none" stroke="black" cx="1206" cy="-418.5" rx="0.5" ry="0.5"/>
</g>
<!-- x16_0y_14_18&#45;&gt;x16_0y_13_0 -->
<g id="edge43" class="edge">
<title>x16_0y_14_18&#45;&gt;x16_0y_13_0</title>
<path fill="none" stroke="black" d="M1206,-419.05C1206,-421.81 1206,-434.67 1206,-449.59"/>
</g>
<!-- x17_66y_14_18&#45;&gt;x17_66y_15_37 -->
<g id="edge44" class="edge">
<title>x17_66y_14_18&#45;&gt;x17_66y_15_37</title>
<path fill="none" stroke="black" d="M1326,-417.95C1326,-415.19 1326,-402.33 1326,-387.41"/>
</g>
<!-- x19_33y_14_18 -->
<g id="node50" class="node">
<title>x19_33y_14_18</title>
<ellipse fill="none" stroke="black" cx="1446" cy="-418.5" rx="0.5" ry="0.5"/>
</g>
<!-- x17_66y_14_18&#45;&gt;x19_33y_14_18 -->
<g id="edge41" class="edge">
<title>x17_66y_14_18&#45;&gt;x19_33y_14_18</title>
<path fill="none" stroke="black" d="M1326.77,-418.5C1336.51,-418.5 1436,-418.5 1445.3,-418.5"/>
</g>
<!-- x19_33y_14_18&#45;&gt;x19_33y_15_87 -->
<g id="edge45" class="edge">
<title>x19_33y_14_18&#45;&gt;x19_33y_15_87</title>
<path fill="none" stroke="black" d="M1446,-417.72C1446,-412.41 1446,-380.7 1446,-351.12"/>
</g>
<!-- x19_33y_14_18&#45;&gt;x16_0y_14_18 -->
<g id="edge42" class="edge">
<title>x19_33y_14_18&#45;&gt;x16_0y_14_18</title>
<path fill="none" stroke="black" d="M1445.31,-418.5C1431.67,-418.5 1219.87,-418.5 1206.65,-418.5"/>
</g>
<!-- x16_0y_11_43 -->
<g id="node53" class="node">
<title>x16_0y_11_43</title>
<ellipse fill="none" stroke="black" cx="1206" cy="-616.5" rx="0.5" ry="0.5"/>
</g>
<!-- x18_0y_11_43&#45;&gt;x16_0y_11_43 -->
<g id="edge47" class="edge">
<title>x18_0y_11_43&#45;&gt;x16_0y_11_43</title>
<path fill="none" stroke="black" d="M1349.36,-616.5C1339.46,-616.5 1218.2,-616.5 1206.85,-616.5"/>
</g>
<!-- x14_0y_11_43 -->
<g id="node52" class="node">
<title>x14_0y_11_43</title>
<ellipse fill="none" stroke="black" cx="1062" cy="-616.5" rx="0.5" ry="0.5"/>
</g>
<!-- x14_0y_11_43&#45;&gt;x14_0y_9_87 -->
<g id="edge49" class="edge">
<title>x14_0y_11_43&#45;&gt;x14_0y_9_87</title>
<path fill="none" stroke="black" d="M1062,-617.22C1062,-621.9 1062,-648.66 1062,-674.82"/>
</g>
<!-- x16_0y_11_43&#45;&gt;x16_0y_13_0 -->
<g id="edge50" class="edge">
<title>x16_0y_11_43&#45;&gt;x16_0y_13_0</title>
<path fill="none" stroke="black" d="M1206,-615.78C1206,-611.1 1206,-584.34 1206,-558.18"/>
</g>
<!-- x16_0y_11_43&#45;&gt;x14_0y_11_43 -->
<g id="edge48" class="edge">
<title>x16_0y_11_43&#45;&gt;x14_0y_11_43</title>
<path fill="none" stroke="black" d="M1205.36,-616.5C1195.46,-616.5 1074.2,-616.5 1062.85,-616.5"/>
</g>
<!-- x21_0y_11_37 -->
<g id="node56" class="node">
<title>x21_0y_11_37</title>
<ellipse fill="none" stroke="black" cx="1566" cy="-621" rx="0.5" ry="0.5"/>
</g>
<!-- x22_0y_11_37&#45;&gt;x21_0y_11_37 -->
<g id="edge52" class="edge">
<title>x22_0y_11_37&#45;&gt;x21_0y_11_37</title>
<path fill="none" stroke="black" d="M1637.19,-621C1629.78,-621 1573.69,-621 1566.71,-621"/>
</g>
<!-- x20_0y_11_37 -->
<g id="node55" class="node">
<title>x20_0y_11_37</title>
<ellipse fill="none" stroke="black" cx="1494" cy="-621" rx="0.5" ry="0.5"/>
</g>
<!-- x20_0y_11_37&#45;&gt;x20_0y_10_12 -->
<g id="edge54" class="edge">
<title>x20_0y_11_37&#45;&gt;x20_0y_10_12</title>
<path fill="none" stroke="black" d="M1494,-621.57C1494,-624.66 1494,-639.74 1494,-656.66"/>
</g>
<!-- x21_0y_11_37&#45;&gt;x21_0y_12_62 -->
<g id="edge55" class="edge">
<title>x21_0y_11_37&#45;&gt;x21_0y_12_62</title>
<path fill="none" stroke="black" d="M1566,-620.43C1566,-617.34 1566,-602.26 1566,-585.34"/>
</g>
<!-- x21_0y_11_37&#45;&gt;x20_0y_11_37 -->
<g id="edge53" class="edge">
<title>x21_0y_11_37&#45;&gt;x20_0y_11_37</title>
<path fill="none" stroke="black" d="M1565.19,-621C1557.78,-621 1501.69,-621 1494.71,-621"/>
</g>
</g>
</svg>
