<?xml version="1.0" encoding="UTF-8" standalone="no"?>
<!DOCTYPE svg PUBLIC "-//W3C//DTD SVG 1.1//EN"
 "http://www.w3.org/Graphics/SVG/1.1/DTD/svg11.dtd">
<!-- Generated by graphviz version 5.0.0 (20220707.1540)
 -->
<!-- Title: P Pages: 1 -->
<svg width="261pt" height="275pt"
 viewBox="0.00 0.00 261.00 275.00" xmlns="http://www.w3.org/2000/svg" xmlns:xlink="http://www.w3.org/1999/xlink">
<g id="graph0" class="graph" transform="scale(1 1) rotate(0) translate(4 271)">
<title>P</title>
<polygon fill="white" stroke="transparent" points="-4,4 -4,-271 257,-271 257,4 -4,4"/>
<!-- male -->
<g id="node1" class="node">
<title>male</title>
<polygon fill="none" stroke="blue" points="92,-250 0,-250 0,-158 92,-158 92,-250"/>
<text text-anchor="middle" x="46" y="-207.8" font-family="Times,serif" font-size="14.00">Randy Andert</text>
<text text-anchor="middle" x="46" y="-192.8" font-family="Times,serif" font-size="14.00">29.03.1973</text>
</g>
<!-- t01 -->
<g id="node4" class="node">
<title>t01</title>
<ellipse fill="none" stroke="black" cx="46" cy="-132" rx="0.5" ry="0.5"/>
</g>
<!-- male&#45;&gt;t01 -->
<g id="edge1" class="edge">
<title>male&#45;&gt;t01</title>
<path fill="none" stroke="black" d="M46,-157.99C46,-145.65 46,-135.01 46,-132.54"/>
</g>
<!-- female -->
<g id="node2" class="node">
<title>female</title>
<ellipse fill="none" stroke="pink" cx="190" cy="-204" rx="62.87" ry="62.87"/>
<text text-anchor="middle" x="190" y="-207.8" font-family="Times,serif" font-size="14.00">Silvia Andert</text>
<text text-anchor="middle" x="190" y="-192.8" font-family="Times,serif" font-size="14.00">08.01.1977</text>
</g>
<!-- t21 -->
<g id="node6" class="node">
<title>t21</title>
<ellipse fill="none" stroke="black" cx="190" cy="-132" rx="0.5" ry="0.5"/>
</g>
<!-- female&#45;&gt;t21 -->
<g id="edge2" class="edge">
<title>female&#45;&gt;t21</title>
<path fill="none" stroke="black" d="M190,-140.83C190,-136.79 190,-133.84 190,-132.62"/>
</g>
<!-- child -->
<g id="node3" class="node">
<title>child</title>
<polygon fill="none" stroke="blue" points="178,-120 58,-120 58,0 178,0 178,-120"/>
<text text-anchor="middle" x="118" y="-63.8" font-family="Times,serif" font-size="14.00">Paul Randy Andert</text>
<text text-anchor="middle" x="118" y="-48.8" font-family="Times,serif" font-size="14.00">15.01.2002</text>
</g>
<!-- t11 -->
<g id="node5" class="node">
<title>t11</title>
<ellipse fill="none" stroke="black" cx="118" cy="-132" rx="0.5" ry="0.5"/>
</g>
<!-- t01&#45;&gt;t11 -->
<g id="edge3" class="edge">
<title>t01&#45;&gt;t11</title>
<path fill="none" stroke="black" d="M46.81,-132C54.22,-132 110.31,-132 117.29,-132"/>
</g>
<!-- t11&#45;&gt;child -->
<g id="edge5" class="edge">
<title>t11&#45;&gt;child</title>
<path fill="none" stroke="black" d="M118,-131.19C118,-129.55 118,-125.54 118,-120.21"/>
</g>
<!-- t11&#45;&gt;t21 -->
<g id="edge4" class="edge">
<title>t11&#45;&gt;t21</title>
<path fill="none" stroke="black" d="M118.81,-132C126.22,-132 182.31,-132 189.29,-132"/>
</g>
</g>
</svg>
