<?xml version="1.0" encoding="UTF-8" standalone="no"?>
<!DOCTYPE svg PUBLIC "-//W3C//DTD SVG 1.1//EN"
 "http://www.w3.org/Graphics/SVG/1.1/DTD/svg11.dtd">
<!-- Generated by graphviz version 5.0.0 (20220707.1540)
 -->
<!-- Title: P Pages: 1 -->
<svg width="2564pt" height="17927pt"
 viewBox="0.00 0.00 2564.00 17927.00" xmlns="http://www.w3.org/2000/svg" xmlns:xlink="http://www.w3.org/1999/xlink">
<g id="graph0" class="graph" transform="scale(1 1) rotate(0) translate(4 17923)">
<title>P</title>
<polygon fill="white" stroke="transparent" points="-4,4 -4,-17923 2560,-17923 2560,4 -4,4"/>
<!-- x18_0y_7_0 -->
<g id="node1" class="node">
<title>x18_0y_7_0</title>
<polygon fill="none" stroke="blue" points="1404,-990 1296,-990 1296,-882 1404,-882 1404,-990"/>
<text text-anchor="middle" x="1350" y="-939.2" font-family="Times,serif" font-size="11.00">Willi Andert</text>
<text text-anchor="middle" x="1350" y="-927.2" font-family="Times,serif" font-size="11.00">1906</text>
</g>
<!-- x18_0y_9_12 -->
<g id="node46" class="node">
<title>x18_0y_9_12</title>
<ellipse fill="none" stroke="black" cx="1350" cy="-783" rx="0.5" ry="0.5"/>
</g>
<!-- x18_0y_7_0&#45;&gt;x18_0y_9_12 -->
<g id="edge36" class="edge">
<title>x18_0y_7_0&#45;&gt;x18_0y_9_12</title>
<path fill="none" stroke="black" d="M1350,-881.63C1350,-840.4 1350,-789.79 1350,-783.62"/>
</g>
<!-- x20_27y_19_25 -->
<g id="node2" class="node">
<title>x20_27y_19_25</title>
<polygon fill="none" stroke="blue" points="1568,-108 1460,-108 1460,0 1568,0 1568,-108"/>
<text text-anchor="middle" x="1514" y="-57.2" font-family="Times,serif" font-size="11.00">Ben Rudi Andert</text>
<text text-anchor="middle" x="1514" y="-45.2" font-family="Times,serif" font-size="11.00">2004</text>
</g>
<!-- x4_0y_4_87 -->
<g id="node3" class="node">
<title>x4_0y_4_87</title>
<polygon fill="none" stroke="blue" points="396,-1143 288,-1143 288,-1035 396,-1035 396,-1143"/>
<text text-anchor="middle" x="342" y="-1092.2" font-family="Times,serif" font-size="11.00">Wilhelm Polz</text>
<text text-anchor="middle" x="342" y="-1080.2" font-family="Times,serif" font-size="11.00">1889</text>
</g>
<!-- x4_0y111_62 -->
<g id="node39" class="node">
<title>x4_0y111_62</title>
<ellipse fill="none" stroke="black" cx="342" cy="-9477" rx="0.5" ry="0.5"/>
</g>
<!-- x4_0y_4_87&#45;&gt;x4_0y111_62 -->
<g id="edge24" class="edge">
<title>x4_0y_4_87&#45;&gt;x4_0y111_62</title>
<path fill="none" stroke="black" d="M342,-1143.11C342,-1856.64 342,-9387.99 342,-9476.22"/>
</g>
<!-- x14_0y_6_87 -->
<g id="node4" class="node">
<title>x14_0y_6_87</title>
<ellipse fill="none" stroke="pink" cx="1062" cy="-945" rx="54" ry="54"/>
<text text-anchor="middle" x="1062" y="-948.2" font-family="Times,serif" font-size="11.00">Gertrud Andert</text>
<text text-anchor="middle" x="1062" y="-936.2" font-family="Times,serif" font-size="11.00">1905</text>
</g>
<!-- x3_0y228_12 -->
<g id="node5" class="node">
<title>x3_0y228_12</title>
<polygon fill="none" stroke="blue" points="324,-17919 216,-17919 216,-17811 324,-17811 324,-17919"/>
<text text-anchor="middle" x="270" y="-17868.2" font-family="Times,serif" font-size="11.00">Wilhelm Polz jr.</text>
<text text-anchor="middle" x="270" y="-17856.2" font-family="Times,serif" font-size="11.00">25</text>
</g>
<!-- x5_50y_11_12 -->
<g id="node6" class="node">
<title>x5_50y_11_12</title>
<polygon fill="none" stroke="blue" points="504,-693 396,-693 396,-585 504,-585 504,-693"/>
<text text-anchor="middle" x="450" y="-642.2" font-family="Times,serif" font-size="11.00">Adolf Wendt jr.</text>
<text text-anchor="middle" x="450" y="-630.2" font-family="Times,serif" font-size="11.00">1939</text>
</g>
<!-- x28_0y_9_87 -->
<g id="node7" class="node">
<title>x28_0y_9_87</title>
<polygon fill="none" stroke="blue" points="2124,-783 2016,-783 2016,-675 2124,-675 2124,-783"/>
<text text-anchor="middle" x="2070" y="-732.2" font-family="Times,serif" font-size="11.00">Siegfried Ganzler</text>
<text text-anchor="middle" x="2070" y="-720.2" font-family="Times,serif" font-size="11.00">1929</text>
</g>
<!-- x28_0y_11_43 -->
<g id="node53" class="node">
<title>x28_0y_11_43</title>
<ellipse fill="none" stroke="black" cx="2070" cy="-616.5" rx="0.5" ry="0.5"/>
</g>
<!-- x28_0y_9_87&#45;&gt;x28_0y_11_43 -->
<g id="edge48" class="edge">
<title>x28_0y_9_87&#45;&gt;x28_0y_11_43</title>
<path fill="none" stroke="black" d="M2070,-674.73C2070,-648.66 2070,-622.02 2070,-617.25"/>
</g>
<!-- x30_0y_10_12 -->
<g id="node8" class="node">
<title>x30_0y_10_12</title>
<ellipse fill="none" stroke="pink" cx="2214" cy="-711" rx="54" ry="54"/>
<text text-anchor="middle" x="2214" y="-714.2" font-family="Times,serif" font-size="11.00">Irene Dabudziak</text>
<text text-anchor="middle" x="2214" y="-702.2" font-family="Times,serif" font-size="11.00">1931</text>
</g>
<!-- x13_88y_19_0 -->
<g id="node9" class="node">
<title>x13_88y_19_0</title>
<polygon fill="none" stroke="blue" points="1108,-126 1000,-126 1000,-18 1108,-18 1108,-126"/>
<text text-anchor="middle" x="1054" y="-75.2" font-family="Times,serif" font-size="11.00">Paul Randy Andert</text>
<text text-anchor="middle" x="1054" y="-63.2" font-family="Times,serif" font-size="11.00">2002</text>
</g>
<!-- x32_0y_12_62 -->
<g id="node10" class="node">
<title>x32_0y_12_62</title>
<polygon fill="none" stroke="blue" points="2412,-585 2304,-585 2304,-477 2412,-477 2412,-585"/>
<text text-anchor="middle" x="2358" y="-534.2" font-family="Times,serif" font-size="11.00">Rainer Dabudziak</text>
<text text-anchor="middle" x="2358" y="-522.2" font-family="Times,serif" font-size="11.00">1951</text>
</g>
<!-- x32_0y_14_18 -->
<g id="node49" class="node">
<title>x32_0y_14_18</title>
<ellipse fill="none" stroke="black" cx="2358" cy="-418.5" rx="0.5" ry="0.5"/>
</g>
<!-- x32_0y_12_62&#45;&gt;x32_0y_14_18 -->
<g id="edge41" class="edge">
<title>x32_0y_12_62&#45;&gt;x32_0y_14_18</title>
<path fill="none" stroke="black" d="M2358,-476.73C2358,-450.66 2358,-424.02 2358,-419.25"/>
</g>
<!-- x3_25y_12_25 -->
<g id="node11" class="node">
<title>x3_25y_12_25</title>
<ellipse fill="none" stroke="pink" cx="288" cy="-558" rx="54" ry="54"/>
<text text-anchor="middle" x="288" y="-567.2" font-family="Times,serif" font-size="11.00">Edith Inge</text>
<text text-anchor="middle" x="288" y="-555.2" font-family="Times,serif" font-size="11.00">Gertrud Andert </text>
<text text-anchor="middle" x="288" y="-543.2" font-family="Times,serif" font-size="11.00">1948</text>
</g>
<!-- x34_0y_10_0 -->
<g id="node12" class="node">
<title>x34_0y_10_0</title>
<polygon fill="none" stroke="blue" points="2556,-774 2448,-774 2448,-666 2556,-666 2556,-774"/>
<text text-anchor="middle" x="2502" y="-723.2" font-family="Times,serif" font-size="11.00">Paul Dabudziak</text>
<text text-anchor="middle" x="2502" y="-711.2" font-family="Times,serif" font-size="11.00">1930</text>
</g>
<!-- x34_0y_11_37 -->
<g id="node56" class="node">
<title>x34_0y_11_37</title>
<ellipse fill="none" stroke="black" cx="2502" cy="-621" rx="0.5" ry="0.5"/>
</g>
<!-- x34_0y_10_0&#45;&gt;x34_0y_11_37 -->
<g id="edge53" class="edge">
<title>x34_0y_10_0&#45;&gt;x34_0y_11_37</title>
<path fill="none" stroke="black" d="M2502,-665.87C2502,-644.92 2502,-625.09 2502,-621.56"/>
</g>
<!-- x0_0y_4_87 -->
<g id="node13" class="node">
<title>x0_0y_4_87</title>
<ellipse fill="none" stroke="pink" cx="54" cy="-1089" rx="54" ry="54"/>
<text text-anchor="middle" x="54" y="-1092.2" font-family="Times,serif" font-size="11.00">Marie Polz</text>
<text text-anchor="middle" x="54" y="-1080.2" font-family="Times,serif" font-size="11.00">1889</text>
</g>
<!-- x8_0y_3_87 -->
<g id="node14" class="node">
<title>x8_0y_3_87</title>
<ellipse fill="none" stroke="pink" cx="630" cy="-1161" rx="54" ry="54"/>
<text text-anchor="middle" x="630" y="-1164.2" font-family="Times,serif" font-size="11.00">Marie Wendt</text>
<text text-anchor="middle" x="630" y="-1152.2" font-family="Times,serif" font-size="11.00">1881</text>
</g>
<!-- x10_0y_7_0 -->
<g id="node15" class="node">
<title>x10_0y_7_0</title>
<polygon fill="none" stroke="blue" points="828,-990 720,-990 720,-882 828,-882 828,-990"/>
<text text-anchor="middle" x="774" y="-939.2" font-family="Times,serif" font-size="11.00">Adolf Wendt</text>
<text text-anchor="middle" x="774" y="-927.2" font-family="Times,serif" font-size="11.00">1906</text>
</g>
<!-- x10_0y_9_56 -->
<g id="node34" class="node">
<title>x10_0y_9_56</title>
<ellipse fill="none" stroke="black" cx="774" cy="-751.5" rx="0.5" ry="0.5"/>
</g>
<!-- x10_0y_7_0&#45;&gt;x10_0y_9_56 -->
<g id="edge15" class="edge">
<title>x10_0y_7_0&#45;&gt;x10_0y_9_56</title>
<path fill="none" stroke="black" d="M774,-881.64C774,-830.62 774,-760.88 774,-752.36"/>
</g>
<!-- x7_75y_11_12 -->
<g id="node16" class="node">
<title>x7_75y_11_12</title>
<ellipse fill="none" stroke="pink" cx="612" cy="-639" rx="54" ry="54"/>
<text text-anchor="middle" x="612" y="-642.2" font-family="Times,serif" font-size="11.00">Inge Wendt</text>
<text text-anchor="middle" x="612" y="-630.2" font-family="Times,serif" font-size="11.00">1939</text>
</g>
<!-- x16_0y_11_25 -->
<g id="node17" class="node">
<title>x16_0y_11_25</title>
<polygon fill="none" stroke="blue" points="1260,-684 1152,-684 1152,-576 1260,-576 1260,-684"/>
<text text-anchor="middle" x="1206" y="-633.2" font-family="Times,serif" font-size="11.00">Rudi Horst Andert</text>
<text text-anchor="middle" x="1206" y="-621.2" font-family="Times,serif" font-size="11.00">1940</text>
</g>
<!-- x16_0y_13_75 -->
<g id="node30" class="node">
<title>x16_0y_13_75</title>
<ellipse fill="none" stroke="black" cx="1206" cy="-450" rx="0.5" ry="0.5"/>
</g>
<!-- x16_0y_11_25&#45;&gt;x16_0y_13_75 -->
<g id="edge8" class="edge">
<title>x16_0y_11_25&#45;&gt;x16_0y_13_75</title>
<path fill="none" stroke="black" d="M1206,-575.99C1206,-526.29 1206,-459.04 1206,-450.83"/>
</g>
<!-- x20_0y_9_87 -->
<g id="node18" class="node">
<title>x20_0y_9_87</title>
<ellipse fill="none" stroke="pink" cx="1494" cy="-729" rx="54" ry="54"/>
<text text-anchor="middle" x="1494" y="-732.2" font-family="Times,serif" font-size="11.00">Erika Ganzler</text>
<text text-anchor="middle" x="1494" y="-720.2" font-family="Times,serif" font-size="11.00">1929</text>
</g>
<!-- x24_0y_13_0 -->
<g id="node19" class="node">
<title>x24_0y_13_0</title>
<ellipse fill="none" stroke="pink" cx="1782" cy="-504" rx="54" ry="54"/>
<text text-anchor="middle" x="1782" y="-507.2" font-family="Times,serif" font-size="11.00">Gabi Kosin</text>
<text text-anchor="middle" x="1782" y="-495.2" font-family="Times,serif" font-size="11.00">1954</text>
</g>
<!-- x7_50y_15_87 -->
<g id="node20" class="node">
<title>x7_50y_15_87</title>
<ellipse fill="none" stroke="pink" cx="594" cy="-297" rx="54" ry="54"/>
<text text-anchor="middle" x="594" y="-300.2" font-family="Times,serif" font-size="11.00">Silvia Andert</text>
<text text-anchor="middle" x="594" y="-288.2" font-family="Times,serif" font-size="11.00">1977</text>
</g>
<!-- x11_75y_15_25 -->
<g id="node21" class="node">
<title>x11_75y_15_25</title>
<ellipse fill="none" stroke="pink" cx="900" cy="-342" rx="54" ry="54"/>
<text text-anchor="middle" x="900" y="-345.2" font-family="Times,serif" font-size="11.00">Jeanette Andert</text>
<text text-anchor="middle" x="900" y="-333.2" font-family="Times,serif" font-size="11.00">1972</text>
</g>
<!-- x26_66y_15_37 -->
<g id="node22" class="node">
<title>x26_66y_15_37</title>
<polygon fill="none" stroke="blue" points="2028,-387 1920,-387 1920,-279 2028,-279 2028,-387"/>
<text text-anchor="middle" x="1974" y="-336.2" font-family="Times,serif" font-size="11.00">Randy Andert</text>
<text text-anchor="middle" x="1974" y="-324.2" font-family="Times,serif" font-size="11.00">1973</text>
</g>
<!-- x26_66y_17_43 -->
<g id="node26" class="node">
<title>x26_66y_17_43</title>
<ellipse fill="none" stroke="black" cx="1974" cy="-184.5" rx="0.5" ry="0.5"/>
</g>
<!-- x26_66y_15_37&#45;&gt;x26_66y_17_43 -->
<g id="edge1" class="edge">
<title>x26_66y_15_37&#45;&gt;x26_66y_17_43</title>
<path fill="none" stroke="black" d="M1974,-278.97C1974,-239.16 1974,-190.96 1974,-185.09"/>
</g>
<!-- x29_33y_15_87 -->
<g id="node23" class="node">
<title>x29_33y_15_87</title>
<polygon fill="none" stroke="blue" points="2220,-351 2112,-351 2112,-243 2220,-243 2220,-351"/>
<text text-anchor="middle" x="2166" y="-300.2" font-family="Times,serif" font-size="11.00">Mike Kosin</text>
<text text-anchor="middle" x="2166" y="-288.2" font-family="Times,serif" font-size="11.00">1977</text>
</g>
<!-- x1_0y_8_0 -->
<g id="node24" class="node">
<title>x1_0y_8_0</title>
<ellipse fill="none" stroke="pink" cx="126" cy="-864" rx="54" ry="54"/>
<text text-anchor="middle" x="126" y="-867.2" font-family="Times,serif" font-size="11.00">Gertrud Wendt</text>
<text text-anchor="middle" x="126" y="-855.2" font-family="Times,serif" font-size="11.00">1914</text>
</g>
<!-- x12_0y_3_87 -->
<g id="node25" class="node">
<title>x12_0y_3_87</title>
<polygon fill="none" stroke="grey" points="972,-1215 864,-1215 864,-1107 972,-1107 972,-1215"/>
<text text-anchor="middle" x="918" y="-1164.2" font-family="Times,serif" font-size="11.00">Unknown &#160;</text>
<text text-anchor="middle" x="918" y="-1152.2" font-family="Times,serif" font-size="11.00">1881</text>
</g>
<!-- x12_0y_5_43 -->
<g id="node43" class="node">
<title>x12_0y_5_43</title>
<ellipse fill="none" stroke="black" cx="918" cy="-1048.5" rx="0.5" ry="0.5"/>
</g>
<!-- x12_0y_3_87&#45;&gt;x12_0y_5_43 -->
<g id="edge31" class="edge">
<title>x12_0y_3_87&#45;&gt;x12_0y_5_43</title>
<path fill="none" stroke="black" d="M918,-1106.73C918,-1080.66 918,-1054.02 918,-1049.25"/>
</g>
<!-- x13_88y_17_43 -->
<g id="node28" class="node">
<title>x13_88y_17_43</title>
<ellipse fill="none" stroke="black" cx="1054" cy="-184.5" rx="0.5" ry="0.5"/>
</g>
<!-- x26_66y_17_43&#45;&gt;x13_88y_17_43 -->
<g id="edge2" class="edge">
<title>x26_66y_17_43&#45;&gt;x13_88y_17_43</title>
<path fill="none" stroke="black" d="M1973.33,-184.5C1945.91,-184.5 1081.65,-184.5 1054.65,-184.5"/>
</g>
<!-- x7_50y_17_43 -->
<g id="node27" class="node">
<title>x7_50y_17_43</title>
<ellipse fill="none" stroke="black" cx="594" cy="-184.5" rx="0.5" ry="0.5"/>
</g>
<!-- x7_50y_17_43&#45;&gt;x7_50y_15_87 -->
<g id="edge5" class="edge">
<title>x7_50y_17_43&#45;&gt;x7_50y_15_87</title>
<path fill="none" stroke="black" d="M594,-185.22C594,-189.9 594,-216.66 594,-242.82"/>
</g>
<!-- x13_88y_17_43&#45;&gt;x13_88y_19_0 -->
<g id="edge6" class="edge">
<title>x13_88y_17_43&#45;&gt;x13_88y_19_0</title>
<path fill="none" stroke="black" d="M1054,-183.78C1054,-179.1 1054,-152.34 1054,-126.18"/>
</g>
<!-- x20_27y_17_43 -->
<g id="node29" class="node">
<title>x20_27y_17_43</title>
<ellipse fill="none" stroke="black" cx="1514" cy="-184.5" rx="0.5" ry="0.5"/>
</g>
<!-- x13_88y_17_43&#45;&gt;x20_27y_17_43 -->
<g id="edge3" class="edge">
<title>x13_88y_17_43&#45;&gt;x20_27y_17_43</title>
<path fill="none" stroke="black" d="M1054.75,-184.5C1074.83,-184.5 1493.67,-184.5 1513.29,-184.5"/>
</g>
<!-- x20_27y_17_43&#45;&gt;x20_27y_19_25 -->
<g id="edge7" class="edge">
<title>x20_27y_17_43&#45;&gt;x20_27y_19_25</title>
<path fill="none" stroke="black" d="M1514,-183.67C1514,-177.72 1514,-141 1514,-108.15"/>
</g>
<!-- x20_27y_17_43&#45;&gt;x7_50y_17_43 -->
<g id="edge4" class="edge">
<title>x20_27y_17_43&#45;&gt;x7_50y_17_43</title>
<path fill="none" stroke="black" d="M1513.33,-184.5C1485.91,-184.5 621.65,-184.5 594.65,-184.5"/>
</g>
<!-- x7_50y_13_75 -->
<g id="node32" class="node">
<title>x7_50y_13_75</title>
<ellipse fill="none" stroke="black" cx="594" cy="-450" rx="0.5" ry="0.5"/>
</g>
<!-- x16_0y_13_75&#45;&gt;x7_50y_13_75 -->
<g id="edge9" class="edge">
<title>x16_0y_13_75&#45;&gt;x7_50y_13_75</title>
<path fill="none" stroke="black" d="M1205.31,-450C1182.78,-450 616.77,-450 594.66,-450"/>
</g>
<!-- x3_25y_13_75 -->
<g id="node31" class="node">
<title>x3_25y_13_75</title>
<ellipse fill="none" stroke="black" cx="288" cy="-450" rx="0.5" ry="0.5"/>
</g>
<!-- x3_25y_13_75&#45;&gt;x3_25y_12_25 -->
<g id="edge12" class="edge">
<title>x3_25y_13_75&#45;&gt;x3_25y_12_25</title>
<path fill="none" stroke="black" d="M288,-450.69C288,-455.06 288,-479.45 288,-503.88"/>
</g>
<!-- x7_50y_13_75&#45;&gt;x7_50y_15_87 -->
<g id="edge13" class="edge">
<title>x7_50y_13_75&#45;&gt;x7_50y_15_87</title>
<path fill="none" stroke="black" d="M594,-449.32C594,-442.89 594,-392.35 594,-351.22"/>
</g>
<!-- x11_75y_13_75 -->
<g id="node33" class="node">
<title>x11_75y_13_75</title>
<ellipse fill="none" stroke="black" cx="900" cy="-450" rx="0.5" ry="0.5"/>
</g>
<!-- x7_50y_13_75&#45;&gt;x11_75y_13_75 -->
<g id="edge10" class="edge">
<title>x7_50y_13_75&#45;&gt;x11_75y_13_75</title>
<path fill="none" stroke="black" d="M594.88,-450C612.27,-450 882.31,-450 899.18,-450"/>
</g>
<!-- x11_75y_13_75&#45;&gt;x11_75y_15_25 -->
<g id="edge14" class="edge">
<title>x11_75y_13_75&#45;&gt;x11_75y_15_25</title>
<path fill="none" stroke="black" d="M900,-449.31C900,-444.94 900,-420.55 900,-396.12"/>
</g>
<!-- x11_75y_13_75&#45;&gt;x3_25y_13_75 -->
<g id="edge11" class="edge">
<title>x11_75y_13_75&#45;&gt;x3_25y_13_75</title>
<path fill="none" stroke="black" d="M899.31,-450C876.78,-450 310.77,-450 288.66,-450"/>
</g>
<!-- x3_25y_9_56 -->
<g id="node36" class="node">
<title>x3_25y_9_56</title>
<ellipse fill="none" stroke="black" cx="288" cy="-751.5" rx="0.5" ry="0.5"/>
</g>
<!-- x10_0y_9_56&#45;&gt;x3_25y_9_56 -->
<g id="edge16" class="edge">
<title>x10_0y_9_56&#45;&gt;x3_25y_9_56</title>
<path fill="none" stroke="black" d="M773.21,-751.5C751.99,-751.5 309.48,-751.5 288.75,-751.5"/>
</g>
<!-- x1_0y_9_56 -->
<g id="node35" class="node">
<title>x1_0y_9_56</title>
<ellipse fill="none" stroke="black" cx="126" cy="-751.5" rx="0.5" ry="0.5"/>
</g>
<!-- x1_0y_9_56&#45;&gt;x1_0y_8_0 -->
<g id="edge20" class="edge">
<title>x1_0y_9_56&#45;&gt;x1_0y_8_0</title>
<path fill="none" stroke="black" d="M126,-752.22C126,-756.9 126,-783.66 126,-809.82"/>
</g>
<!-- x3_25y_9_56&#45;&gt;x3_25y_12_25 -->
<g id="edge21" class="edge">
<title>x3_25y_9_56&#45;&gt;x3_25y_12_25</title>
<path fill="none" stroke="black" d="M288,-750.94C288,-743.67 288,-666.53 288,-612.03"/>
</g>
<!-- x5_50y_9_56 -->
<g id="node37" class="node">
<title>x5_50y_9_56</title>
<ellipse fill="none" stroke="black" cx="450" cy="-751.5" rx="0.5" ry="0.5"/>
</g>
<!-- x3_25y_9_56&#45;&gt;x5_50y_9_56 -->
<g id="edge17" class="edge">
<title>x3_25y_9_56&#45;&gt;x5_50y_9_56</title>
<path fill="none" stroke="black" d="M288.72,-751.5C299.95,-751.5 438.52,-751.5 449.33,-751.5"/>
</g>
<!-- x5_50y_9_56&#45;&gt;x5_50y_11_12 -->
<g id="edge22" class="edge">
<title>x5_50y_9_56&#45;&gt;x5_50y_11_12</title>
<path fill="none" stroke="black" d="M450,-750.78C450,-746.1 450,-719.34 450,-693.18"/>
</g>
<!-- x7_75y_9_56 -->
<g id="node38" class="node">
<title>x7_75y_9_56</title>
<ellipse fill="none" stroke="black" cx="612" cy="-751.5" rx="0.5" ry="0.5"/>
</g>
<!-- x5_50y_9_56&#45;&gt;x7_75y_9_56 -->
<g id="edge18" class="edge">
<title>x5_50y_9_56&#45;&gt;x7_75y_9_56</title>
<path fill="none" stroke="black" d="M450.72,-751.5C461.95,-751.5 600.52,-751.5 611.33,-751.5"/>
</g>
<!-- x7_75y_9_56&#45;&gt;x7_75y_11_12 -->
<g id="edge23" class="edge">
<title>x7_75y_9_56&#45;&gt;x7_75y_11_12</title>
<path fill="none" stroke="black" d="M612,-750.78C612,-746.1 612,-719.34 612,-693.18"/>
</g>
<!-- x7_75y_9_56&#45;&gt;x1_0y_9_56 -->
<g id="edge19" class="edge">
<title>x7_75y_9_56&#45;&gt;x1_0y_9_56</title>
<path fill="none" stroke="black" d="M611.21,-751.5C589.99,-751.5 147.48,-751.5 126.75,-751.5"/>
</g>
<!-- x1_0y111_62 -->
<g id="node41" class="node">
<title>x1_0y111_62</title>
<ellipse fill="none" stroke="black" cx="126" cy="-9477" rx="0.5" ry="0.5"/>
</g>
<!-- x4_0y111_62&#45;&gt;x1_0y111_62 -->
<g id="edge25" class="edge">
<title>x4_0y111_62&#45;&gt;x1_0y111_62</title>
<path fill="none" stroke="black" d="M341.38,-9477C329.11,-9477 138.48,-9477 126.58,-9477"/>
</g>
<!-- x0_0y111_62 -->
<g id="node40" class="node">
<title>x0_0y111_62</title>
<ellipse fill="none" stroke="black" cx="54" cy="-9477" rx="0.5" ry="0.5"/>
</g>
<!-- x0_0y111_62&#45;&gt;x0_0y_4_87 -->
<g id="edge28" class="edge">
<title>x0_0y111_62&#45;&gt;x0_0y_4_87</title>
<path fill="none" stroke="black" d="M54,-9476.14C54,-9383.59 54,-1855.9 54,-1143.04"/>
</g>
<!-- x1_0y111_62&#45;&gt;x1_0y_8_0 -->
<g id="edge29" class="edge">
<title>x1_0y111_62&#45;&gt;x1_0y_8_0</title>
<path fill="none" stroke="black" d="M126,-9476.12C126,-9381.03 126,-1641.57 126,-918.09"/>
</g>
<!-- x3_0y111_62 -->
<g id="node42" class="node">
<title>x3_0y111_62</title>
<ellipse fill="none" stroke="black" cx="270" cy="-9477" rx="0.5" ry="0.5"/>
</g>
<!-- x1_0y111_62&#45;&gt;x3_0y111_62 -->
<g id="edge26" class="edge">
<title>x1_0y111_62&#45;&gt;x3_0y111_62</title>
<path fill="none" stroke="black" d="M126.64,-9477C136.54,-9477 257.8,-9477 269.15,-9477"/>
</g>
<!-- x3_0y111_62&#45;&gt;x3_0y228_12 -->
<g id="edge30" class="edge">
<title>x3_0y111_62&#45;&gt;x3_0y228_12</title>
<path fill="none" stroke="black" d="M270,-9477.86C270,-9570.41 270,-17098.1 270,-17810.96"/>
</g>
<!-- x3_0y111_62&#45;&gt;x0_0y111_62 -->
<g id="edge27" class="edge">
<title>x3_0y111_62&#45;&gt;x0_0y111_62</title>
<path fill="none" stroke="black" d="M269.38,-9477C257.11,-9477 66.48,-9477 54.58,-9477"/>
</g>
<!-- x10_0y_5_43 -->
<g id="node45" class="node">
<title>x10_0y_5_43</title>
<ellipse fill="none" stroke="black" cx="774" cy="-1048.5" rx="0.5" ry="0.5"/>
</g>
<!-- x12_0y_5_43&#45;&gt;x10_0y_5_43 -->
<g id="edge32" class="edge">
<title>x12_0y_5_43&#45;&gt;x10_0y_5_43</title>
<path fill="none" stroke="black" d="M917.36,-1048.5C907.46,-1048.5 786.2,-1048.5 774.85,-1048.5"/>
</g>
<!-- x8_0y_5_43 -->
<g id="node44" class="node">
<title>x8_0y_5_43</title>
<ellipse fill="none" stroke="black" cx="630" cy="-1048.5" rx="0.5" ry="0.5"/>
</g>
<!-- x8_0y_5_43&#45;&gt;x8_0y_3_87 -->
<g id="edge34" class="edge">
<title>x8_0y_5_43&#45;&gt;x8_0y_3_87</title>
<path fill="none" stroke="black" d="M630,-1049.22C630,-1053.9 630,-1080.66 630,-1106.82"/>
</g>
<!-- x10_0y_5_43&#45;&gt;x10_0y_7_0 -->
<g id="edge35" class="edge">
<title>x10_0y_5_43&#45;&gt;x10_0y_7_0</title>
<path fill="none" stroke="black" d="M774,-1047.78C774,-1043.1 774,-1016.34 774,-990.18"/>
</g>
<!-- x10_0y_5_43&#45;&gt;x8_0y_5_43 -->
<g id="edge33" class="edge">
<title>x10_0y_5_43&#45;&gt;x8_0y_5_43</title>
<path fill="none" stroke="black" d="M773.36,-1048.5C763.46,-1048.5 642.2,-1048.5 630.85,-1048.5"/>
</g>
<!-- x16_0y_9_12 -->
<g id="node48" class="node">
<title>x16_0y_9_12</title>
<ellipse fill="none" stroke="black" cx="1206" cy="-783" rx="0.5" ry="0.5"/>
</g>
<!-- x18_0y_9_12&#45;&gt;x16_0y_9_12 -->
<g id="edge37" class="edge">
<title>x18_0y_9_12&#45;&gt;x16_0y_9_12</title>
<path fill="none" stroke="black" d="M1349.36,-783C1339.46,-783 1218.2,-783 1206.85,-783"/>
</g>
<!-- x14_0y_9_12 -->
<g id="node47" class="node">
<title>x14_0y_9_12</title>
<ellipse fill="none" stroke="black" cx="1062" cy="-783" rx="0.5" ry="0.5"/>
</g>
<!-- x14_0y_9_12&#45;&gt;x14_0y_6_87 -->
<g id="edge39" class="edge">
<title>x14_0y_9_12&#45;&gt;x14_0y_6_87</title>
<path fill="none" stroke="black" d="M1062,-783.72C1062,-790.68 1062,-846.58 1062,-890.64"/>
</g>
<!-- x16_0y_9_12&#45;&gt;x16_0y_11_25 -->
<g id="edge40" class="edge">
<title>x16_0y_9_12&#45;&gt;x16_0y_11_25</title>
<path fill="none" stroke="black" d="M1206,-782.32C1206,-775.89 1206,-725.35 1206,-684.22"/>
</g>
<!-- x16_0y_9_12&#45;&gt;x14_0y_9_12 -->
<g id="edge38" class="edge">
<title>x16_0y_9_12&#45;&gt;x14_0y_9_12</title>
<path fill="none" stroke="black" d="M1205.36,-783C1195.46,-783 1074.2,-783 1062.85,-783"/>
</g>
<!-- x26_66y_14_18 -->
<g id="node51" class="node">
<title>x26_66y_14_18</title>
<ellipse fill="none" stroke="black" cx="1974" cy="-418.5" rx="0.5" ry="0.5"/>
</g>
<!-- x32_0y_14_18&#45;&gt;x26_66y_14_18 -->
<g id="edge42" class="edge">
<title>x32_0y_14_18&#45;&gt;x26_66y_14_18</title>
<path fill="none" stroke="black" d="M2357.38,-418.5C2340.61,-418.5 1990.97,-418.5 1974.59,-418.5"/>
</g>
<!-- x24_0y_14_18 -->
<g id="node50" class="node">
<title>x24_0y_14_18</title>
<ellipse fill="none" stroke="black" cx="1782" cy="-418.5" rx="0.5" ry="0.5"/>
</g>
<!-- x24_0y_14_18&#45;&gt;x24_0y_13_0 -->
<g id="edge45" class="edge">
<title>x24_0y_14_18&#45;&gt;x24_0y_13_0</title>
<path fill="none" stroke="black" d="M1782,-419.05C1782,-421.81 1782,-434.67 1782,-449.59"/>
</g>
<!-- x26_66y_14_18&#45;&gt;x26_66y_15_37 -->
<g id="edge46" class="edge">
<title>x26_66y_14_18&#45;&gt;x26_66y_15_37</title>
<path fill="none" stroke="black" d="M1974,-417.95C1974,-415.19 1974,-402.33 1974,-387.41"/>
</g>
<!-- x29_33y_14_18 -->
<g id="node52" class="node">
<title>x29_33y_14_18</title>
<ellipse fill="none" stroke="black" cx="2166" cy="-418.5" rx="0.5" ry="0.5"/>
</g>
<!-- x26_66y_14_18&#45;&gt;x29_33y_14_18 -->
<g id="edge43" class="edge">
<title>x26_66y_14_18&#45;&gt;x29_33y_14_18</title>
<path fill="none" stroke="black" d="M1974.55,-418.5C1985.46,-418.5 2154.9,-418.5 2165.48,-418.5"/>
</g>
<!-- x29_33y_14_18&#45;&gt;x29_33y_15_87 -->
<g id="edge47" class="edge">
<title>x29_33y_14_18&#45;&gt;x29_33y_15_87</title>
<path fill="none" stroke="black" d="M2166,-417.72C2166,-412.41 2166,-380.7 2166,-351.12"/>
</g>
<!-- x29_33y_14_18&#45;&gt;x24_0y_14_18 -->
<g id="edge44" class="edge">
<title>x29_33y_14_18&#45;&gt;x24_0y_14_18</title>
<path fill="none" stroke="black" d="M2165.38,-418.5C2148.61,-418.5 1798.97,-418.5 1782.59,-418.5"/>
</g>
<!-- x24_0y_11_43 -->
<g id="node55" class="node">
<title>x24_0y_11_43</title>
<ellipse fill="none" stroke="black" cx="1782" cy="-616.5" rx="0.5" ry="0.5"/>
</g>
<!-- x28_0y_11_43&#45;&gt;x24_0y_11_43 -->
<g id="edge49" class="edge">
<title>x28_0y_11_43&#45;&gt;x24_0y_11_43</title>
<path fill="none" stroke="black" d="M2069.17,-616.5C2052.81,-616.5 1798.65,-616.5 1782.78,-616.5"/>
</g>
<!-- x20_0y_11_43 -->
<g id="node54" class="node">
<title>x20_0y_11_43</title>
<ellipse fill="none" stroke="black" cx="1494" cy="-616.5" rx="0.5" ry="0.5"/>
</g>
<!-- x20_0y_11_43&#45;&gt;x20_0y_9_87 -->
<g id="edge51" class="edge">
<title>x20_0y_11_43&#45;&gt;x20_0y_9_87</title>
<path fill="none" stroke="black" d="M1494,-617.22C1494,-621.9 1494,-648.66 1494,-674.82"/>
</g>
<!-- x24_0y_11_43&#45;&gt;x24_0y_13_0 -->
<g id="edge52" class="edge">
<title>x24_0y_11_43&#45;&gt;x24_0y_13_0</title>
<path fill="none" stroke="black" d="M1782,-615.78C1782,-611.1 1782,-584.34 1782,-558.18"/>
</g>
<!-- x24_0y_11_43&#45;&gt;x20_0y_11_43 -->
<g id="edge50" class="edge">
<title>x24_0y_11_43&#45;&gt;x20_0y_11_43</title>
<path fill="none" stroke="black" d="M1781.17,-616.5C1764.81,-616.5 1510.65,-616.5 1494.78,-616.5"/>
</g>
<!-- x32_0y_11_37 -->
<g id="node58" class="node">
<title>x32_0y_11_37</title>
<ellipse fill="none" stroke="black" cx="2358" cy="-621" rx="0.5" ry="0.5"/>
</g>
<!-- x34_0y_11_37&#45;&gt;x32_0y_11_37 -->
<g id="edge54" class="edge">
<title>x34_0y_11_37&#45;&gt;x32_0y_11_37</title>
<path fill="none" stroke="black" d="M2501.36,-621C2491.46,-621 2370.2,-621 2358.85,-621"/>
</g>
<!-- x30_0y_11_37 -->
<g id="node57" class="node">
<title>x30_0y_11_37</title>
<ellipse fill="none" stroke="black" cx="2214" cy="-621" rx="0.5" ry="0.5"/>
</g>
<!-- x30_0y_11_37&#45;&gt;x30_0y_10_12 -->
<g id="edge56" class="edge">
<title>x30_0y_11_37&#45;&gt;x30_0y_10_12</title>
<path fill="none" stroke="black" d="M2214,-621.57C2214,-624.66 2214,-639.74 2214,-656.66"/>
</g>
<!-- x32_0y_11_37&#45;&gt;x32_0y_12_62 -->
<g id="edge57" class="edge">
<title>x32_0y_11_37&#45;&gt;x32_0y_12_62</title>
<path fill="none" stroke="black" d="M2358,-620.43C2358,-617.34 2358,-602.26 2358,-585.34"/>
</g>
<!-- x32_0y_11_37&#45;&gt;x30_0y_11_37 -->
<g id="edge55" class="edge">
<title>x32_0y_11_37&#45;&gt;x30_0y_11_37</title>
<path fill="none" stroke="black" d="M2357.36,-621C2347.46,-621 2226.2,-621 2214.85,-621"/>
</g>
</g>
</svg>
