<?xml version="1.0" encoding="UTF-8" standalone="no"?>
<!DOCTYPE svg PUBLIC "-//W3C//DTD SVG 1.1//EN"
 "http://www.w3.org/Graphics/SVG/1.1/DTD/svg11.dtd">
<!-- Generated by graphviz version 5.0.0 (20220707.1540)
 -->
<!-- Title: P Pages: 1 -->
<svg width="1412pt" height="1002pt"
 viewBox="0.00 0.00 1412.00 1002.00" xmlns="http://www.w3.org/2000/svg" xmlns:xlink="http://www.w3.org/1999/xlink">
<g id="graph0" class="graph" transform="scale(1 1) rotate(0) translate(4 998)">
<title>P</title>
<polygon fill="white" stroke="transparent" points="-4,4 -4,-998 1408,-998 1408,4 -4,4"/>
<!-- x18_0y_8_0 -->
<g id="node1" class="node">
<title>x18_0y_8_0</title>
<polygon fill="none" stroke="blue" points="1404,-641 1296,-641 1296,-533 1404,-533 1404,-641"/>
<text text-anchor="middle" x="1350" y="-590.2" font-family="Times,serif" font-size="11.00">Paul Dabudziak</text>
<text text-anchor="middle" x="1350" y="-578.2" font-family="Times,serif" font-size="11.00">1930</text>
</g>
<!-- x10_0y_5_59 -->
<g id="node2" class="node">
<title>x10_0y_5_59</title>
<polygon fill="none" stroke="blue" points="828,-813.8 720,-813.8 720,-705.8 828,-705.8 828,-813.8"/>
<text text-anchor="middle" x="774" y="-763" font-family="Times,serif" font-size="11.00">Willi Andert</text>
<text text-anchor="middle" x="774" y="-751" font-family="Times,serif" font-size="11.00">1906</text>
</g>
<!-- x4_0y_3_9 -->
<g id="node3" class="node">
<title>x4_0y_3_9</title>
<ellipse fill="none" stroke="pink" cx="342" cy="-939.8" rx="54" ry="54"/>
<text text-anchor="middle" x="342" y="-943" font-family="Times,serif" font-size="11.00">Marie Wendt</text>
<text text-anchor="middle" x="342" y="-931" font-family="Times,serif" font-size="11.00">1881</text>
</g>
<!-- x13_0y_10_39 -->
<g id="node4" class="node">
<title>x13_0y_10_39</title>
<ellipse fill="none" stroke="pink" cx="990" cy="-414.2" rx="54" ry="54"/>
<text text-anchor="middle" x="990" y="-417.4" font-family="Times,serif" font-size="11.00">Gabi Kosin</text>
<text text-anchor="middle" x="990" y="-405.4" font-family="Times,serif" font-size="11.00">1954</text>
</g>
<!-- x13_0y_11_35 -->
<g id="node39" class="node">
<title>x13_0y_11_35</title>
<ellipse fill="none" stroke="black" cx="990" cy="-345.8" rx="0.5" ry="0.5"/>
</g>
<!-- x13_0y_10_39&#45;&gt;x13_0y_11_35 -->
<g id="edge31" class="edge">
<title>x13_0y_10_39&#45;&gt;x13_0y_11_35</title>
<path fill="none" stroke="black" d="M990,-359.97C990,-353.23 990,-348.09 990,-346.4"/>
</g>
<!-- x5_0y_5_59 -->
<g id="node5" class="node">
<title>x5_0y_5_59</title>
<polygon fill="none" stroke="blue" points="468,-813.8 360,-813.8 360,-705.8 468,-705.8 468,-813.8"/>
<text text-anchor="middle" x="414" y="-763" font-family="Times,serif" font-size="11.00">Adolf Wendt</text>
<text text-anchor="middle" x="414" y="-751" font-family="Times,serif" font-size="11.00">1906</text>
</g>
<!-- x1_0y_6_39 -->
<g id="node6" class="node">
<title>x1_0y_6_39</title>
<ellipse fill="none" stroke="pink" cx="126" cy="-702.2" rx="54" ry="54"/>
<text text-anchor="middle" x="126" y="-705.4" font-family="Times,serif" font-size="11.00">Gertrud Wendt</text>
<text text-anchor="middle" x="126" y="-693.4" font-family="Times,serif" font-size="11.00">1914</text>
</g>
<!-- x1_0y_8_10 -->
<g id="node24" class="node">
<title>x1_0y_8_10</title>
<ellipse fill="none" stroke="black" cx="126" cy="-579.8" rx="0.5" ry="0.5"/>
</g>
<!-- x1_0y_6_39&#45;&gt;x1_0y_8_10 -->
<g id="edge6" class="edge">
<title>x1_0y_6_39&#45;&gt;x1_0y_8_10</title>
<path fill="none" stroke="black" d="M126,-648.16C126,-618.44 126,-586.44 126,-580.71"/>
</g>
<!-- x8_0y_5_50 -->
<g id="node7" class="node">
<title>x8_0y_5_50</title>
<ellipse fill="none" stroke="pink" cx="630" cy="-767" rx="54" ry="54"/>
<text text-anchor="middle" x="630" y="-770.2" font-family="Times,serif" font-size="11.00">Gertrud Andert</text>
<text text-anchor="middle" x="630" y="-758.2" font-family="Times,serif" font-size="11.00">1905</text>
</g>
<!-- x8_0y_7_30 -->
<g id="node27" class="node">
<title>x8_0y_7_30</title>
<ellipse fill="none" stroke="black" cx="630" cy="-637.4" rx="0.5" ry="0.5"/>
</g>
<!-- x8_0y_5_50&#45;&gt;x8_0y_7_30 -->
<g id="edge11" class="edge">
<title>x8_0y_5_50&#45;&gt;x8_0y_7_30</title>
<path fill="none" stroke="black" d="M630,-712.79C630,-680.05 630,-643.6 630,-638.11"/>
</g>
<!-- x2_0y_3_89 -->
<g id="node8" class="node">
<title>x2_0y_3_89</title>
<polygon fill="none" stroke="blue" points="252,-936.2 144,-936.2 144,-828.2 252,-828.2 252,-936.2"/>
<text text-anchor="middle" x="198" y="-885.4" font-family="Times,serif" font-size="11.00">Wilhelm Polz</text>
<text text-anchor="middle" x="198" y="-873.4" font-family="Times,serif" font-size="11.00">1889</text>
</g>
<!-- x9_0y_9_0 -->
<g id="node9" class="node">
<title>x9_0y_9_0</title>
<polygon fill="none" stroke="blue" points="756,-569 648,-569 648,-461 756,-461 756,-569"/>
<text text-anchor="middle" x="702" y="-518.2" font-family="Times,serif" font-size="11.00">Rudi Horst Andert</text>
<text text-anchor="middle" x="702" y="-506.2" font-family="Times,serif" font-size="11.00">1940</text>
</g>
<!-- x14_0y_7_90 -->
<g id="node10" class="node">
<title>x14_0y_7_90</title>
<polygon fill="none" stroke="blue" points="1116,-648.2 1008,-648.2 1008,-540.2 1116,-540.2 1116,-648.2"/>
<text text-anchor="middle" x="1062" y="-597.4" font-family="Times,serif" font-size="11.00">Siegfried Ganzler</text>
<text text-anchor="middle" x="1062" y="-585.4" font-family="Times,serif" font-size="11.00">1929</text>
</g>
<!-- x12_0y_7_90 -->
<g id="node11" class="node">
<title>x12_0y_7_90</title>
<ellipse fill="none" stroke="pink" cx="918" cy="-594.2" rx="54" ry="54"/>
<text text-anchor="middle" x="918" y="-597.4" font-family="Times,serif" font-size="11.00">Erika Ganzler</text>
<text text-anchor="middle" x="918" y="-585.4" font-family="Times,serif" font-size="11.00">1929</text>
</g>
<!-- x12_0y_9_14 -->
<g id="node30" class="node">
<title>x12_0y_9_14</title>
<ellipse fill="none" stroke="black" cx="918" cy="-504.2" rx="0.5" ry="0.5"/>
</g>
<!-- x12_0y_7_90&#45;&gt;x12_0y_9_14 -->
<g id="edge16" class="edge">
<title>x12_0y_7_90&#45;&gt;x12_0y_9_14</title>
<path fill="none" stroke="black" d="M918,-540.03C918,-523.35 918,-508.43 918,-504.96"/>
</g>
<!-- x3_0y_9_80 -->
<g id="node12" class="node">
<title>x3_0y_9_80</title>
<ellipse fill="none" stroke="pink" cx="270" cy="-457.4" rx="54" ry="54"/>
<text text-anchor="middle" x="270" y="-466.6" font-family="Times,serif" font-size="11.00">Edith Inge</text>
<text text-anchor="middle" x="270" y="-454.6" font-family="Times,serif" font-size="11.00">Gertrud Andert </text>
<text text-anchor="middle" x="270" y="-442.6" font-family="Times,serif" font-size="11.00">1948</text>
</g>
<!-- x3_0y_11_25 -->
<g id="node36" class="node">
<title>x3_0y_11_25</title>
<ellipse fill="none" stroke="black" cx="270" cy="-353" rx="0.5" ry="0.5"/>
</g>
<!-- x3_0y_9_80&#45;&gt;x3_0y_11_25 -->
<g id="edge26" class="edge">
<title>x3_0y_9_80&#45;&gt;x3_0y_11_25</title>
<path fill="none" stroke="black" d="M270,-403.37C270,-380.28 270,-357.67 270,-353.64"/>
</g>
<!-- x9_0y_15_19 -->
<g id="node13" class="node">
<title>x9_0y_15_19</title>
<polygon fill="none" stroke="blue" points="756,-122.6 648,-122.6 648,-14.6 756,-14.6 756,-122.6"/>
<text text-anchor="middle" x="702" y="-71.8" font-family="Times,serif" font-size="11.00">Paul Randy Andert</text>
<text text-anchor="middle" x="702" y="-59.8" font-family="Times,serif" font-size="11.00">2002</text>
</g>
<!-- x12_0y_15_39 -->
<g id="node14" class="node">
<title>x12_0y_15_39</title>
<polygon fill="none" stroke="blue" points="972,-108.2 864,-108.2 864,-0.2 972,-0.2 972,-108.2"/>
<text text-anchor="middle" x="918" y="-57.4" font-family="Times,serif" font-size="11.00">Ben Rudi Andert</text>
<text text-anchor="middle" x="918" y="-45.4" font-family="Times,serif" font-size="11.00">2004</text>
</g>
<!-- x17_0y_10_10 -->
<g id="node15" class="node">
<title>x17_0y_10_10</title>
<polygon fill="none" stroke="blue" points="1332,-489.8 1224,-489.8 1224,-381.8 1332,-381.8 1332,-489.8"/>
<text text-anchor="middle" x="1278" y="-439" font-family="Times,serif" font-size="11.00">Rainer Dabudziak</text>
<text text-anchor="middle" x="1278" y="-427" font-family="Times,serif" font-size="11.00">1951</text>
</g>
<!-- x15_0y_12_30 -->
<g id="node16" class="node">
<title>x15_0y_12_30</title>
<polygon fill="none" stroke="blue" points="1188,-331.4 1080,-331.4 1080,-223.4 1188,-223.4 1188,-331.4"/>
<text text-anchor="middle" x="1134" y="-280.6" font-family="Times,serif" font-size="11.00">Randy Andert</text>
<text text-anchor="middle" x="1134" y="-268.6" font-family="Times,serif" font-size="11.00">1973</text>
</g>
<!-- x0_0y_3_89 -->
<g id="node17" class="node">
<title>x0_0y_3_89</title>
<ellipse fill="none" stroke="pink" cx="54" cy="-882.2" rx="54" ry="54"/>
<text text-anchor="middle" x="54" y="-885.4" font-family="Times,serif" font-size="11.00">Marie Polz</text>
<text text-anchor="middle" x="54" y="-873.4" font-family="Times,serif" font-size="11.00">1889</text>
</g>
<!-- x0_0y_5_14 -->
<g id="node21" class="node">
<title>x0_0y_5_14</title>
<ellipse fill="none" stroke="black" cx="54" cy="-792.2" rx="0.5" ry="0.5"/>
</g>
<!-- x0_0y_3_89&#45;&gt;x0_0y_5_14 -->
<g id="edge1" class="edge">
<title>x0_0y_3_89&#45;&gt;x0_0y_5_14</title>
<path fill="none" stroke="black" d="M54,-828.03C54,-811.35 54,-796.43 54,-792.96"/>
</g>
<!-- x16_0y_8_10 -->
<g id="node18" class="node">
<title>x16_0y_8_10</title>
<ellipse fill="none" stroke="pink" cx="1206" cy="-579.8" rx="54" ry="54"/>
<text text-anchor="middle" x="1206" y="-583" font-family="Times,serif" font-size="11.00">Irene Dabudziak</text>
<text text-anchor="middle" x="1206" y="-571" font-family="Times,serif" font-size="11.00">1931</text>
</g>
<!-- x16_0y_9_10 -->
<g id="node33" class="node">
<title>x16_0y_9_10</title>
<ellipse fill="none" stroke="black" cx="1206" cy="-507.8" rx="0.5" ry="0.5"/>
</g>
<!-- x16_0y_8_10&#45;&gt;x16_0y_9_10 -->
<g id="edge21" class="edge">
<title>x16_0y_8_10&#45;&gt;x16_0y_9_10</title>
<path fill="none" stroke="black" d="M1206,-525.6C1206,-517.29 1206,-510.73 1206,-508.57"/>
</g>
<!-- x6_0y_12_69 -->
<g id="node19" class="node">
<title>x6_0y_12_69</title>
<ellipse fill="none" stroke="pink" cx="486" cy="-248.6" rx="54" ry="54"/>
<text text-anchor="middle" x="486" y="-251.8" font-family="Times,serif" font-size="11.00">Silvia Andert</text>
<text text-anchor="middle" x="486" y="-239.8" font-family="Times,serif" font-size="11.00">1977</text>
</g>
<!-- x6_0y_14_4 -->
<g id="node42" class="node">
<title>x6_0y_14_4</title>
<ellipse fill="none" stroke="black" cx="486" cy="-151.4" rx="0.5" ry="0.5"/>
</g>
<!-- x6_0y_12_69&#45;&gt;x6_0y_14_4 -->
<g id="edge36" class="edge">
<title>x6_0y_12_69&#45;&gt;x6_0y_14_4</title>
<path fill="none" stroke="black" d="M486,-194.6C486,-174.32 486,-155.32 486,-151.93"/>
</g>
<!-- x6_0y_3_9 -->
<g id="node20" class="node">
<title>x6_0y_3_9</title>
<polygon fill="none" stroke="grey" points="540,-993.8 432,-993.8 432,-885.8 540,-885.8 540,-993.8"/>
<text text-anchor="middle" x="486" y="-943" font-family="Times,serif" font-size="11.00">Unknown &#160;</text>
<text text-anchor="middle" x="486" y="-931" font-family="Times,serif" font-size="11.00">1881</text>
</g>
<!-- x1_0y_5_14 -->
<g id="node23" class="node">
<title>x1_0y_5_14</title>
<ellipse fill="none" stroke="black" cx="126" cy="-792.2" rx="0.5" ry="0.5"/>
</g>
<!-- x0_0y_5_14&#45;&gt;x1_0y_5_14 -->
<g id="edge2" class="edge">
<title>x0_0y_5_14&#45;&gt;x1_0y_5_14</title>
<path fill="none" stroke="black" d="M54.81,-792.2C62.22,-792.2 118.31,-792.2 125.29,-792.2"/>
</g>
<!-- x2_0y_5_14 -->
<g id="node22" class="node">
<title>x2_0y_5_14</title>
<ellipse fill="none" stroke="black" cx="198" cy="-792.2" rx="0.5" ry="0.5"/>
</g>
<!-- x2_0y_5_14&#45;&gt;x2_0y_3_89 -->
<g id="edge4" class="edge">
<title>x2_0y_5_14&#45;&gt;x2_0y_3_89</title>
<path fill="none" stroke="black" d="M198,-792.77C198,-795.86 198,-810.94 198,-827.86"/>
</g>
<!-- x1_0y_5_14&#45;&gt;x1_0y_6_39 -->
<g id="edge5" class="edge">
<title>x1_0y_5_14&#45;&gt;x1_0y_6_39</title>
<path fill="none" stroke="black" d="M126,-791.63C126,-788.54 126,-773.46 126,-756.54"/>
</g>
<!-- x1_0y_5_14&#45;&gt;x2_0y_5_14 -->
<g id="edge3" class="edge">
<title>x1_0y_5_14&#45;&gt;x2_0y_5_14</title>
<path fill="none" stroke="black" d="M126.81,-792.2C134.22,-792.2 190.31,-792.2 197.29,-792.2"/>
</g>
<!-- x3_0y_8_10 -->
<g id="node26" class="node">
<title>x3_0y_8_10</title>
<ellipse fill="none" stroke="black" cx="270" cy="-579.8" rx="0.5" ry="0.5"/>
</g>
<!-- x1_0y_8_10&#45;&gt;x3_0y_8_10 -->
<g id="edge7" class="edge">
<title>x1_0y_8_10&#45;&gt;x3_0y_8_10</title>
<path fill="none" stroke="black" d="M126.64,-579.8C136.54,-579.8 257.8,-579.8 269.15,-579.8"/>
</g>
<!-- x5_0y_8_10 -->
<g id="node25" class="node">
<title>x5_0y_8_10</title>
<ellipse fill="none" stroke="black" cx="414" cy="-579.8" rx="0.5" ry="0.5"/>
</g>
<!-- x5_0y_8_10&#45;&gt;x5_0y_5_59 -->
<g id="edge9" class="edge">
<title>x5_0y_8_10&#45;&gt;x5_0y_5_59</title>
<path fill="none" stroke="black" d="M414,-580.32C414,-586.92 414,-655.38 414,-705.79"/>
</g>
<!-- x3_0y_8_10&#45;&gt;x3_0y_9_80 -->
<g id="edge10" class="edge">
<title>x3_0y_8_10&#45;&gt;x3_0y_9_80</title>
<path fill="none" stroke="black" d="M270,-579.02C270,-573.64 270,-541.48 270,-511.58"/>
</g>
<!-- x3_0y_8_10&#45;&gt;x5_0y_8_10 -->
<g id="edge8" class="edge">
<title>x3_0y_8_10&#45;&gt;x5_0y_8_10</title>
<path fill="none" stroke="black" d="M270.64,-579.8C280.54,-579.8 401.8,-579.8 413.15,-579.8"/>
</g>
<!-- x9_0y_7_30 -->
<g id="node29" class="node">
<title>x9_0y_7_30</title>
<ellipse fill="none" stroke="black" cx="702" cy="-637.4" rx="0.5" ry="0.5"/>
</g>
<!-- x8_0y_7_30&#45;&gt;x9_0y_7_30 -->
<g id="edge12" class="edge">
<title>x8_0y_7_30&#45;&gt;x9_0y_7_30</title>
<path fill="none" stroke="black" d="M630.81,-637.4C638.22,-637.4 694.31,-637.4 701.29,-637.4"/>
</g>
<!-- x10_0y_7_30 -->
<g id="node28" class="node">
<title>x10_0y_7_30</title>
<ellipse fill="none" stroke="black" cx="774" cy="-637.4" rx="0.5" ry="0.5"/>
</g>
<!-- x10_0y_7_30&#45;&gt;x10_0y_5_59 -->
<g id="edge14" class="edge">
<title>x10_0y_7_30&#45;&gt;x10_0y_5_59</title>
<path fill="none" stroke="black" d="M774,-638.18C774,-643.56 774,-675.72 774,-705.62"/>
</g>
<!-- x9_0y_7_30&#45;&gt;x9_0y_9_0 -->
<g id="edge15" class="edge">
<title>x9_0y_7_30&#45;&gt;x9_0y_9_0</title>
<path fill="none" stroke="black" d="M702,-636.62C702,-631.24 702,-599.08 702,-569.18"/>
</g>
<!-- x9_0y_7_30&#45;&gt;x10_0y_7_30 -->
<g id="edge13" class="edge">
<title>x9_0y_7_30&#45;&gt;x10_0y_7_30</title>
<path fill="none" stroke="black" d="M702.81,-637.4C710.22,-637.4 766.31,-637.4 773.29,-637.4"/>
</g>
<!-- x13_0y_9_14 -->
<g id="node32" class="node">
<title>x13_0y_9_14</title>
<ellipse fill="none" stroke="black" cx="990" cy="-504.2" rx="0.5" ry="0.5"/>
</g>
<!-- x12_0y_9_14&#45;&gt;x13_0y_9_14 -->
<g id="edge17" class="edge">
<title>x12_0y_9_14&#45;&gt;x13_0y_9_14</title>
<path fill="none" stroke="black" d="M918.81,-504.2C926.22,-504.2 982.31,-504.2 989.29,-504.2"/>
</g>
<!-- x14_0y_9_14 -->
<g id="node31" class="node">
<title>x14_0y_9_14</title>
<ellipse fill="none" stroke="black" cx="1062" cy="-504.2" rx="0.5" ry="0.5"/>
</g>
<!-- x14_0y_9_14&#45;&gt;x14_0y_7_90 -->
<g id="edge19" class="edge">
<title>x14_0y_9_14&#45;&gt;x14_0y_7_90</title>
<path fill="none" stroke="black" d="M1062,-504.77C1062,-507.86 1062,-522.94 1062,-539.86"/>
</g>
<!-- x13_0y_9_14&#45;&gt;x13_0y_10_39 -->
<g id="edge20" class="edge">
<title>x13_0y_9_14&#45;&gt;x13_0y_10_39</title>
<path fill="none" stroke="black" d="M990,-503.63C990,-500.54 990,-485.46 990,-468.54"/>
</g>
<!-- x13_0y_9_14&#45;&gt;x14_0y_9_14 -->
<g id="edge18" class="edge">
<title>x13_0y_9_14&#45;&gt;x14_0y_9_14</title>
<path fill="none" stroke="black" d="M990.81,-504.2C998.22,-504.2 1054.31,-504.2 1061.29,-504.2"/>
</g>
<!-- x17_0y_9_10 -->
<g id="node35" class="node">
<title>x17_0y_9_10</title>
<ellipse fill="none" stroke="black" cx="1278" cy="-507.8" rx="0.5" ry="0.5"/>
</g>
<!-- x16_0y_9_10&#45;&gt;x17_0y_9_10 -->
<g id="edge22" class="edge">
<title>x16_0y_9_10&#45;&gt;x17_0y_9_10</title>
<path fill="none" stroke="black" d="M1206.81,-507.8C1214.22,-507.8 1270.31,-507.8 1277.29,-507.8"/>
</g>
<!-- x18_0y_9_10 -->
<g id="node34" class="node">
<title>x18_0y_9_10</title>
<ellipse fill="none" stroke="black" cx="1350" cy="-507.8" rx="0.5" ry="0.5"/>
</g>
<!-- x18_0y_9_10&#45;&gt;x18_0y_8_0 -->
<g id="edge24" class="edge">
<title>x18_0y_9_10&#45;&gt;x18_0y_8_0</title>
<path fill="none" stroke="black" d="M1350,-508.31C1350,-510.62 1350,-520.65 1350,-532.81"/>
</g>
<!-- x17_0y_9_10&#45;&gt;x17_0y_10_10 -->
<g id="edge25" class="edge">
<title>x17_0y_9_10&#45;&gt;x17_0y_10_10</title>
<path fill="none" stroke="black" d="M1278,-506.99C1278,-504.77 1278,-498.16 1278,-489.82"/>
</g>
<!-- x17_0y_9_10&#45;&gt;x18_0y_9_10 -->
<g id="edge23" class="edge">
<title>x17_0y_9_10&#45;&gt;x18_0y_9_10</title>
<path fill="none" stroke="black" d="M1278.81,-507.8C1286.22,-507.8 1342.31,-507.8 1349.29,-507.8"/>
</g>
<!-- x6_0y_11_25 -->
<g id="node38" class="node">
<title>x6_0y_11_25</title>
<ellipse fill="none" stroke="black" cx="486" cy="-353" rx="0.5" ry="0.5"/>
</g>
<!-- x3_0y_11_25&#45;&gt;x6_0y_11_25 -->
<g id="edge27" class="edge">
<title>x3_0y_11_25&#45;&gt;x6_0y_11_25</title>
<path fill="none" stroke="black" d="M270.62,-353C282.89,-353 473.52,-353 485.42,-353"/>
</g>
<!-- x9_0y_11_25 -->
<g id="node37" class="node">
<title>x9_0y_11_25</title>
<ellipse fill="none" stroke="black" cx="702" cy="-353" rx="0.5" ry="0.5"/>
</g>
<!-- x9_0y_11_25&#45;&gt;x9_0y_9_0 -->
<g id="edge29" class="edge">
<title>x9_0y_11_25&#45;&gt;x9_0y_9_0</title>
<path fill="none" stroke="black" d="M702,-353.72C702,-360.68 702,-416.58 702,-460.64"/>
</g>
<!-- x6_0y_11_25&#45;&gt;x6_0y_12_69 -->
<g id="edge30" class="edge">
<title>x6_0y_11_25&#45;&gt;x6_0y_12_69</title>
<path fill="none" stroke="black" d="M486,-352.33C486,-348.22 486,-325.69 486,-302.67"/>
</g>
<!-- x6_0y_11_25&#45;&gt;x9_0y_11_25 -->
<g id="edge28" class="edge">
<title>x6_0y_11_25&#45;&gt;x9_0y_11_25</title>
<path fill="none" stroke="black" d="M486.62,-353C498.89,-353 689.52,-353 701.42,-353"/>
</g>
<!-- x15_0y_11_35 -->
<g id="node41" class="node">
<title>x15_0y_11_35</title>
<ellipse fill="none" stroke="black" cx="1134" cy="-345.8" rx="0.5" ry="0.5"/>
</g>
<!-- x13_0y_11_35&#45;&gt;x15_0y_11_35 -->
<g id="edge32" class="edge">
<title>x13_0y_11_35&#45;&gt;x15_0y_11_35</title>
<path fill="none" stroke="black" d="M990.64,-345.8C1000.54,-345.8 1121.8,-345.8 1133.15,-345.8"/>
</g>
<!-- x17_0y_11_35 -->
<g id="node40" class="node">
<title>x17_0y_11_35</title>
<ellipse fill="none" stroke="black" cx="1278" cy="-345.8" rx="0.5" ry="0.5"/>
</g>
<!-- x17_0y_11_35&#45;&gt;x17_0y_10_10 -->
<g id="edge34" class="edge">
<title>x17_0y_11_35&#45;&gt;x17_0y_10_10</title>
<path fill="none" stroke="black" d="M1278,-346.37C1278,-349.46 1278,-364.54 1278,-381.46"/>
</g>
<!-- x15_0y_11_35&#45;&gt;x15_0y_12_30 -->
<g id="edge35" class="edge">
<title>x15_0y_11_35&#45;&gt;x15_0y_12_30</title>
<path fill="none" stroke="black" d="M1134,-345.03C1134,-343.18 1134,-338.15 1134,-331.61"/>
</g>
<!-- x15_0y_11_35&#45;&gt;x17_0y_11_35 -->
<g id="edge33" class="edge">
<title>x15_0y_11_35&#45;&gt;x17_0y_11_35</title>
<path fill="none" stroke="black" d="M1134.64,-345.8C1144.54,-345.8 1265.8,-345.8 1277.15,-345.8"/>
</g>
<!-- x9_0y_14_4 -->
<g id="node44" class="node">
<title>x9_0y_14_4</title>
<ellipse fill="none" stroke="black" cx="702" cy="-151.4" rx="0.5" ry="0.5"/>
</g>
<!-- x6_0y_14_4&#45;&gt;x9_0y_14_4 -->
<g id="edge37" class="edge">
<title>x6_0y_14_4&#45;&gt;x9_0y_14_4</title>
<path fill="none" stroke="black" d="M486.62,-151.4C498.89,-151.4 689.52,-151.4 701.42,-151.4"/>
</g>
<!-- x15_0y_14_4 -->
<g id="node43" class="node">
<title>x15_0y_14_4</title>
<ellipse fill="none" stroke="black" cx="1134" cy="-151.4" rx="0.5" ry="0.5"/>
</g>
<!-- x15_0y_14_4&#45;&gt;x15_0y_12_30 -->
<g id="edge40" class="edge">
<title>x15_0y_14_4&#45;&gt;x15_0y_12_30</title>
<path fill="none" stroke="black" d="M1134,-152.2C1134,-157.84 1134,-192.11 1134,-223.38"/>
</g>
<!-- x9_0y_14_4&#45;&gt;x9_0y_15_19 -->
<g id="edge41" class="edge">
<title>x9_0y_14_4&#45;&gt;x9_0y_15_19</title>
<path fill="none" stroke="black" d="M702,-150.87C702,-148.28 702,-136.5 702,-122.63"/>
</g>
<!-- x12_0y_14_4 -->
<g id="node45" class="node">
<title>x12_0y_14_4</title>
<ellipse fill="none" stroke="black" cx="918" cy="-151.4" rx="0.5" ry="0.5"/>
</g>
<!-- x9_0y_14_4&#45;&gt;x12_0y_14_4 -->
<g id="edge38" class="edge">
<title>x9_0y_14_4&#45;&gt;x12_0y_14_4</title>
<path fill="none" stroke="black" d="M702.62,-151.4C714.89,-151.4 905.52,-151.4 917.42,-151.4"/>
</g>
<!-- x12_0y_14_4&#45;&gt;x12_0y_15_39 -->
<g id="edge42" class="edge">
<title>x12_0y_14_4&#45;&gt;x12_0y_15_39</title>
<path fill="none" stroke="black" d="M918,-150.78C918,-147.17 918,-128.39 918,-108.33"/>
</g>
<!-- x12_0y_14_4&#45;&gt;x15_0y_14_4 -->
<g id="edge39" class="edge">
<title>x12_0y_14_4&#45;&gt;x15_0y_14_4</title>
<path fill="none" stroke="black" d="M918.62,-151.4C930.89,-151.4 1121.52,-151.4 1133.42,-151.4"/>
</g>
</g>
</svg>
