<?xml version="1.0" encoding="UTF-8" standalone="no"?>
<!DOCTYPE svg PUBLIC "-//W3C//DTD SVG 1.1//EN"
 "http://www.w3.org/Graphics/SVG/1.1/DTD/svg11.dtd">
<!-- Generated by graphviz version 5.0.0 (20220707.1540)
 -->
<!-- Title: P Pages: 1 -->
<svg width="404pt" height="260pt"
 viewBox="0.00 0.00 404.00 260.00" xmlns="http://www.w3.org/2000/svg" xmlns:xlink="http://www.w3.org/1999/xlink">
<g id="graph0" class="graph" transform="scale(1 1) rotate(0) translate(4 256)">
<title>P</title>
<polygon fill="white" stroke="transparent" points="-4,4 -4,-256 400,-256 400,4 -4,4"/>
<!-- x0y0 -->
<g id="node1" class="node">
<title>x0y0</title>
<polygon fill="none" stroke="blue" points="252,-108 144,-108 144,0 252,0 252,-108"/>
<text text-anchor="middle" x="198" y="-51.2" font-family="Times,serif" font-size="11.00">Paul Randy Andert</text>
</g>
<!-- x0y1 -->
<g id="node2" class="node">
<title>x0y1</title>
<ellipse fill="none" stroke="black" cx="198" cy="-126" rx="0.5" ry="0.5"/>
</g>
<!-- x0y1&#45;&gt;x0y0 -->
<g id="edge5" class="edge">
<title>x0y1&#45;&gt;x0y0</title>
<path fill="none" stroke="black" d="M198,-125.19C198,-122.97 198,-116.36 198,-108.02"/>
</g>
<!-- x2y1 -->
<g id="node6" class="node">
<title>x2y1</title>
<ellipse fill="none" stroke="black" cx="342" cy="-126" rx="0.5" ry="0.5"/>
</g>
<!-- x0y1&#45;&gt;x2y1 -->
<g id="edge3" class="edge">
<title>x0y1&#45;&gt;x2y1</title>
<path fill="none" stroke="black" d="M198.64,-126C208.54,-126 329.8,-126 341.15,-126"/>
</g>
<!-- x_2y2 -->
<g id="node3" class="node">
<title>x_2y2</title>
<polygon fill="none" stroke="blue" points="108,-252 0,-252 0,-144 108,-144 108,-252"/>
<text text-anchor="middle" x="54" y="-195.2" font-family="Times,serif" font-size="11.00">Randy Andert</text>
</g>
<!-- x_2y1 -->
<g id="node4" class="node">
<title>x_2y1</title>
<ellipse fill="none" stroke="black" cx="54" cy="-126" rx="0.5" ry="0.5"/>
</g>
<!-- x_2y2&#45;&gt;x_2y1 -->
<g id="edge1" class="edge">
<title>x_2y2&#45;&gt;x_2y1</title>
<path fill="none" stroke="black" d="M54,-143.8C54,-135.49 54,-128.93 54,-126.77"/>
</g>
<!-- x_2y1&#45;&gt;x0y1 -->
<g id="edge2" class="edge">
<title>x_2y1&#45;&gt;x0y1</title>
<path fill="none" stroke="black" d="M54.64,-126C64.54,-126 185.8,-126 197.15,-126"/>
</g>
<!-- x2y2 -->
<g id="node5" class="node">
<title>x2y2</title>
<ellipse fill="none" stroke="pink" cx="342" cy="-198" rx="54" ry="54"/>
<text text-anchor="middle" x="342" y="-195.2" font-family="Times,serif" font-size="11.00">Silvia Andert</text>
</g>
<!-- x2y1&#45;&gt;x2y2 -->
<g id="edge4" class="edge">
<title>x2y1&#45;&gt;x2y2</title>
<path fill="none" stroke="black" d="M342,-126.81C342,-129.03 342,-135.64 342,-143.98"/>
</g>
</g>
</svg>
