<?xml version="1.0" encoding="UTF-8" standalone="no"?>
<!DOCTYPE svg PUBLIC "-//W3C//DTD SVG 1.1//EN"
 "http://www.w3.org/Graphics/SVG/1.1/DTD/svg11.dtd">
<!-- Generated by graphviz version 5.0.0 (20220707.1540)
 -->
<!-- Title: P Pages: 1 -->
<svg width="3519pt" height="1223pt"
 viewBox="0.00 0.00 3519.00 1223.00" xmlns="http://www.w3.org/2000/svg" xmlns:xlink="http://www.w3.org/1999/xlink">
<g id="graph0" class="graph" transform="scale(1 1) rotate(0) translate(4 1219)">
<title>P</title>
<polygon fill="white" stroke="transparent" points="-4,4 -4,-1219 3515,-1219 3515,4 -4,4"/>
<!-- x25_61y_19_25 -->
<g id="node1" class="node">
<title>x25_61y_19_25</title>
<polygon fill="none" stroke="blue" points="2240,-108 2132,-108 2132,0 2240,0 2240,-108"/>
<text text-anchor="middle" x="2186" y="-57.2" font-family="Times,serif" font-size="11.00">Ben Rudi Andert</text>
<text text-anchor="middle" x="2186" y="-45.2" font-family="Times,serif" font-size="11.00">2004</text>
</g>
<!-- x22_0y_11_25 -->
<g id="node2" class="node">
<title>x22_0y_11_25</title>
<polygon fill="none" stroke="blue" points="1980,-684 1872,-684 1872,-576 1980,-576 1980,-684"/>
<text text-anchor="middle" x="1926" y="-633.2" font-family="Times,serif" font-size="11.00">Rudi Horst Andert</text>
<text text-anchor="middle" x="1926" y="-621.2" font-family="Times,serif" font-size="11.00">1940</text>
</g>
<!-- x22_0y_13_75 -->
<g id="node35" class="node">
<title>x22_0y_13_75</title>
<ellipse fill="none" stroke="black" cx="1926" cy="-450" rx="0.5" ry="0.5"/>
</g>
<!-- x22_0y_11_25&#45;&gt;x22_0y_13_75 -->
<g id="edge10" class="edge">
<title>x22_0y_11_25&#45;&gt;x22_0y_13_75</title>
<path fill="none" stroke="black" d="M1926,-575.99C1926,-526.29 1926,-459.04 1926,-450.83"/>
</g>
<!-- x12_0y_4_87 -->
<g id="node3" class="node">
<title>x12_0y_4_87</title>
<polygon fill="none" stroke="blue" points="1260,-1143 1152,-1143 1152,-1035 1260,-1035 1260,-1143"/>
<text text-anchor="middle" x="1206" y="-1092.2" font-family="Times,serif" font-size="11.00">Wilhelm Polz</text>
<text text-anchor="middle" x="1206" y="-1080.2" font-family="Times,serif" font-size="11.00">Unknown</text>
</g>
<!-- x12_0y_6_43 -->
<g id="node44" class="node">
<title>x12_0y_6_43</title>
<ellipse fill="none" stroke="black" cx="1206" cy="-976.5" rx="0.5" ry="0.5"/>
</g>
<!-- x12_0y_4_87&#45;&gt;x12_0y_6_43 -->
<g id="edge26" class="edge">
<title>x12_0y_4_87&#45;&gt;x12_0y_6_43</title>
<path fill="none" stroke="black" d="M1206,-1034.73C1206,-1008.66 1206,-982.02 1206,-977.25"/>
</g>
<!-- x20_0y_6_87 -->
<g id="node4" class="node">
<title>x20_0y_6_87</title>
<ellipse fill="none" stroke="pink" cx="1782" cy="-945" rx="54" ry="54"/>
<text text-anchor="middle" x="1782" y="-948.2" font-family="Times,serif" font-size="11.00">Gertrud Andert</text>
<text text-anchor="middle" x="1782" y="-936.2" font-family="Times,serif" font-size="11.00">1905</text>
</g>
<!-- x36_0y_10_12 -->
<g id="node5" class="node">
<title>x36_0y_10_12</title>
<ellipse fill="none" stroke="pink" cx="2934" cy="-711" rx="54" ry="54"/>
<text text-anchor="middle" x="2934" y="-714.2" font-family="Times,serif" font-size="11.00">Irene Dabudziak</text>
<text text-anchor="middle" x="2934" y="-702.2" font-family="Times,serif" font-size="11.00">1931</text>
</g>
<!-- x30_0y_13_0 -->
<g id="node6" class="node">
<title>x30_0y_13_0</title>
<ellipse fill="none" stroke="pink" cx="2502" cy="-504" rx="54" ry="54"/>
<text text-anchor="middle" x="2502" y="-507.2" font-family="Times,serif" font-size="11.00">Gabi Kosin</text>
<text text-anchor="middle" x="2502" y="-495.2" font-family="Times,serif" font-size="11.00">1954</text>
</g>
<!-- x24_0y_7_0 -->
<g id="node7" class="node">
<title>x24_0y_7_0</title>
<polygon fill="none" stroke="blue" points="2124,-990 2016,-990 2016,-882 2124,-882 2124,-990"/>
<text text-anchor="middle" x="2070" y="-939.2" font-family="Times,serif" font-size="11.00">Willi Andert</text>
<text text-anchor="middle" x="2070" y="-927.2" font-family="Times,serif" font-size="11.00">1906</text>
</g>
<!-- x24_0y_9_12 -->
<g id="node52" class="node">
<title>x24_0y_9_12</title>
<ellipse fill="none" stroke="black" cx="2070" cy="-783" rx="0.5" ry="0.5"/>
</g>
<!-- x24_0y_7_0&#45;&gt;x24_0y_9_12 -->
<g id="edge40" class="edge">
<title>x24_0y_7_0&#45;&gt;x24_0y_9_12</title>
<path fill="none" stroke="black" d="M2070,-881.63C2070,-840.4 2070,-789.79 2070,-783.62"/>
</g>
<!-- x26_0y_9_87 -->
<g id="node8" class="node">
<title>x26_0y_9_87</title>
<ellipse fill="none" stroke="pink" cx="2214" cy="-729" rx="54" ry="54"/>
<text text-anchor="middle" x="2214" y="-732.2" font-family="Times,serif" font-size="11.00">Erika Ganzler</text>
<text text-anchor="middle" x="2214" y="-720.2" font-family="Times,serif" font-size="11.00">Unknown</text>
</g>
<!-- x3_0y_8_0 -->
<g id="node9" class="node">
<title>x3_0y_8_0</title>
<ellipse fill="none" stroke="pink" cx="558" cy="-864" rx="54" ry="54"/>
<text text-anchor="middle" x="558" y="-867.2" font-family="Times,serif" font-size="11.00">Gertrud Wendt</text>
<text text-anchor="middle" x="558" y="-855.2" font-family="Times,serif" font-size="11.00">1914</text>
</g>
<!-- x6_25y_12_25 -->
<g id="node10" class="node">
<title>x6_25y_12_25</title>
<ellipse fill="none" stroke="pink" cx="792" cy="-558" rx="54" ry="54"/>
<text text-anchor="middle" x="792" y="-567.2" font-family="Times,serif" font-size="11.00">Edith Inge</text>
<text text-anchor="middle" x="792" y="-555.2" font-family="Times,serif" font-size="11.00">Gertrud Andert </text>
<text text-anchor="middle" x="792" y="-543.2" font-family="Times,serif" font-size="11.00">1948</text>
</g>
<!-- x34_0y_9_87 -->
<g id="node11" class="node">
<title>x34_0y_9_87</title>
<polygon fill="none" stroke="blue" points="2844,-783 2736,-783 2736,-675 2844,-675 2844,-783"/>
<text text-anchor="middle" x="2790" y="-732.2" font-family="Times,serif" font-size="11.00">Siegfried Ganzler</text>
<text text-anchor="middle" x="2790" y="-720.2" font-family="Times,serif" font-size="11.00">Unknown</text>
</g>
<!-- x34_0y_11_43 -->
<g id="node59" class="node">
<title>x34_0y_11_43</title>
<ellipse fill="none" stroke="black" cx="2790" cy="-616.5" rx="0.5" ry="0.5"/>
</g>
<!-- x34_0y_9_87&#45;&gt;x34_0y_11_43 -->
<g id="edge52" class="edge">
<title>x34_0y_9_87&#45;&gt;x34_0y_11_43</title>
<path fill="none" stroke="black" d="M2790,-674.73C2790,-648.66 2790,-622.02 2790,-617.25"/>
</g>
<!-- x6_0y_8_0 -->
<g id="node12" class="node">
<title>x6_0y_8_0</title>
<polygon fill="none" stroke="blue" points="828,-918 720,-918 720,-810 828,-810 828,-918"/>
<text text-anchor="middle" x="774" y="-867.2" font-family="Times,serif" font-size="11.00">Wilhelm Polz jr.</text>
<text text-anchor="middle" x="774" y="-855.2" font-family="Times,serif" font-size="11.00">Unknown</text>
</g>
<!-- x38_0y_12_62 -->
<g id="node13" class="node">
<title>x38_0y_12_62</title>
<polygon fill="none" stroke="blue" points="3132,-585 3024,-585 3024,-477 3132,-477 3132,-585"/>
<text text-anchor="middle" x="3078" y="-534.2" font-family="Times,serif" font-size="11.00">Rainer Dabudziak</text>
<text text-anchor="middle" x="3078" y="-522.2" font-family="Times,serif" font-size="11.00">1951</text>
</g>
<!-- x38_0y_14_18 -->
<g id="node55" class="node">
<title>x38_0y_14_18</title>
<ellipse fill="none" stroke="black" cx="3078" cy="-418.5" rx="0.5" ry="0.5"/>
</g>
<!-- x38_0y_12_62&#45;&gt;x38_0y_14_18 -->
<g id="edge45" class="edge">
<title>x38_0y_12_62&#45;&gt;x38_0y_14_18</title>
<path fill="none" stroke="black" d="M3078,-476.73C3078,-450.66 3078,-424.02 3078,-419.25"/>
</g>
<!-- x40_0y_10_0 -->
<g id="node14" class="node">
<title>x40_0y_10_0</title>
<polygon fill="none" stroke="blue" points="3276,-774 3168,-774 3168,-666 3276,-666 3276,-774"/>
<text text-anchor="middle" x="3222" y="-723.2" font-family="Times,serif" font-size="11.00">Paul Dabudziak</text>
<text text-anchor="middle" x="3222" y="-711.2" font-family="Times,serif" font-size="11.00">1930</text>
</g>
<!-- x40_0y_11_37 -->
<g id="node62" class="node">
<title>x40_0y_11_37</title>
<ellipse fill="none" stroke="black" cx="3222" cy="-621" rx="0.5" ry="0.5"/>
</g>
<!-- x40_0y_10_0&#45;&gt;x40_0y_11_37 -->
<g id="edge57" class="edge">
<title>x40_0y_10_0&#45;&gt;x40_0y_11_37</title>
<path fill="none" stroke="black" d="M3222,-665.87C3222,-644.92 3222,-625.09 3222,-621.56"/>
</g>
<!-- x11_50y_15_87 -->
<g id="node15" class="node">
<title>x11_50y_15_87</title>
<ellipse fill="none" stroke="pink" cx="1170" cy="-297" rx="54" ry="54"/>
<text text-anchor="middle" x="1170" y="-300.2" font-family="Times,serif" font-size="11.00">Silvia Andert</text>
<text text-anchor="middle" x="1170" y="-288.2" font-family="Times,serif" font-size="11.00">1977</text>
</g>
<!-- x0_0y_4_87 -->
<g id="node16" class="node">
<title>x0_0y_4_87</title>
<ellipse fill="none" stroke="pink" cx="342" cy="-1089" rx="54" ry="54"/>
<text text-anchor="middle" x="342" y="-1092.2" font-family="Times,serif" font-size="11.00">Marie Polz</text>
<text text-anchor="middle" x="342" y="-1080.2" font-family="Times,serif" font-size="11.00">Unknown</text>
</g>
<!-- x16_0y_7_0 -->
<g id="node17" class="node">
<title>x16_0y_7_0</title>
<polygon fill="none" stroke="blue" points="1548,-990 1440,-990 1440,-882 1548,-882 1548,-990"/>
<text text-anchor="middle" x="1494" y="-939.2" font-family="Times,serif" font-size="11.00">Adolf Wendt</text>
<text text-anchor="middle" x="1494" y="-927.2" font-family="Times,serif" font-size="11.00">1906</text>
</g>
<!-- x16_0y_9_56 -->
<g id="node39" class="node">
<title>x16_0y_9_56</title>
<ellipse fill="none" stroke="black" cx="1494" cy="-751.5" rx="0.5" ry="0.5"/>
</g>
<!-- x16_0y_7_0&#45;&gt;x16_0y_9_56 -->
<g id="edge17" class="edge">
<title>x16_0y_7_0&#45;&gt;x16_0y_9_56</title>
<path fill="none" stroke="black" d="M1494,-881.64C1494,-830.62 1494,-760.88 1494,-752.36"/>
</g>
<!-- x12_75y_11_12 -->
<g id="node18" class="node">
<title>x12_75y_11_12</title>
<ellipse fill="none" stroke="pink" cx="1260" cy="-639" rx="54" ry="54"/>
<text text-anchor="middle" x="1260" y="-642.2" font-family="Times,serif" font-size="11.00">Inge Wendt</text>
<text text-anchor="middle" x="1260" y="-630.2" font-family="Times,serif" font-size="11.00">Unknown</text>
</g>
<!-- x16_75y_15_25 -->
<g id="node19" class="node">
<title>x16_75y_15_25</title>
<ellipse fill="none" stroke="pink" cx="1548" cy="-342" rx="54" ry="54"/>
<text text-anchor="middle" x="1548" y="-345.2" font-family="Times,serif" font-size="11.00">Jeanette Andert</text>
<text text-anchor="middle" x="1548" y="-333.2" font-family="Times,serif" font-size="11.00">1972</text>
</g>
<!-- x9_0y_8_0 -->
<g id="node20" class="node">
<title>x9_0y_8_0</title>
<polygon fill="none" stroke="blue" points="1044,-918 936,-918 936,-810 1044,-810 1044,-918"/>
<text text-anchor="middle" x="990" y="-867.2" font-family="Times,serif" font-size="11.00">Albert Polz</text>
<text text-anchor="middle" x="990" y="-855.2" font-family="Times,serif" font-size="11.00">Unknown</text>
</g>
<!-- x32_66y_15_37 -->
<g id="node21" class="node">
<title>x32_66y_15_37</title>
<polygon fill="none" stroke="blue" points="2748,-387 2640,-387 2640,-279 2748,-279 2748,-387"/>
<text text-anchor="middle" x="2694" y="-336.2" font-family="Times,serif" font-size="11.00">Randy Andert</text>
<text text-anchor="middle" x="2694" y="-324.2" font-family="Times,serif" font-size="11.00">1973</text>
</g>
<!-- x32_66y_17_43 -->
<g id="node31" class="node">
<title>x32_66y_17_43</title>
<ellipse fill="none" stroke="black" cx="2694" cy="-184.5" rx="0.5" ry="0.5"/>
</g>
<!-- x32_66y_15_37&#45;&gt;x32_66y_17_43 -->
<g id="edge3" class="edge">
<title>x32_66y_15_37&#45;&gt;x32_66y_17_43</title>
<path fill="none" stroke="black" d="M2694,-278.97C2694,-239.16 2694,-190.96 2694,-185.09"/>
</g>
<!-- x35_33y_15_87 -->
<g id="node22" class="node">
<title>x35_33y_15_87</title>
<polygon fill="none" stroke="blue" points="2940,-351 2832,-351 2832,-243 2940,-243 2940,-351"/>
<text text-anchor="middle" x="2886" y="-300.2" font-family="Times,serif" font-size="11.00">Mike Kosin</text>
<text text-anchor="middle" x="2886" y="-288.2" font-family="Times,serif" font-size="11.00">1977</text>
</g>
<!-- x18_55y_19_0 -->
<g id="node23" class="node">
<title>x18_55y_19_0</title>
<polygon fill="none" stroke="blue" points="1732,-126 1624,-126 1624,-18 1732,-18 1732,-126"/>
<text text-anchor="middle" x="1678" y="-75.2" font-family="Times,serif" font-size="11.00">Paul Randy Andert</text>
<text text-anchor="middle" x="1678" y="-63.2" font-family="Times,serif" font-size="11.00">2002</text>
</g>
<!-- x9_50y_11_12 -->
<g id="node24" class="node">
<title>x9_50y_11_12</title>
<polygon fill="none" stroke="blue" points="1080,-693 972,-693 972,-585 1080,-585 1080,-693"/>
<text text-anchor="middle" x="1026" y="-642.2" font-family="Times,serif" font-size="11.00">Adolf Wendt jr.</text>
<text text-anchor="middle" x="1026" y="-630.2" font-family="Times,serif" font-size="11.00">Unknown</text>
</g>
<!-- x14_0y_3_87 -->
<g id="node25" class="node">
<title>x14_0y_3_87</title>
<ellipse fill="none" stroke="pink" cx="1350" cy="-1161" rx="54" ry="54"/>
<text text-anchor="middle" x="1350" y="-1164.2" font-family="Times,serif" font-size="11.00">Marie Wendt</text>
<text text-anchor="middle" x="1350" y="-1152.2" font-family="Times,serif" font-size="11.00">Unknown</text>
</g>
<!-- x18_0y_3_87 -->
<g id="node26" class="node">
<title>x18_0y_3_87</title>
<polygon fill="none" stroke="grey" points="1692,-1215 1584,-1215 1584,-1107 1692,-1107 1692,-1215"/>
<text text-anchor="middle" x="1638" y="-1164.2" font-family="Times,serif" font-size="11.00">Unknown &#160;</text>
<text text-anchor="middle" x="1638" y="-1152.2" font-family="Times,serif" font-size="11.00">Unknown</text>
</g>
<!-- x18_0y_5_43 -->
<g id="node49" class="node">
<title>x18_0y_5_43</title>
<ellipse fill="none" stroke="black" cx="1638" cy="-1048.5" rx="0.5" ry="0.5"/>
</g>
<!-- x18_0y_3_87&#45;&gt;x18_0y_5_43 -->
<g id="edge35" class="edge">
<title>x18_0y_3_87&#45;&gt;x18_0y_5_43</title>
<path fill="none" stroke="black" d="M1638,-1106.73C1638,-1080.66 1638,-1054.02 1638,-1049.25"/>
</g>
<!-- y1900 -->
<g id="node27" class="node">
<title>y1900</title>
<text text-anchor="middle" x="54" y="-984" font-family="Times,serif" font-size="25.00">1900</text>
</g>
<!-- y0 -->
<g id="node29" class="node">
<title>y0</title>
<ellipse fill="none" stroke="black" cx="3510" cy="-990" rx="0.5" ry="0.5"/>
</g>
<!-- y1900&#45;&gt;y0 -->
<g id="edge1" class="edge">
<title>y1900&#45;&gt;y0</title>
<path fill="none" stroke="grey" stroke-dasharray="5,2" d="M108.29,-990C544.53,-990 3463.87,-990 3509.46,-990"/>
</g>
<!-- y2000 -->
<g id="node28" class="node">
<title>y2000</title>
<text text-anchor="middle" x="54" y="-84" font-family="Times,serif" font-size="25.00">2000</text>
</g>
<!-- y1 -->
<g id="node30" class="node">
<title>y1</title>
<ellipse fill="none" stroke="black" cx="3510" cy="-90" rx="0.5" ry="0.5"/>
</g>
<!-- y2000&#45;&gt;y1 -->
<g id="edge2" class="edge">
<title>y2000&#45;&gt;y1</title>
<path fill="none" stroke="grey" stroke-dasharray="5,2" d="M108.29,-90C544.53,-90 3463.87,-90 3509.46,-90"/>
</g>
<!-- x18_55y_17_43 -->
<g id="node33" class="node">
<title>x18_55y_17_43</title>
<ellipse fill="none" stroke="black" cx="1678" cy="-184.5" rx="0.5" ry="0.5"/>
</g>
<!-- x32_66y_17_43&#45;&gt;x18_55y_17_43 -->
<g id="edge4" class="edge">
<title>x32_66y_17_43&#45;&gt;x18_55y_17_43</title>
<path fill="none" stroke="black" d="M2693.26,-184.5C2662.98,-184.5 1708.53,-184.5 1678.71,-184.5"/>
</g>
<!-- x11_50y_17_43 -->
<g id="node32" class="node">
<title>x11_50y_17_43</title>
<ellipse fill="none" stroke="black" cx="1170" cy="-184.5" rx="0.5" ry="0.5"/>
</g>
<!-- x11_50y_17_43&#45;&gt;x11_50y_15_87 -->
<g id="edge7" class="edge">
<title>x11_50y_17_43&#45;&gt;x11_50y_15_87</title>
<path fill="none" stroke="black" d="M1170,-185.22C1170,-189.9 1170,-216.66 1170,-242.82"/>
</g>
<!-- x18_55y_17_43&#45;&gt;x18_55y_19_0 -->
<g id="edge8" class="edge">
<title>x18_55y_17_43&#45;&gt;x18_55y_19_0</title>
<path fill="none" stroke="black" d="M1678,-183.78C1678,-179.1 1678,-152.34 1678,-126.18"/>
</g>
<!-- x25_61y_17_43 -->
<g id="node34" class="node">
<title>x25_61y_17_43</title>
<ellipse fill="none" stroke="black" cx="2186" cy="-184.5" rx="0.5" ry="0.5"/>
</g>
<!-- x18_55y_17_43&#45;&gt;x25_61y_17_43 -->
<g id="edge5" class="edge">
<title>x18_55y_17_43&#45;&gt;x25_61y_17_43</title>
<path fill="none" stroke="black" d="M1678.82,-184.5C1701,-184.5 2163.54,-184.5 2185.21,-184.5"/>
</g>
<!-- x25_61y_17_43&#45;&gt;x25_61y_19_25 -->
<g id="edge9" class="edge">
<title>x25_61y_17_43&#45;&gt;x25_61y_19_25</title>
<path fill="none" stroke="black" d="M2186,-183.67C2186,-177.72 2186,-141 2186,-108.15"/>
</g>
<!-- x25_61y_17_43&#45;&gt;x11_50y_17_43 -->
<g id="edge6" class="edge">
<title>x25_61y_17_43&#45;&gt;x11_50y_17_43</title>
<path fill="none" stroke="black" d="M2185.26,-184.5C2154.98,-184.5 1200.53,-184.5 1170.71,-184.5"/>
</g>
<!-- x11_50y_13_75 -->
<g id="node37" class="node">
<title>x11_50y_13_75</title>
<ellipse fill="none" stroke="black" cx="1170" cy="-450" rx="0.5" ry="0.5"/>
</g>
<!-- x22_0y_13_75&#45;&gt;x11_50y_13_75 -->
<g id="edge11" class="edge">
<title>x22_0y_13_75&#45;&gt;x11_50y_13_75</title>
<path fill="none" stroke="black" d="M1925.45,-450C1902.92,-450 1192.72,-450 1170.53,-450"/>
</g>
<!-- x6_25y_13_75 -->
<g id="node36" class="node">
<title>x6_25y_13_75</title>
<ellipse fill="none" stroke="black" cx="792" cy="-450" rx="0.5" ry="0.5"/>
</g>
<!-- x6_25y_13_75&#45;&gt;x6_25y_12_25 -->
<g id="edge14" class="edge">
<title>x6_25y_13_75&#45;&gt;x6_25y_12_25</title>
<path fill="none" stroke="black" d="M792,-450.69C792,-455.06 792,-479.45 792,-503.88"/>
</g>
<!-- x11_50y_13_75&#45;&gt;x11_50y_15_87 -->
<g id="edge15" class="edge">
<title>x11_50y_13_75&#45;&gt;x11_50y_15_87</title>
<path fill="none" stroke="black" d="M1170,-449.32C1170,-442.89 1170,-392.35 1170,-351.22"/>
</g>
<!-- x16_75y_13_75 -->
<g id="node38" class="node">
<title>x16_75y_13_75</title>
<ellipse fill="none" stroke="black" cx="1548" cy="-450" rx="0.5" ry="0.5"/>
</g>
<!-- x11_50y_13_75&#45;&gt;x16_75y_13_75 -->
<g id="edge12" class="edge">
<title>x11_50y_13_75&#45;&gt;x16_75y_13_75</title>
<path fill="none" stroke="black" d="M1170.61,-450C1187.12,-450 1531.29,-450 1547.41,-450"/>
</g>
<!-- x16_75y_13_75&#45;&gt;x16_75y_15_25 -->
<g id="edge16" class="edge">
<title>x16_75y_13_75&#45;&gt;x16_75y_15_25</title>
<path fill="none" stroke="black" d="M1548,-449.31C1548,-444.94 1548,-420.55 1548,-396.12"/>
</g>
<!-- x16_75y_13_75&#45;&gt;x6_25y_13_75 -->
<g id="edge13" class="edge">
<title>x16_75y_13_75&#45;&gt;x6_25y_13_75</title>
<path fill="none" stroke="black" d="M1547.45,-450C1524.92,-450 814.72,-450 792.53,-450"/>
</g>
<!-- x6_25y_9_56 -->
<g id="node41" class="node">
<title>x6_25y_9_56</title>
<ellipse fill="none" stroke="black" cx="792" cy="-751.5" rx="0.5" ry="0.5"/>
</g>
<!-- x16_0y_9_56&#45;&gt;x6_25y_9_56 -->
<g id="edge18" class="edge">
<title>x16_0y_9_56&#45;&gt;x6_25y_9_56</title>
<path fill="none" stroke="black" d="M1493.49,-751.5C1472.65,-751.5 818.32,-751.5 792.77,-751.5"/>
</g>
<!-- x3_0y_9_56 -->
<g id="node40" class="node">
<title>x3_0y_9_56</title>
<ellipse fill="none" stroke="black" cx="558" cy="-751.5" rx="0.5" ry="0.5"/>
</g>
<!-- x3_0y_9_56&#45;&gt;x3_0y_8_0 -->
<g id="edge22" class="edge">
<title>x3_0y_9_56&#45;&gt;x3_0y_8_0</title>
<path fill="none" stroke="black" d="M558,-752.22C558,-756.9 558,-783.66 558,-809.82"/>
</g>
<!-- x6_25y_9_56&#45;&gt;x6_25y_12_25 -->
<g id="edge23" class="edge">
<title>x6_25y_9_56&#45;&gt;x6_25y_12_25</title>
<path fill="none" stroke="black" d="M792,-750.94C792,-743.67 792,-666.53 792,-612.03"/>
</g>
<!-- x9_50y_9_56 -->
<g id="node42" class="node">
<title>x9_50y_9_56</title>
<ellipse fill="none" stroke="black" cx="1026" cy="-751.5" rx="0.5" ry="0.5"/>
</g>
<!-- x6_25y_9_56&#45;&gt;x9_50y_9_56 -->
<g id="edge19" class="edge">
<title>x6_25y_9_56&#45;&gt;x9_50y_9_56</title>
<path fill="none" stroke="black" d="M792.67,-751.5C805.97,-751.5 1012.48,-751.5 1025.37,-751.5"/>
</g>
<!-- x9_50y_9_56&#45;&gt;x9_50y_11_12 -->
<g id="edge24" class="edge">
<title>x9_50y_9_56&#45;&gt;x9_50y_11_12</title>
<path fill="none" stroke="black" d="M1026,-750.78C1026,-746.1 1026,-719.34 1026,-693.18"/>
</g>
<!-- x12_75y_9_56 -->
<g id="node43" class="node">
<title>x12_75y_9_56</title>
<ellipse fill="none" stroke="black" cx="1260" cy="-751.5" rx="0.5" ry="0.5"/>
</g>
<!-- x9_50y_9_56&#45;&gt;x12_75y_9_56 -->
<g id="edge20" class="edge">
<title>x9_50y_9_56&#45;&gt;x12_75y_9_56</title>
<path fill="none" stroke="black" d="M1026.67,-751.5C1039.97,-751.5 1246.48,-751.5 1259.37,-751.5"/>
</g>
<!-- x12_75y_9_56&#45;&gt;x12_75y_11_12 -->
<g id="edge25" class="edge">
<title>x12_75y_9_56&#45;&gt;x12_75y_11_12</title>
<path fill="none" stroke="black" d="M1260,-750.78C1260,-746.1 1260,-719.34 1260,-693.18"/>
</g>
<!-- x12_75y_9_56&#45;&gt;x3_0y_9_56 -->
<g id="edge21" class="edge">
<title>x12_75y_9_56&#45;&gt;x3_0y_9_56</title>
<path fill="none" stroke="black" d="M1259.49,-751.5C1238.65,-751.5 584.32,-751.5 558.77,-751.5"/>
</g>
<!-- x3_0y_6_43 -->
<g id="node46" class="node">
<title>x3_0y_6_43</title>
<ellipse fill="none" stroke="black" cx="558" cy="-976.5" rx="0.5" ry="0.5"/>
</g>
<!-- x12_0y_6_43&#45;&gt;x3_0y_6_43 -->
<g id="edge27" class="edge">
<title>x12_0y_6_43&#45;&gt;x3_0y_6_43</title>
<path fill="none" stroke="black" d="M1205.27,-976.5C1181.41,-976.5 582.11,-976.5 558.7,-976.5"/>
</g>
<!-- x0_0y_6_43 -->
<g id="node45" class="node">
<title>x0_0y_6_43</title>
<ellipse fill="none" stroke="black" cx="342" cy="-976.5" rx="0.5" ry="0.5"/>
</g>
<!-- x0_0y_6_43&#45;&gt;x0_0y_4_87 -->
<g id="edge31" class="edge">
<title>x0_0y_6_43&#45;&gt;x0_0y_4_87</title>
<path fill="none" stroke="black" d="M342,-977.22C342,-981.9 342,-1008.66 342,-1034.82"/>
</g>
<!-- x3_0y_6_43&#45;&gt;x3_0y_8_0 -->
<g id="edge32" class="edge">
<title>x3_0y_6_43&#45;&gt;x3_0y_8_0</title>
<path fill="none" stroke="black" d="M558,-975.78C558,-971.1 558,-944.34 558,-918.18"/>
</g>
<!-- x6_0y_6_43 -->
<g id="node47" class="node">
<title>x6_0y_6_43</title>
<ellipse fill="none" stroke="black" cx="774" cy="-976.5" rx="0.5" ry="0.5"/>
</g>
<!-- x3_0y_6_43&#45;&gt;x6_0y_6_43 -->
<g id="edge28" class="edge">
<title>x3_0y_6_43&#45;&gt;x6_0y_6_43</title>
<path fill="none" stroke="black" d="M558.62,-976.5C570.89,-976.5 761.52,-976.5 773.42,-976.5"/>
</g>
<!-- x6_0y_6_43&#45;&gt;x6_0y_8_0 -->
<g id="edge33" class="edge">
<title>x6_0y_6_43&#45;&gt;x6_0y_8_0</title>
<path fill="none" stroke="black" d="M774,-975.78C774,-971.1 774,-944.34 774,-918.18"/>
</g>
<!-- x9_0y_6_43 -->
<g id="node48" class="node">
<title>x9_0y_6_43</title>
<ellipse fill="none" stroke="black" cx="990" cy="-976.5" rx="0.5" ry="0.5"/>
</g>
<!-- x6_0y_6_43&#45;&gt;x9_0y_6_43 -->
<g id="edge29" class="edge">
<title>x6_0y_6_43&#45;&gt;x9_0y_6_43</title>
<path fill="none" stroke="black" d="M774.62,-976.5C786.89,-976.5 977.52,-976.5 989.42,-976.5"/>
</g>
<!-- x9_0y_6_43&#45;&gt;x9_0y_8_0 -->
<g id="edge34" class="edge">
<title>x9_0y_6_43&#45;&gt;x9_0y_8_0</title>
<path fill="none" stroke="black" d="M990,-975.78C990,-971.1 990,-944.34 990,-918.18"/>
</g>
<!-- x9_0y_6_43&#45;&gt;x0_0y_6_43 -->
<g id="edge30" class="edge">
<title>x9_0y_6_43&#45;&gt;x0_0y_6_43</title>
<path fill="none" stroke="black" d="M989.27,-976.5C965.41,-976.5 366.11,-976.5 342.7,-976.5"/>
</g>
<!-- x16_0y_5_43 -->
<g id="node51" class="node">
<title>x16_0y_5_43</title>
<ellipse fill="none" stroke="black" cx="1494" cy="-1048.5" rx="0.5" ry="0.5"/>
</g>
<!-- x18_0y_5_43&#45;&gt;x16_0y_5_43 -->
<g id="edge36" class="edge">
<title>x18_0y_5_43&#45;&gt;x16_0y_5_43</title>
<path fill="none" stroke="black" d="M1637.36,-1048.5C1627.46,-1048.5 1506.2,-1048.5 1494.85,-1048.5"/>
</g>
<!-- x14_0y_5_43 -->
<g id="node50" class="node">
<title>x14_0y_5_43</title>
<ellipse fill="none" stroke="black" cx="1350" cy="-1048.5" rx="0.5" ry="0.5"/>
</g>
<!-- x14_0y_5_43&#45;&gt;x14_0y_3_87 -->
<g id="edge38" class="edge">
<title>x14_0y_5_43&#45;&gt;x14_0y_3_87</title>
<path fill="none" stroke="black" d="M1350,-1049.22C1350,-1053.9 1350,-1080.66 1350,-1106.82"/>
</g>
<!-- x16_0y_5_43&#45;&gt;x16_0y_7_0 -->
<g id="edge39" class="edge">
<title>x16_0y_5_43&#45;&gt;x16_0y_7_0</title>
<path fill="none" stroke="black" d="M1494,-1047.78C1494,-1043.1 1494,-1016.34 1494,-990.18"/>
</g>
<!-- x16_0y_5_43&#45;&gt;x14_0y_5_43 -->
<g id="edge37" class="edge">
<title>x16_0y_5_43&#45;&gt;x14_0y_5_43</title>
<path fill="none" stroke="black" d="M1493.36,-1048.5C1483.46,-1048.5 1362.2,-1048.5 1350.85,-1048.5"/>
</g>
<!-- x22_0y_9_12 -->
<g id="node54" class="node">
<title>x22_0y_9_12</title>
<ellipse fill="none" stroke="black" cx="1926" cy="-783" rx="0.5" ry="0.5"/>
</g>
<!-- x24_0y_9_12&#45;&gt;x22_0y_9_12 -->
<g id="edge41" class="edge">
<title>x24_0y_9_12&#45;&gt;x22_0y_9_12</title>
<path fill="none" stroke="black" d="M2069.36,-783C2059.46,-783 1938.2,-783 1926.85,-783"/>
</g>
<!-- x20_0y_9_12 -->
<g id="node53" class="node">
<title>x20_0y_9_12</title>
<ellipse fill="none" stroke="black" cx="1782" cy="-783" rx="0.5" ry="0.5"/>
</g>
<!-- x20_0y_9_12&#45;&gt;x20_0y_6_87 -->
<g id="edge43" class="edge">
<title>x20_0y_9_12&#45;&gt;x20_0y_6_87</title>
<path fill="none" stroke="black" d="M1782,-783.72C1782,-790.68 1782,-846.58 1782,-890.64"/>
</g>
<!-- x22_0y_9_12&#45;&gt;x22_0y_11_25 -->
<g id="edge44" class="edge">
<title>x22_0y_9_12&#45;&gt;x22_0y_11_25</title>
<path fill="none" stroke="black" d="M1926,-782.32C1926,-775.89 1926,-725.35 1926,-684.22"/>
</g>
<!-- x22_0y_9_12&#45;&gt;x20_0y_9_12 -->
<g id="edge42" class="edge">
<title>x22_0y_9_12&#45;&gt;x20_0y_9_12</title>
<path fill="none" stroke="black" d="M1925.36,-783C1915.46,-783 1794.2,-783 1782.85,-783"/>
</g>
<!-- x32_66y_14_18 -->
<g id="node57" class="node">
<title>x32_66y_14_18</title>
<ellipse fill="none" stroke="black" cx="2694" cy="-418.5" rx="0.5" ry="0.5"/>
</g>
<!-- x38_0y_14_18&#45;&gt;x32_66y_14_18 -->
<g id="edge46" class="edge">
<title>x38_0y_14_18&#45;&gt;x32_66y_14_18</title>
<path fill="none" stroke="black" d="M3077.38,-418.5C3060.61,-418.5 2710.97,-418.5 2694.59,-418.5"/>
</g>
<!-- x30_0y_14_18 -->
<g id="node56" class="node">
<title>x30_0y_14_18</title>
<ellipse fill="none" stroke="black" cx="2502" cy="-418.5" rx="0.5" ry="0.5"/>
</g>
<!-- x30_0y_14_18&#45;&gt;x30_0y_13_0 -->
<g id="edge49" class="edge">
<title>x30_0y_14_18&#45;&gt;x30_0y_13_0</title>
<path fill="none" stroke="black" d="M2502,-419.05C2502,-421.81 2502,-434.67 2502,-449.59"/>
</g>
<!-- x32_66y_14_18&#45;&gt;x32_66y_15_37 -->
<g id="edge50" class="edge">
<title>x32_66y_14_18&#45;&gt;x32_66y_15_37</title>
<path fill="none" stroke="black" d="M2694,-417.95C2694,-415.19 2694,-402.33 2694,-387.41"/>
</g>
<!-- x35_33y_14_18 -->
<g id="node58" class="node">
<title>x35_33y_14_18</title>
<ellipse fill="none" stroke="black" cx="2886" cy="-418.5" rx="0.5" ry="0.5"/>
</g>
<!-- x32_66y_14_18&#45;&gt;x35_33y_14_18 -->
<g id="edge47" class="edge">
<title>x32_66y_14_18&#45;&gt;x35_33y_14_18</title>
<path fill="none" stroke="black" d="M2694.55,-418.5C2705.46,-418.5 2874.9,-418.5 2885.48,-418.5"/>
</g>
<!-- x35_33y_14_18&#45;&gt;x35_33y_15_87 -->
<g id="edge51" class="edge">
<title>x35_33y_14_18&#45;&gt;x35_33y_15_87</title>
<path fill="none" stroke="black" d="M2886,-417.72C2886,-412.41 2886,-380.7 2886,-351.12"/>
</g>
<!-- x35_33y_14_18&#45;&gt;x30_0y_14_18 -->
<g id="edge48" class="edge">
<title>x35_33y_14_18&#45;&gt;x30_0y_14_18</title>
<path fill="none" stroke="black" d="M2885.38,-418.5C2868.61,-418.5 2518.97,-418.5 2502.59,-418.5"/>
</g>
<!-- x30_0y_11_43 -->
<g id="node61" class="node">
<title>x30_0y_11_43</title>
<ellipse fill="none" stroke="black" cx="2502" cy="-616.5" rx="0.5" ry="0.5"/>
</g>
<!-- x34_0y_11_43&#45;&gt;x30_0y_11_43 -->
<g id="edge53" class="edge">
<title>x34_0y_11_43&#45;&gt;x30_0y_11_43</title>
<path fill="none" stroke="black" d="M2789.17,-616.5C2772.81,-616.5 2518.65,-616.5 2502.78,-616.5"/>
</g>
<!-- x26_0y_11_43 -->
<g id="node60" class="node">
<title>x26_0y_11_43</title>
<ellipse fill="none" stroke="black" cx="2214" cy="-616.5" rx="0.5" ry="0.5"/>
</g>
<!-- x26_0y_11_43&#45;&gt;x26_0y_9_87 -->
<g id="edge55" class="edge">
<title>x26_0y_11_43&#45;&gt;x26_0y_9_87</title>
<path fill="none" stroke="black" d="M2214,-617.22C2214,-621.9 2214,-648.66 2214,-674.82"/>
</g>
<!-- x30_0y_11_43&#45;&gt;x30_0y_13_0 -->
<g id="edge56" class="edge">
<title>x30_0y_11_43&#45;&gt;x30_0y_13_0</title>
<path fill="none" stroke="black" d="M2502,-615.78C2502,-611.1 2502,-584.34 2502,-558.18"/>
</g>
<!-- x30_0y_11_43&#45;&gt;x26_0y_11_43 -->
<g id="edge54" class="edge">
<title>x30_0y_11_43&#45;&gt;x26_0y_11_43</title>
<path fill="none" stroke="black" d="M2501.17,-616.5C2484.81,-616.5 2230.65,-616.5 2214.78,-616.5"/>
</g>
<!-- x38_0y_11_37 -->
<g id="node64" class="node">
<title>x38_0y_11_37</title>
<ellipse fill="none" stroke="black" cx="3078" cy="-621" rx="0.5" ry="0.5"/>
</g>
<!-- x40_0y_11_37&#45;&gt;x38_0y_11_37 -->
<g id="edge58" class="edge">
<title>x40_0y_11_37&#45;&gt;x38_0y_11_37</title>
<path fill="none" stroke="black" d="M3221.36,-621C3211.46,-621 3090.2,-621 3078.85,-621"/>
</g>
<!-- x36_0y_11_37 -->
<g id="node63" class="node">
<title>x36_0y_11_37</title>
<ellipse fill="none" stroke="black" cx="2934" cy="-621" rx="0.5" ry="0.5"/>
</g>
<!-- x36_0y_11_37&#45;&gt;x36_0y_10_12 -->
<g id="edge60" class="edge">
<title>x36_0y_11_37&#45;&gt;x36_0y_10_12</title>
<path fill="none" stroke="black" d="M2934,-621.57C2934,-624.66 2934,-639.74 2934,-656.66"/>
</g>
<!-- x38_0y_11_37&#45;&gt;x38_0y_12_62 -->
<g id="edge61" class="edge">
<title>x38_0y_11_37&#45;&gt;x38_0y_12_62</title>
<path fill="none" stroke="black" d="M3078,-620.43C3078,-617.34 3078,-602.26 3078,-585.34"/>
</g>
<!-- x38_0y_11_37&#45;&gt;x36_0y_11_37 -->
<g id="edge59" class="edge">
<title>x38_0y_11_37&#45;&gt;x36_0y_11_37</title>
<path fill="none" stroke="black" d="M3077.36,-621C3067.46,-621 2946.2,-621 2934.85,-621"/>
</g>
</g>
</svg>
