<?xml version="1.0" encoding="UTF-8" standalone="no"?>
<!DOCTYPE svg PUBLIC "-//W3C//DTD SVG 1.1//EN"
 "http://www.w3.org/Graphics/SVG/1.1/DTD/svg11.dtd">
<!-- Generated by graphviz version 5.0.0 (20220707.1540)
 -->
<!-- Title: P Pages: 1 -->
<svg width="2996pt" height="1223pt"
 viewBox="0.00 0.00 2996.00 1223.00" xmlns="http://www.w3.org/2000/svg" xmlns:xlink="http://www.w3.org/1999/xlink">
<g id="graph0" class="graph" transform="scale(1 1) rotate(0) translate(4 1219)">
<title>P</title>
<polygon fill="white" stroke="transparent" points="-4,4 -4,-1219 2992,-1219 2992,4 -4,4"/>
<!-- x0_0y_4_87 -->
<g id="node1" class="node">
<title>x0_0y_4_87</title>
<ellipse fill="none" stroke="pink" cx="54" cy="-1089" rx="54" ry="54"/>
<text text-anchor="middle" x="54" y="-1092.2" font-family="Times,serif" font-size="11.00">Marie Polz</text>
<text text-anchor="middle" x="54" y="-1080.2" font-family="Times,serif" font-size="11.00">1889</text>
</g>
<!-- x14_0y_3_87 -->
<g id="node2" class="node">
<title>x14_0y_3_87</title>
<ellipse fill="none" stroke="pink" cx="1062" cy="-1161" rx="54" ry="54"/>
<text text-anchor="middle" x="1062" y="-1164.2" font-family="Times,serif" font-size="11.00">Marie Wendt</text>
<text text-anchor="middle" x="1062" y="-1152.2" font-family="Times,serif" font-size="11.00">1881</text>
</g>
<!-- x3_0y_8_0 -->
<g id="node3" class="node">
<title>x3_0y_8_0</title>
<ellipse fill="none" stroke="pink" cx="270" cy="-864" rx="54" ry="54"/>
<text text-anchor="middle" x="270" y="-867.2" font-family="Times,serif" font-size="11.00">Gertrud Wendt</text>
<text text-anchor="middle" x="270" y="-855.2" font-family="Times,serif" font-size="11.00">1914</text>
</g>
<!-- x34_0y_9_87 -->
<g id="node4" class="node">
<title>x34_0y_9_87</title>
<polygon fill="none" stroke="blue" points="2556,-783 2448,-783 2448,-675 2556,-675 2556,-783"/>
<text text-anchor="middle" x="2502" y="-732.2" font-family="Times,serif" font-size="11.00">Siegfried Ganzler</text>
<text text-anchor="middle" x="2502" y="-720.2" font-family="Times,serif" font-size="11.00">1929</text>
</g>
<!-- x34_0y_11_43 -->
<g id="node55" class="node">
<title>x34_0y_11_43</title>
<ellipse fill="none" stroke="black" cx="2502" cy="-616.5" rx="0.5" ry="0.5"/>
</g>
<!-- x34_0y_9_87&#45;&gt;x34_0y_11_43 -->
<g id="edge50" class="edge">
<title>x34_0y_9_87&#45;&gt;x34_0y_11_43</title>
<path fill="none" stroke="black" d="M2502,-674.73C2502,-648.66 2502,-622.02 2502,-617.25"/>
</g>
<!-- x30_0y_13_0 -->
<g id="node5" class="node">
<title>x30_0y_13_0</title>
<ellipse fill="none" stroke="pink" cx="2214" cy="-504" rx="54" ry="54"/>
<text text-anchor="middle" x="2214" y="-507.2" font-family="Times,serif" font-size="11.00">Gabi Kosin</text>
<text text-anchor="middle" x="2214" y="-495.2" font-family="Times,serif" font-size="11.00">1954</text>
</g>
<!-- x40_0y_10_0 -->
<g id="node6" class="node">
<title>x40_0y_10_0</title>
<polygon fill="none" stroke="blue" points="2988,-774 2880,-774 2880,-666 2988,-666 2988,-774"/>
<text text-anchor="middle" x="2934" y="-723.2" font-family="Times,serif" font-size="11.00">Paul Dabudziak</text>
<text text-anchor="middle" x="2934" y="-711.2" font-family="Times,serif" font-size="11.00">1930</text>
</g>
<!-- x40_0y_11_37 -->
<g id="node58" class="node">
<title>x40_0y_11_37</title>
<ellipse fill="none" stroke="black" cx="2934" cy="-621" rx="0.5" ry="0.5"/>
</g>
<!-- x40_0y_10_0&#45;&gt;x40_0y_11_37 -->
<g id="edge55" class="edge">
<title>x40_0y_10_0&#45;&gt;x40_0y_11_37</title>
<path fill="none" stroke="black" d="M2934,-665.87C2934,-644.92 2934,-625.09 2934,-621.56"/>
</g>
<!-- x11_50y_15_87 -->
<g id="node7" class="node">
<title>x11_50y_15_87</title>
<ellipse fill="none" stroke="pink" cx="882" cy="-297" rx="54" ry="54"/>
<text text-anchor="middle" x="882" y="-300.2" font-family="Times,serif" font-size="11.00">Silvia Andert</text>
<text text-anchor="middle" x="882" y="-288.2" font-family="Times,serif" font-size="11.00">1977</text>
</g>
<!-- x16_75y_15_25 -->
<g id="node8" class="node">
<title>x16_75y_15_25</title>
<ellipse fill="none" stroke="pink" cx="1260" cy="-342" rx="54" ry="54"/>
<text text-anchor="middle" x="1260" y="-345.2" font-family="Times,serif" font-size="11.00">Jeanette Andert</text>
<text text-anchor="middle" x="1260" y="-333.2" font-family="Times,serif" font-size="11.00">1972</text>
</g>
<!-- x32_66y_15_37 -->
<g id="node9" class="node">
<title>x32_66y_15_37</title>
<polygon fill="none" stroke="blue" points="2460,-387 2352,-387 2352,-279 2460,-279 2460,-387"/>
<text text-anchor="middle" x="2406" y="-336.2" font-family="Times,serif" font-size="11.00">Randy Andert</text>
<text text-anchor="middle" x="2406" y="-324.2" font-family="Times,serif" font-size="11.00">1973</text>
</g>
<!-- x32_66y_17_43 -->
<g id="node27" class="node">
<title>x32_66y_17_43</title>
<ellipse fill="none" stroke="black" cx="2406" cy="-184.5" rx="0.5" ry="0.5"/>
</g>
<!-- x32_66y_15_37&#45;&gt;x32_66y_17_43 -->
<g id="edge1" class="edge">
<title>x32_66y_15_37&#45;&gt;x32_66y_17_43</title>
<path fill="none" stroke="black" d="M2406,-278.97C2406,-239.16 2406,-190.96 2406,-185.09"/>
</g>
<!-- x12_75y_11_12 -->
<g id="node10" class="node">
<title>x12_75y_11_12</title>
<ellipse fill="none" stroke="pink" cx="972" cy="-639" rx="54" ry="54"/>
<text text-anchor="middle" x="972" y="-642.2" font-family="Times,serif" font-size="11.00">Inge Wendt</text>
<text text-anchor="middle" x="972" y="-630.2" font-family="Times,serif" font-size="11.00">1939</text>
</g>
<!-- x35_33y_15_87 -->
<g id="node11" class="node">
<title>x35_33y_15_87</title>
<polygon fill="none" stroke="blue" points="2652,-351 2544,-351 2544,-243 2652,-243 2652,-351"/>
<text text-anchor="middle" x="2598" y="-300.2" font-family="Times,serif" font-size="11.00">Mike Kosin</text>
<text text-anchor="middle" x="2598" y="-288.2" font-family="Times,serif" font-size="11.00">1977</text>
</g>
<!-- x20_0y_6_87 -->
<g id="node12" class="node">
<title>x20_0y_6_87</title>
<ellipse fill="none" stroke="pink" cx="1494" cy="-945" rx="54" ry="54"/>
<text text-anchor="middle" x="1494" y="-948.2" font-family="Times,serif" font-size="11.00">Gertrud Andert</text>
<text text-anchor="middle" x="1494" y="-936.2" font-family="Times,serif" font-size="11.00">1905</text>
</g>
<!-- x18_55y_19_0 -->
<g id="node13" class="node">
<title>x18_55y_19_0</title>
<polygon fill="none" stroke="blue" points="1444,-126 1336,-126 1336,-18 1444,-18 1444,-126"/>
<text text-anchor="middle" x="1390" y="-75.2" font-family="Times,serif" font-size="11.00">Paul Randy Andert</text>
<text text-anchor="middle" x="1390" y="-63.2" font-family="Times,serif" font-size="11.00">2002</text>
</g>
<!-- x6_25y_12_25 -->
<g id="node14" class="node">
<title>x6_25y_12_25</title>
<ellipse fill="none" stroke="pink" cx="504" cy="-558" rx="54" ry="54"/>
<text text-anchor="middle" x="504" y="-567.2" font-family="Times,serif" font-size="11.00">Edith Inge</text>
<text text-anchor="middle" x="504" y="-555.2" font-family="Times,serif" font-size="11.00">Gertrud Andert </text>
<text text-anchor="middle" x="504" y="-543.2" font-family="Times,serif" font-size="11.00">1948</text>
</g>
<!-- x9_0y_8_0 -->
<g id="node15" class="node">
<title>x9_0y_8_0</title>
<polygon fill="none" stroke="blue" points="756,-918 648,-918 648,-810 756,-810 756,-918"/>
<text text-anchor="middle" x="702" y="-867.2" font-family="Times,serif" font-size="11.00">Albert Polz</text>
<text text-anchor="middle" x="702" y="-855.2" font-family="Times,serif" font-size="11.00">1914</text>
</g>
<!-- x9_50y_11_12 -->
<g id="node16" class="node">
<title>x9_50y_11_12</title>
<polygon fill="none" stroke="blue" points="792,-693 684,-693 684,-585 792,-585 792,-693"/>
<text text-anchor="middle" x="738" y="-642.2" font-family="Times,serif" font-size="11.00">Adolf Wendt jr.</text>
<text text-anchor="middle" x="738" y="-630.2" font-family="Times,serif" font-size="11.00">1939</text>
</g>
<!-- x12_0y_4_87 -->
<g id="node17" class="node">
<title>x12_0y_4_87</title>
<polygon fill="none" stroke="blue" points="972,-1143 864,-1143 864,-1035 972,-1035 972,-1143"/>
<text text-anchor="middle" x="918" y="-1092.2" font-family="Times,serif" font-size="11.00">Wilhelm Polz</text>
<text text-anchor="middle" x="918" y="-1080.2" font-family="Times,serif" font-size="11.00">1889</text>
</g>
<!-- x12_0y_6_43 -->
<g id="node40" class="node">
<title>x12_0y_6_43</title>
<ellipse fill="none" stroke="black" cx="918" cy="-976.5" rx="0.5" ry="0.5"/>
</g>
<!-- x12_0y_4_87&#45;&gt;x12_0y_6_43 -->
<g id="edge24" class="edge">
<title>x12_0y_4_87&#45;&gt;x12_0y_6_43</title>
<path fill="none" stroke="black" d="M918,-1034.73C918,-1008.66 918,-982.02 918,-977.25"/>
</g>
<!-- x26_0y_9_87 -->
<g id="node18" class="node">
<title>x26_0y_9_87</title>
<ellipse fill="none" stroke="pink" cx="1926" cy="-729" rx="54" ry="54"/>
<text text-anchor="middle" x="1926" y="-732.2" font-family="Times,serif" font-size="11.00">Erika Ganzler</text>
<text text-anchor="middle" x="1926" y="-720.2" font-family="Times,serif" font-size="11.00">1929</text>
</g>
<!-- x24_0y_7_0 -->
<g id="node19" class="node">
<title>x24_0y_7_0</title>
<polygon fill="none" stroke="blue" points="1836,-990 1728,-990 1728,-882 1836,-882 1836,-990"/>
<text text-anchor="middle" x="1782" y="-939.2" font-family="Times,serif" font-size="11.00">Willi Andert</text>
<text text-anchor="middle" x="1782" y="-927.2" font-family="Times,serif" font-size="11.00">1906</text>
</g>
<!-- x24_0y_9_12 -->
<g id="node48" class="node">
<title>x24_0y_9_12</title>
<ellipse fill="none" stroke="black" cx="1782" cy="-783" rx="0.5" ry="0.5"/>
</g>
<!-- x24_0y_7_0&#45;&gt;x24_0y_9_12 -->
<g id="edge38" class="edge">
<title>x24_0y_7_0&#45;&gt;x24_0y_9_12</title>
<path fill="none" stroke="black" d="M1782,-881.63C1782,-840.4 1782,-789.79 1782,-783.62"/>
</g>
<!-- x36_0y_10_12 -->
<g id="node20" class="node">
<title>x36_0y_10_12</title>
<ellipse fill="none" stroke="pink" cx="2646" cy="-711" rx="54" ry="54"/>
<text text-anchor="middle" x="2646" y="-714.2" font-family="Times,serif" font-size="11.00">Irene Dabudziak</text>
<text text-anchor="middle" x="2646" y="-702.2" font-family="Times,serif" font-size="11.00">1931</text>
</g>
<!-- x25_61y_19_25 -->
<g id="node21" class="node">
<title>x25_61y_19_25</title>
<polygon fill="none" stroke="blue" points="1952,-108 1844,-108 1844,0 1952,0 1952,-108"/>
<text text-anchor="middle" x="1898" y="-57.2" font-family="Times,serif" font-size="11.00">Ben Rudi Andert</text>
<text text-anchor="middle" x="1898" y="-45.2" font-family="Times,serif" font-size="11.00">2004</text>
</g>
<!-- x16_0y_7_0 -->
<g id="node22" class="node">
<title>x16_0y_7_0</title>
<polygon fill="none" stroke="blue" points="1260,-990 1152,-990 1152,-882 1260,-882 1260,-990"/>
<text text-anchor="middle" x="1206" y="-939.2" font-family="Times,serif" font-size="11.00">Adolf Wendt</text>
<text text-anchor="middle" x="1206" y="-927.2" font-family="Times,serif" font-size="11.00">1906</text>
</g>
<!-- x16_0y_9_56 -->
<g id="node35" class="node">
<title>x16_0y_9_56</title>
<ellipse fill="none" stroke="black" cx="1206" cy="-751.5" rx="0.5" ry="0.5"/>
</g>
<!-- x16_0y_7_0&#45;&gt;x16_0y_9_56 -->
<g id="edge15" class="edge">
<title>x16_0y_7_0&#45;&gt;x16_0y_9_56</title>
<path fill="none" stroke="black" d="M1206,-881.64C1206,-830.62 1206,-760.88 1206,-752.36"/>
</g>
<!-- x38_0y_12_62 -->
<g id="node23" class="node">
<title>x38_0y_12_62</title>
<polygon fill="none" stroke="blue" points="2844,-585 2736,-585 2736,-477 2844,-477 2844,-585"/>
<text text-anchor="middle" x="2790" y="-534.2" font-family="Times,serif" font-size="11.00">Rainer Dabudziak</text>
<text text-anchor="middle" x="2790" y="-522.2" font-family="Times,serif" font-size="11.00">1951</text>
</g>
<!-- x38_0y_14_18 -->
<g id="node51" class="node">
<title>x38_0y_14_18</title>
<ellipse fill="none" stroke="black" cx="2790" cy="-418.5" rx="0.5" ry="0.5"/>
</g>
<!-- x38_0y_12_62&#45;&gt;x38_0y_14_18 -->
<g id="edge43" class="edge">
<title>x38_0y_12_62&#45;&gt;x38_0y_14_18</title>
<path fill="none" stroke="black" d="M2790,-476.73C2790,-450.66 2790,-424.02 2790,-419.25"/>
</g>
<!-- x6_0y_8_0 -->
<g id="node24" class="node">
<title>x6_0y_8_0</title>
<polygon fill="none" stroke="blue" points="540,-918 432,-918 432,-810 540,-810 540,-918"/>
<text text-anchor="middle" x="486" y="-867.2" font-family="Times,serif" font-size="11.00">Wilhelm Polz jr.</text>
<text text-anchor="middle" x="486" y="-855.2" font-family="Times,serif" font-size="11.00">1914</text>
</g>
<!-- x22_0y_11_25 -->
<g id="node25" class="node">
<title>x22_0y_11_25</title>
<polygon fill="none" stroke="blue" points="1692,-684 1584,-684 1584,-576 1692,-576 1692,-684"/>
<text text-anchor="middle" x="1638" y="-633.2" font-family="Times,serif" font-size="11.00">Rudi Horst Andert</text>
<text text-anchor="middle" x="1638" y="-621.2" font-family="Times,serif" font-size="11.00">1940</text>
</g>
<!-- x22_0y_13_75 -->
<g id="node31" class="node">
<title>x22_0y_13_75</title>
<ellipse fill="none" stroke="black" cx="1638" cy="-450" rx="0.5" ry="0.5"/>
</g>
<!-- x22_0y_11_25&#45;&gt;x22_0y_13_75 -->
<g id="edge8" class="edge">
<title>x22_0y_11_25&#45;&gt;x22_0y_13_75</title>
<path fill="none" stroke="black" d="M1638,-575.99C1638,-526.29 1638,-459.04 1638,-450.83"/>
</g>
<!-- x18_0y_3_87 -->
<g id="node26" class="node">
<title>x18_0y_3_87</title>
<polygon fill="none" stroke="grey" points="1404,-1215 1296,-1215 1296,-1107 1404,-1107 1404,-1215"/>
<text text-anchor="middle" x="1350" y="-1164.2" font-family="Times,serif" font-size="11.00">Unknown &#160;</text>
<text text-anchor="middle" x="1350" y="-1152.2" font-family="Times,serif" font-size="11.00">1881</text>
</g>
<!-- x18_0y_5_43 -->
<g id="node45" class="node">
<title>x18_0y_5_43</title>
<ellipse fill="none" stroke="black" cx="1350" cy="-1048.5" rx="0.5" ry="0.5"/>
</g>
<!-- x18_0y_3_87&#45;&gt;x18_0y_5_43 -->
<g id="edge33" class="edge">
<title>x18_0y_3_87&#45;&gt;x18_0y_5_43</title>
<path fill="none" stroke="black" d="M1350,-1106.73C1350,-1080.66 1350,-1054.02 1350,-1049.25"/>
</g>
<!-- x18_55y_17_43 -->
<g id="node29" class="node">
<title>x18_55y_17_43</title>
<ellipse fill="none" stroke="black" cx="1390" cy="-184.5" rx="0.5" ry="0.5"/>
</g>
<!-- x32_66y_17_43&#45;&gt;x18_55y_17_43 -->
<g id="edge2" class="edge">
<title>x32_66y_17_43&#45;&gt;x18_55y_17_43</title>
<path fill="none" stroke="black" d="M2405.26,-184.5C2374.98,-184.5 1420.53,-184.5 1390.71,-184.5"/>
</g>
<!-- x11_50y_17_43 -->
<g id="node28" class="node">
<title>x11_50y_17_43</title>
<ellipse fill="none" stroke="black" cx="882" cy="-184.5" rx="0.5" ry="0.5"/>
</g>
<!-- x11_50y_17_43&#45;&gt;x11_50y_15_87 -->
<g id="edge5" class="edge">
<title>x11_50y_17_43&#45;&gt;x11_50y_15_87</title>
<path fill="none" stroke="black" d="M882,-185.22C882,-189.9 882,-216.66 882,-242.82"/>
</g>
<!-- x18_55y_17_43&#45;&gt;x18_55y_19_0 -->
<g id="edge6" class="edge">
<title>x18_55y_17_43&#45;&gt;x18_55y_19_0</title>
<path fill="none" stroke="black" d="M1390,-183.78C1390,-179.1 1390,-152.34 1390,-126.18"/>
</g>
<!-- x25_61y_17_43 -->
<g id="node30" class="node">
<title>x25_61y_17_43</title>
<ellipse fill="none" stroke="black" cx="1898" cy="-184.5" rx="0.5" ry="0.5"/>
</g>
<!-- x18_55y_17_43&#45;&gt;x25_61y_17_43 -->
<g id="edge3" class="edge">
<title>x18_55y_17_43&#45;&gt;x25_61y_17_43</title>
<path fill="none" stroke="black" d="M1390.82,-184.5C1413,-184.5 1875.54,-184.5 1897.21,-184.5"/>
</g>
<!-- x25_61y_17_43&#45;&gt;x25_61y_19_25 -->
<g id="edge7" class="edge">
<title>x25_61y_17_43&#45;&gt;x25_61y_19_25</title>
<path fill="none" stroke="black" d="M1898,-183.67C1898,-177.72 1898,-141 1898,-108.15"/>
</g>
<!-- x25_61y_17_43&#45;&gt;x11_50y_17_43 -->
<g id="edge4" class="edge">
<title>x25_61y_17_43&#45;&gt;x11_50y_17_43</title>
<path fill="none" stroke="black" d="M1897.26,-184.5C1866.98,-184.5 912.53,-184.5 882.71,-184.5"/>
</g>
<!-- x11_50y_13_75 -->
<g id="node33" class="node">
<title>x11_50y_13_75</title>
<ellipse fill="none" stroke="black" cx="882" cy="-450" rx="0.5" ry="0.5"/>
</g>
<!-- x22_0y_13_75&#45;&gt;x11_50y_13_75 -->
<g id="edge9" class="edge">
<title>x22_0y_13_75&#45;&gt;x11_50y_13_75</title>
<path fill="none" stroke="black" d="M1637.45,-450C1614.92,-450 904.72,-450 882.53,-450"/>
</g>
<!-- x6_25y_13_75 -->
<g id="node32" class="node">
<title>x6_25y_13_75</title>
<ellipse fill="none" stroke="black" cx="504" cy="-450" rx="0.5" ry="0.5"/>
</g>
<!-- x6_25y_13_75&#45;&gt;x6_25y_12_25 -->
<g id="edge12" class="edge">
<title>x6_25y_13_75&#45;&gt;x6_25y_12_25</title>
<path fill="none" stroke="black" d="M504,-450.69C504,-455.06 504,-479.45 504,-503.88"/>
</g>
<!-- x11_50y_13_75&#45;&gt;x11_50y_15_87 -->
<g id="edge13" class="edge">
<title>x11_50y_13_75&#45;&gt;x11_50y_15_87</title>
<path fill="none" stroke="black" d="M882,-449.32C882,-442.89 882,-392.35 882,-351.22"/>
</g>
<!-- x16_75y_13_75 -->
<g id="node34" class="node">
<title>x16_75y_13_75</title>
<ellipse fill="none" stroke="black" cx="1260" cy="-450" rx="0.5" ry="0.5"/>
</g>
<!-- x11_50y_13_75&#45;&gt;x16_75y_13_75 -->
<g id="edge10" class="edge">
<title>x11_50y_13_75&#45;&gt;x16_75y_13_75</title>
<path fill="none" stroke="black" d="M882.61,-450C899.12,-450 1243.29,-450 1259.41,-450"/>
</g>
<!-- x16_75y_13_75&#45;&gt;x16_75y_15_25 -->
<g id="edge14" class="edge">
<title>x16_75y_13_75&#45;&gt;x16_75y_15_25</title>
<path fill="none" stroke="black" d="M1260,-449.31C1260,-444.94 1260,-420.55 1260,-396.12"/>
</g>
<!-- x16_75y_13_75&#45;&gt;x6_25y_13_75 -->
<g id="edge11" class="edge">
<title>x16_75y_13_75&#45;&gt;x6_25y_13_75</title>
<path fill="none" stroke="black" d="M1259.45,-450C1236.92,-450 526.72,-450 504.53,-450"/>
</g>
<!-- x6_25y_9_56 -->
<g id="node37" class="node">
<title>x6_25y_9_56</title>
<ellipse fill="none" stroke="black" cx="504" cy="-751.5" rx="0.5" ry="0.5"/>
</g>
<!-- x16_0y_9_56&#45;&gt;x6_25y_9_56 -->
<g id="edge16" class="edge">
<title>x16_0y_9_56&#45;&gt;x6_25y_9_56</title>
<path fill="none" stroke="black" d="M1205.49,-751.5C1184.65,-751.5 530.32,-751.5 504.77,-751.5"/>
</g>
<!-- x3_0y_9_56 -->
<g id="node36" class="node">
<title>x3_0y_9_56</title>
<ellipse fill="none" stroke="black" cx="270" cy="-751.5" rx="0.5" ry="0.5"/>
</g>
<!-- x3_0y_9_56&#45;&gt;x3_0y_8_0 -->
<g id="edge20" class="edge">
<title>x3_0y_9_56&#45;&gt;x3_0y_8_0</title>
<path fill="none" stroke="black" d="M270,-752.22C270,-756.9 270,-783.66 270,-809.82"/>
</g>
<!-- x6_25y_9_56&#45;&gt;x6_25y_12_25 -->
<g id="edge21" class="edge">
<title>x6_25y_9_56&#45;&gt;x6_25y_12_25</title>
<path fill="none" stroke="black" d="M504,-750.94C504,-743.67 504,-666.53 504,-612.03"/>
</g>
<!-- x9_50y_9_56 -->
<g id="node38" class="node">
<title>x9_50y_9_56</title>
<ellipse fill="none" stroke="black" cx="738" cy="-751.5" rx="0.5" ry="0.5"/>
</g>
<!-- x6_25y_9_56&#45;&gt;x9_50y_9_56 -->
<g id="edge17" class="edge">
<title>x6_25y_9_56&#45;&gt;x9_50y_9_56</title>
<path fill="none" stroke="black" d="M504.67,-751.5C517.97,-751.5 724.48,-751.5 737.37,-751.5"/>
</g>
<!-- x9_50y_9_56&#45;&gt;x9_50y_11_12 -->
<g id="edge22" class="edge">
<title>x9_50y_9_56&#45;&gt;x9_50y_11_12</title>
<path fill="none" stroke="black" d="M738,-750.78C738,-746.1 738,-719.34 738,-693.18"/>
</g>
<!-- x12_75y_9_56 -->
<g id="node39" class="node">
<title>x12_75y_9_56</title>
<ellipse fill="none" stroke="black" cx="972" cy="-751.5" rx="0.5" ry="0.5"/>
</g>
<!-- x9_50y_9_56&#45;&gt;x12_75y_9_56 -->
<g id="edge18" class="edge">
<title>x9_50y_9_56&#45;&gt;x12_75y_9_56</title>
<path fill="none" stroke="black" d="M738.67,-751.5C751.97,-751.5 958.48,-751.5 971.37,-751.5"/>
</g>
<!-- x12_75y_9_56&#45;&gt;x12_75y_11_12 -->
<g id="edge23" class="edge">
<title>x12_75y_9_56&#45;&gt;x12_75y_11_12</title>
<path fill="none" stroke="black" d="M972,-750.78C972,-746.1 972,-719.34 972,-693.18"/>
</g>
<!-- x12_75y_9_56&#45;&gt;x3_0y_9_56 -->
<g id="edge19" class="edge">
<title>x12_75y_9_56&#45;&gt;x3_0y_9_56</title>
<path fill="none" stroke="black" d="M971.49,-751.5C950.65,-751.5 296.32,-751.5 270.77,-751.5"/>
</g>
<!-- x3_0y_6_43 -->
<g id="node42" class="node">
<title>x3_0y_6_43</title>
<ellipse fill="none" stroke="black" cx="270" cy="-976.5" rx="0.5" ry="0.5"/>
</g>
<!-- x12_0y_6_43&#45;&gt;x3_0y_6_43 -->
<g id="edge25" class="edge">
<title>x12_0y_6_43&#45;&gt;x3_0y_6_43</title>
<path fill="none" stroke="black" d="M917.27,-976.5C893.41,-976.5 294.11,-976.5 270.7,-976.5"/>
</g>
<!-- x0_0y_6_43 -->
<g id="node41" class="node">
<title>x0_0y_6_43</title>
<ellipse fill="none" stroke="black" cx="54" cy="-976.5" rx="0.5" ry="0.5"/>
</g>
<!-- x0_0y_6_43&#45;&gt;x0_0y_4_87 -->
<g id="edge29" class="edge">
<title>x0_0y_6_43&#45;&gt;x0_0y_4_87</title>
<path fill="none" stroke="black" d="M54,-977.22C54,-981.9 54,-1008.66 54,-1034.82"/>
</g>
<!-- x3_0y_6_43&#45;&gt;x3_0y_8_0 -->
<g id="edge30" class="edge">
<title>x3_0y_6_43&#45;&gt;x3_0y_8_0</title>
<path fill="none" stroke="black" d="M270,-975.78C270,-971.1 270,-944.34 270,-918.18"/>
</g>
<!-- x6_0y_6_43 -->
<g id="node43" class="node">
<title>x6_0y_6_43</title>
<ellipse fill="none" stroke="black" cx="486" cy="-976.5" rx="0.5" ry="0.5"/>
</g>
<!-- x3_0y_6_43&#45;&gt;x6_0y_6_43 -->
<g id="edge26" class="edge">
<title>x3_0y_6_43&#45;&gt;x6_0y_6_43</title>
<path fill="none" stroke="black" d="M270.62,-976.5C282.89,-976.5 473.52,-976.5 485.42,-976.5"/>
</g>
<!-- x6_0y_6_43&#45;&gt;x6_0y_8_0 -->
<g id="edge31" class="edge">
<title>x6_0y_6_43&#45;&gt;x6_0y_8_0</title>
<path fill="none" stroke="black" d="M486,-975.78C486,-971.1 486,-944.34 486,-918.18"/>
</g>
<!-- x9_0y_6_43 -->
<g id="node44" class="node">
<title>x9_0y_6_43</title>
<ellipse fill="none" stroke="black" cx="702" cy="-976.5" rx="0.5" ry="0.5"/>
</g>
<!-- x6_0y_6_43&#45;&gt;x9_0y_6_43 -->
<g id="edge27" class="edge">
<title>x6_0y_6_43&#45;&gt;x9_0y_6_43</title>
<path fill="none" stroke="black" d="M486.62,-976.5C498.89,-976.5 689.52,-976.5 701.42,-976.5"/>
</g>
<!-- x9_0y_6_43&#45;&gt;x9_0y_8_0 -->
<g id="edge32" class="edge">
<title>x9_0y_6_43&#45;&gt;x9_0y_8_0</title>
<path fill="none" stroke="black" d="M702,-975.78C702,-971.1 702,-944.34 702,-918.18"/>
</g>
<!-- x9_0y_6_43&#45;&gt;x0_0y_6_43 -->
<g id="edge28" class="edge">
<title>x9_0y_6_43&#45;&gt;x0_0y_6_43</title>
<path fill="none" stroke="black" d="M701.27,-976.5C677.41,-976.5 78.11,-976.5 54.7,-976.5"/>
</g>
<!-- x16_0y_5_43 -->
<g id="node47" class="node">
<title>x16_0y_5_43</title>
<ellipse fill="none" stroke="black" cx="1206" cy="-1048.5" rx="0.5" ry="0.5"/>
</g>
<!-- x18_0y_5_43&#45;&gt;x16_0y_5_43 -->
<g id="edge34" class="edge">
<title>x18_0y_5_43&#45;&gt;x16_0y_5_43</title>
<path fill="none" stroke="black" d="M1349.36,-1048.5C1339.46,-1048.5 1218.2,-1048.5 1206.85,-1048.5"/>
</g>
<!-- x14_0y_5_43 -->
<g id="node46" class="node">
<title>x14_0y_5_43</title>
<ellipse fill="none" stroke="black" cx="1062" cy="-1048.5" rx="0.5" ry="0.5"/>
</g>
<!-- x14_0y_5_43&#45;&gt;x14_0y_3_87 -->
<g id="edge36" class="edge">
<title>x14_0y_5_43&#45;&gt;x14_0y_3_87</title>
<path fill="none" stroke="black" d="M1062,-1049.22C1062,-1053.9 1062,-1080.66 1062,-1106.82"/>
</g>
<!-- x16_0y_5_43&#45;&gt;x16_0y_7_0 -->
<g id="edge37" class="edge">
<title>x16_0y_5_43&#45;&gt;x16_0y_7_0</title>
<path fill="none" stroke="black" d="M1206,-1047.78C1206,-1043.1 1206,-1016.34 1206,-990.18"/>
</g>
<!-- x16_0y_5_43&#45;&gt;x14_0y_5_43 -->
<g id="edge35" class="edge">
<title>x16_0y_5_43&#45;&gt;x14_0y_5_43</title>
<path fill="none" stroke="black" d="M1205.36,-1048.5C1195.46,-1048.5 1074.2,-1048.5 1062.85,-1048.5"/>
</g>
<!-- x22_0y_9_12 -->
<g id="node50" class="node">
<title>x22_0y_9_12</title>
<ellipse fill="none" stroke="black" cx="1638" cy="-783" rx="0.5" ry="0.5"/>
</g>
<!-- x24_0y_9_12&#45;&gt;x22_0y_9_12 -->
<g id="edge39" class="edge">
<title>x24_0y_9_12&#45;&gt;x22_0y_9_12</title>
<path fill="none" stroke="black" d="M1781.36,-783C1771.46,-783 1650.2,-783 1638.85,-783"/>
</g>
<!-- x20_0y_9_12 -->
<g id="node49" class="node">
<title>x20_0y_9_12</title>
<ellipse fill="none" stroke="black" cx="1494" cy="-783" rx="0.5" ry="0.5"/>
</g>
<!-- x20_0y_9_12&#45;&gt;x20_0y_6_87 -->
<g id="edge41" class="edge">
<title>x20_0y_9_12&#45;&gt;x20_0y_6_87</title>
<path fill="none" stroke="black" d="M1494,-783.72C1494,-790.68 1494,-846.58 1494,-890.64"/>
</g>
<!-- x22_0y_9_12&#45;&gt;x22_0y_11_25 -->
<g id="edge42" class="edge">
<title>x22_0y_9_12&#45;&gt;x22_0y_11_25</title>
<path fill="none" stroke="black" d="M1638,-782.32C1638,-775.89 1638,-725.35 1638,-684.22"/>
</g>
<!-- x22_0y_9_12&#45;&gt;x20_0y_9_12 -->
<g id="edge40" class="edge">
<title>x22_0y_9_12&#45;&gt;x20_0y_9_12</title>
<path fill="none" stroke="black" d="M1637.36,-783C1627.46,-783 1506.2,-783 1494.85,-783"/>
</g>
<!-- x32_66y_14_18 -->
<g id="node53" class="node">
<title>x32_66y_14_18</title>
<ellipse fill="none" stroke="black" cx="2406" cy="-418.5" rx="0.5" ry="0.5"/>
</g>
<!-- x38_0y_14_18&#45;&gt;x32_66y_14_18 -->
<g id="edge44" class="edge">
<title>x38_0y_14_18&#45;&gt;x32_66y_14_18</title>
<path fill="none" stroke="black" d="M2789.38,-418.5C2772.61,-418.5 2422.97,-418.5 2406.59,-418.5"/>
</g>
<!-- x30_0y_14_18 -->
<g id="node52" class="node">
<title>x30_0y_14_18</title>
<ellipse fill="none" stroke="black" cx="2214" cy="-418.5" rx="0.5" ry="0.5"/>
</g>
<!-- x30_0y_14_18&#45;&gt;x30_0y_13_0 -->
<g id="edge47" class="edge">
<title>x30_0y_14_18&#45;&gt;x30_0y_13_0</title>
<path fill="none" stroke="black" d="M2214,-419.05C2214,-421.81 2214,-434.67 2214,-449.59"/>
</g>
<!-- x32_66y_14_18&#45;&gt;x32_66y_15_37 -->
<g id="edge48" class="edge">
<title>x32_66y_14_18&#45;&gt;x32_66y_15_37</title>
<path fill="none" stroke="black" d="M2406,-417.95C2406,-415.19 2406,-402.33 2406,-387.41"/>
</g>
<!-- x35_33y_14_18 -->
<g id="node54" class="node">
<title>x35_33y_14_18</title>
<ellipse fill="none" stroke="black" cx="2598" cy="-418.5" rx="0.5" ry="0.5"/>
</g>
<!-- x32_66y_14_18&#45;&gt;x35_33y_14_18 -->
<g id="edge45" class="edge">
<title>x32_66y_14_18&#45;&gt;x35_33y_14_18</title>
<path fill="none" stroke="black" d="M2406.55,-418.5C2417.46,-418.5 2586.9,-418.5 2597.48,-418.5"/>
</g>
<!-- x35_33y_14_18&#45;&gt;x35_33y_15_87 -->
<g id="edge49" class="edge">
<title>x35_33y_14_18&#45;&gt;x35_33y_15_87</title>
<path fill="none" stroke="black" d="M2598,-417.72C2598,-412.41 2598,-380.7 2598,-351.12"/>
</g>
<!-- x35_33y_14_18&#45;&gt;x30_0y_14_18 -->
<g id="edge46" class="edge">
<title>x35_33y_14_18&#45;&gt;x30_0y_14_18</title>
<path fill="none" stroke="black" d="M2597.38,-418.5C2580.61,-418.5 2230.97,-418.5 2214.59,-418.5"/>
</g>
<!-- x30_0y_11_43 -->
<g id="node57" class="node">
<title>x30_0y_11_43</title>
<ellipse fill="none" stroke="black" cx="2214" cy="-616.5" rx="0.5" ry="0.5"/>
</g>
<!-- x34_0y_11_43&#45;&gt;x30_0y_11_43 -->
<g id="edge51" class="edge">
<title>x34_0y_11_43&#45;&gt;x30_0y_11_43</title>
<path fill="none" stroke="black" d="M2501.17,-616.5C2484.81,-616.5 2230.65,-616.5 2214.78,-616.5"/>
</g>
<!-- x26_0y_11_43 -->
<g id="node56" class="node">
<title>x26_0y_11_43</title>
<ellipse fill="none" stroke="black" cx="1926" cy="-616.5" rx="0.5" ry="0.5"/>
</g>
<!-- x26_0y_11_43&#45;&gt;x26_0y_9_87 -->
<g id="edge53" class="edge">
<title>x26_0y_11_43&#45;&gt;x26_0y_9_87</title>
<path fill="none" stroke="black" d="M1926,-617.22C1926,-621.9 1926,-648.66 1926,-674.82"/>
</g>
<!-- x30_0y_11_43&#45;&gt;x30_0y_13_0 -->
<g id="edge54" class="edge">
<title>x30_0y_11_43&#45;&gt;x30_0y_13_0</title>
<path fill="none" stroke="black" d="M2214,-615.78C2214,-611.1 2214,-584.34 2214,-558.18"/>
</g>
<!-- x30_0y_11_43&#45;&gt;x26_0y_11_43 -->
<g id="edge52" class="edge">
<title>x30_0y_11_43&#45;&gt;x26_0y_11_43</title>
<path fill="none" stroke="black" d="M2213.17,-616.5C2196.81,-616.5 1942.65,-616.5 1926.78,-616.5"/>
</g>
<!-- x38_0y_11_37 -->
<g id="node60" class="node">
<title>x38_0y_11_37</title>
<ellipse fill="none" stroke="black" cx="2790" cy="-621" rx="0.5" ry="0.5"/>
</g>
<!-- x40_0y_11_37&#45;&gt;x38_0y_11_37 -->
<g id="edge56" class="edge">
<title>x40_0y_11_37&#45;&gt;x38_0y_11_37</title>
<path fill="none" stroke="black" d="M2933.36,-621C2923.46,-621 2802.2,-621 2790.85,-621"/>
</g>
<!-- x36_0y_11_37 -->
<g id="node59" class="node">
<title>x36_0y_11_37</title>
<ellipse fill="none" stroke="black" cx="2646" cy="-621" rx="0.5" ry="0.5"/>
</g>
<!-- x36_0y_11_37&#45;&gt;x36_0y_10_12 -->
<g id="edge58" class="edge">
<title>x36_0y_11_37&#45;&gt;x36_0y_10_12</title>
<path fill="none" stroke="black" d="M2646,-621.57C2646,-624.66 2646,-639.74 2646,-656.66"/>
</g>
<!-- x38_0y_11_37&#45;&gt;x38_0y_12_62 -->
<g id="edge59" class="edge">
<title>x38_0y_11_37&#45;&gt;x38_0y_12_62</title>
<path fill="none" stroke="black" d="M2790,-620.43C2790,-617.34 2790,-602.26 2790,-585.34"/>
</g>
<!-- x38_0y_11_37&#45;&gt;x36_0y_11_37 -->
<g id="edge57" class="edge">
<title>x38_0y_11_37&#45;&gt;x36_0y_11_37</title>
<path fill="none" stroke="black" d="M2789.36,-621C2779.46,-621 2658.2,-621 2646.85,-621"/>
</g>
</g>
</svg>
