<?xml version="1.0" encoding="UTF-8" standalone="no"?>
<!DOCTYPE svg PUBLIC "-//W3C//DTD SVG 1.1//EN"
 "http://www.w3.org/Graphics/SVG/1.1/DTD/svg11.dtd">
<!-- Generated by graphviz version 5.0.0 (20220707.1540)
 -->
<!-- Title: P Pages: 1 -->
<svg width="2943pt" height="1023pt"
 viewBox="0.00 0.00 2943.00 1023.00" xmlns="http://www.w3.org/2000/svg" xmlns:xlink="http://www.w3.org/1999/xlink">
<g id="graph0" class="graph" transform="scale(1 1) rotate(0) translate(4 1019)">
<title>P</title>
<polygon fill="white" stroke="transparent" points="-4,4 -4,-1019 2939,-1019 2939,4 -4,4"/>
<!-- y1900 -->
<g id="node1" class="node">
<title>y1900</title>
<text text-anchor="middle" x="54" y="-785.2" font-family="Times,serif" font-size="11.00">1900</text>
</g>
<!-- y0 -->
<g id="node3" class="node">
<title>y0</title>
<ellipse fill="none" stroke="black" cx="2934" cy="-788" rx="0.5" ry="0.5"/>
</g>
<!-- y1900&#45;&gt;y0 -->
<g id="edge1" class="edge">
<title>y1900&#45;&gt;y0</title>
<path fill="none" stroke="black" stroke-dasharray="5,2" d="M108.01,-788C499.39,-788 2886.72,-788 2933.31,-788"/>
</g>
<!-- y2000 -->
<g id="node2" class="node">
<title>y2000</title>
<text text-anchor="middle" x="54" y="-65.2" font-family="Times,serif" font-size="11.00">2000</text>
</g>
<!-- y1 -->
<g id="node4" class="node">
<title>y1</title>
<ellipse fill="none" stroke="black" cx="2934" cy="-68" rx="0.5" ry="0.5"/>
</g>
<!-- y2000&#45;&gt;y1 -->
<g id="edge2" class="edge">
<title>y2000&#45;&gt;y1</title>
<path fill="none" stroke="black" stroke-dasharray="5,2" d="M108.01,-68C499.39,-68 2886.72,-68 2933.31,-68"/>
</g>
<!-- x0y_15_1520 -->
<g id="node5" class="node">
<title>x0y_15_1520</title>
<polygon fill="none" stroke="blue" points="1548,-107.6 1440,-107.6 1440,0.4 1548,0.4 1548,-107.6"/>
<text text-anchor="middle" x="1494" y="-56.8" font-family="Times,serif" font-size="11.00">Paul Randy Andert</text>
<text text-anchor="middle" x="1494" y="-44.8" font-family="Times,serif" font-size="11.00">2002</text>
</g>
<!-- x_8y_12_1270 -->
<g id="node6" class="node">
<title>x_8y_12_1270</title>
<ellipse fill="none" stroke="pink" cx="918" cy="-233.6" rx="54" ry="54"/>
<text text-anchor="middle" x="918" y="-236.8" font-family="Times,serif" font-size="11.00">Silvia Andert</text>
<text text-anchor="middle" x="918" y="-224.8" font-family="Times,serif" font-size="11.00">1977</text>
</g>
<!-- x_8y_13_1395 -->
<g id="node8" class="node">
<title>x_8y_13_1395</title>
<ellipse fill="none" stroke="black" cx="918" cy="-143.6" rx="0.5" ry="0.5"/>
</g>
<!-- x_8y_12_1270&#45;&gt;x_8y_13_1395 -->
<g id="edge3" class="edge">
<title>x_8y_12_1270&#45;&gt;x_8y_13_1395</title>
<path fill="none" stroke="black" d="M918,-179.43C918,-162.75 918,-147.83 918,-144.36"/>
</g>
<!-- x8y_12_1230 -->
<g id="node7" class="node">
<title>x8y_12_1230</title>
<polygon fill="none" stroke="blue" points="2124,-316.4 2016,-316.4 2016,-208.4 2124,-208.4 2124,-316.4"/>
<text text-anchor="middle" x="2070" y="-265.6" font-family="Times,serif" font-size="11.00">Randy Andert</text>
<text text-anchor="middle" x="2070" y="-253.6" font-family="Times,serif" font-size="11.00">1973</text>
</g>
<!-- x0y_13_1395 -->
<g id="node9" class="node">
<title>x0y_13_1395</title>
<ellipse fill="none" stroke="black" cx="1494" cy="-143.6" rx="0.5" ry="0.5"/>
</g>
<!-- x_8y_13_1395&#45;&gt;x0y_13_1395 -->
<g id="edge4" class="edge">
<title>x_8y_13_1395&#45;&gt;x0y_13_1395</title>
<path fill="none" stroke="black" d="M918.65,-143.6C939.77,-143.6 1468.34,-143.6 1493.1,-143.6"/>
</g>
<!-- x0y_13_1395&#45;&gt;x0y_15_1520 -->
<g id="edge7" class="edge">
<title>x0y_13_1395&#45;&gt;x0y_15_1520</title>
<path fill="none" stroke="black" d="M1494,-143.03C1494,-139.94 1494,-124.86 1494,-107.94"/>
</g>
<!-- x8y_13_1395 -->
<g id="node10" class="node">
<title>x8y_13_1395</title>
<ellipse fill="none" stroke="black" cx="2070" cy="-143.6" rx="0.5" ry="0.5"/>
</g>
<!-- x0y_13_1395&#45;&gt;x8y_13_1395 -->
<g id="edge5" class="edge">
<title>x0y_13_1395&#45;&gt;x8y_13_1395</title>
<path fill="none" stroke="black" d="M1494.65,-143.6C1515.77,-143.6 2044.34,-143.6 2069.1,-143.6"/>
</g>
<!-- x8y_13_1395&#45;&gt;x8y_12_1230 -->
<g id="edge6" class="edge">
<title>x8y_13_1395&#45;&gt;x8y_12_1230</title>
<path fill="none" stroke="black" d="M2070,-144.36C2070,-149.48 2070,-179.62 2070,-208.17"/>
</g>
<!-- x_12y_9_980 -->
<g id="node11" class="node">
<title>x_12y_9_980</title>
<ellipse fill="none" stroke="pink" cx="630" cy="-442.4" rx="54" ry="54"/>
<text text-anchor="middle" x="630" y="-451.6" font-family="Times,serif" font-size="11.00">Edith Inge</text>
<text text-anchor="middle" x="630" y="-439.6" font-family="Times,serif" font-size="11.00">Gertrud Andert </text>
<text text-anchor="middle" x="630" y="-427.6" font-family="Times,serif" font-size="11.00">1948</text>
</g>
<!-- x_12y_11_1125 -->
<g id="node13" class="node">
<title>x_12y_11_1125</title>
<ellipse fill="none" stroke="black" cx="630" cy="-338" rx="0.5" ry="0.5"/>
</g>
<!-- x_12y_9_980&#45;&gt;x_12y_11_1125 -->
<g id="edge8" class="edge">
<title>x_12y_9_980&#45;&gt;x_12y_11_1125</title>
<path fill="none" stroke="black" d="M630,-388.37C630,-365.28 630,-342.67 630,-338.64"/>
</g>
<!-- x_4y_9_900 -->
<g id="node12" class="node">
<title>x_4y_9_900</title>
<polygon fill="none" stroke="blue" points="1260,-554 1152,-554 1152,-446 1260,-446 1260,-554"/>
<text text-anchor="middle" x="1206" y="-503.2" font-family="Times,serif" font-size="11.00">Rudi Horst Andert</text>
<text text-anchor="middle" x="1206" y="-491.2" font-family="Times,serif" font-size="11.00">1940</text>
</g>
<!-- x_8y_11_1125 -->
<g id="node14" class="node">
<title>x_8y_11_1125</title>
<ellipse fill="none" stroke="black" cx="918" cy="-338" rx="0.5" ry="0.5"/>
</g>
<!-- x_12y_11_1125&#45;&gt;x_8y_11_1125 -->
<g id="edge9" class="edge">
<title>x_12y_11_1125&#45;&gt;x_8y_11_1125</title>
<path fill="none" stroke="black" d="M630.83,-338C647.19,-338 901.35,-338 917.22,-338"/>
</g>
<!-- x_8y_11_1125&#45;&gt;x_8y_12_1270 -->
<g id="edge12" class="edge">
<title>x_8y_11_1125&#45;&gt;x_8y_12_1270</title>
<path fill="none" stroke="black" d="M918,-337.33C918,-333.22 918,-310.69 918,-287.67"/>
</g>
<!-- x_4y_11_1125 -->
<g id="node15" class="node">
<title>x_4y_11_1125</title>
<ellipse fill="none" stroke="black" cx="1206" cy="-338" rx="0.5" ry="0.5"/>
</g>
<!-- x_8y_11_1125&#45;&gt;x_4y_11_1125 -->
<g id="edge10" class="edge">
<title>x_8y_11_1125&#45;&gt;x_4y_11_1125</title>
<path fill="none" stroke="black" d="M918.83,-338C935.19,-338 1189.35,-338 1205.22,-338"/>
</g>
<!-- x_4y_11_1125&#45;&gt;x_4y_9_900 -->
<g id="edge11" class="edge">
<title>x_4y_11_1125&#45;&gt;x_4y_9_900</title>
<path fill="none" stroke="black" d="M1206,-338.72C1206,-345.68 1206,-401.58 1206,-445.64"/>
</g>
<!-- x_14y_6_639 -->
<g id="node16" class="node">
<title>x_14y_6_639</title>
<ellipse fill="none" stroke="pink" cx="486" cy="-687.2" rx="54" ry="54"/>
<text text-anchor="middle" x="486" y="-690.4" font-family="Times,serif" font-size="11.00">Gertrud Wendt</text>
<text text-anchor="middle" x="486" y="-678.4" font-family="Times,serif" font-size="11.00">1914</text>
</g>
<!-- x_14y_8_810 -->
<g id="node18" class="node">
<title>x_14y_8_810</title>
<ellipse fill="none" stroke="black" cx="486" cy="-564.8" rx="0.5" ry="0.5"/>
</g>
<!-- x_14y_6_639&#45;&gt;x_14y_8_810 -->
<g id="edge13" class="edge">
<title>x_14y_6_639&#45;&gt;x_14y_8_810</title>
<path fill="none" stroke="black" d="M486,-633.16C486,-603.44 486,-571.44 486,-565.71"/>
</g>
<!-- x_10y_5_560 -->
<g id="node17" class="node">
<title>x_10y_5_560</title>
<polygon fill="none" stroke="blue" points="828,-798.8 720,-798.8 720,-690.8 828,-690.8 828,-798.8"/>
<text text-anchor="middle" x="774" y="-748" font-family="Times,serif" font-size="11.00">Adolf Wendt</text>
<text text-anchor="middle" x="774" y="-736" font-family="Times,serif" font-size="11.00">1906</text>
</g>
<!-- x_12y_8_810 -->
<g id="node19" class="node">
<title>x_12y_8_810</title>
<ellipse fill="none" stroke="black" cx="630" cy="-564.8" rx="0.5" ry="0.5"/>
</g>
<!-- x_14y_8_810&#45;&gt;x_12y_8_810 -->
<g id="edge14" class="edge">
<title>x_14y_8_810&#45;&gt;x_12y_8_810</title>
<path fill="none" stroke="black" d="M486.64,-564.8C496.54,-564.8 617.8,-564.8 629.15,-564.8"/>
</g>
<!-- x_12y_8_810&#45;&gt;x_12y_9_980 -->
<g id="edge17" class="edge">
<title>x_12y_8_810&#45;&gt;x_12y_9_980</title>
<path fill="none" stroke="black" d="M630,-564.02C630,-558.64 630,-526.48 630,-496.58"/>
</g>
<!-- x_10y_8_810 -->
<g id="node20" class="node">
<title>x_10y_8_810</title>
<ellipse fill="none" stroke="black" cx="774" cy="-564.8" rx="0.5" ry="0.5"/>
</g>
<!-- x_12y_8_810&#45;&gt;x_10y_8_810 -->
<g id="edge15" class="edge">
<title>x_12y_8_810&#45;&gt;x_10y_8_810</title>
<path fill="none" stroke="black" d="M630.64,-564.8C640.54,-564.8 761.8,-564.8 773.15,-564.8"/>
</g>
<!-- x_10y_8_810&#45;&gt;x_10y_5_560 -->
<g id="edge16" class="edge">
<title>x_10y_8_810&#45;&gt;x_10y_5_560</title>
<path fill="none" stroke="black" d="M774,-565.32C774,-571.92 774,-640.38 774,-690.79"/>
</g>
<!-- x_15y_3_340 -->
<g id="node21" class="node">
<title>x_15y_3_340</title>
<ellipse fill="none" stroke="pink" cx="414" cy="-903.2" rx="54" ry="54"/>
<text text-anchor="middle" x="414" y="-906.4" font-family="Times,serif" font-size="11.00">Marie Polz</text>
<text text-anchor="middle" x="414" y="-894.4" font-family="Times,serif" font-size="11.00">Unknown</text>
</g>
<!-- x_15y_4_489 -->
<g id="node23" class="node">
<title>x_15y_4_489</title>
<ellipse fill="none" stroke="black" cx="414" cy="-795.2" rx="0.5" ry="0.5"/>
</g>
<!-- x_15y_3_340&#45;&gt;x_15y_4_489 -->
<g id="edge18" class="edge">
<title>x_15y_3_340&#45;&gt;x_15y_4_489</title>
<path fill="none" stroke="black" d="M414,-848.88C414,-824.51 414,-800.22 414,-795.88"/>
</g>
<!-- x_13y_3_340 -->
<g id="node22" class="node">
<title>x_13y_3_340</title>
<polygon fill="none" stroke="blue" points="612,-957.2 504,-957.2 504,-849.2 612,-849.2 612,-957.2"/>
<text text-anchor="middle" x="558" y="-906.4" font-family="Times,serif" font-size="11.00">Wilhelm Polz</text>
<text text-anchor="middle" x="558" y="-894.4" font-family="Times,serif" font-size="11.00">Unknown</text>
</g>
<!-- x_14y_4_489 -->
<g id="node24" class="node">
<title>x_14y_4_489</title>
<ellipse fill="none" stroke="black" cx="486" cy="-795.2" rx="0.5" ry="0.5"/>
</g>
<!-- x_15y_4_489&#45;&gt;x_14y_4_489 -->
<g id="edge19" class="edge">
<title>x_15y_4_489&#45;&gt;x_14y_4_489</title>
<path fill="none" stroke="black" d="M414.81,-795.2C422.22,-795.2 478.31,-795.2 485.29,-795.2"/>
</g>
<!-- x_14y_4_489&#45;&gt;x_14y_6_639 -->
<g id="edge22" class="edge">
<title>x_14y_4_489&#45;&gt;x_14y_6_639</title>
<path fill="none" stroke="black" d="M486,-794.51C486,-790.14 486,-765.75 486,-741.32"/>
</g>
<!-- x_13y_4_489 -->
<g id="node25" class="node">
<title>x_13y_4_489</title>
<ellipse fill="none" stroke="black" cx="558" cy="-795.2" rx="0.5" ry="0.5"/>
</g>
<!-- x_14y_4_489&#45;&gt;x_13y_4_489 -->
<g id="edge20" class="edge">
<title>x_14y_4_489&#45;&gt;x_13y_4_489</title>
<path fill="none" stroke="black" d="M486.81,-795.2C494.22,-795.2 550.31,-795.2 557.29,-795.2"/>
</g>
<!-- x_13y_4_489&#45;&gt;x_13y_3_340 -->
<g id="edge21" class="edge">
<title>x_13y_4_489&#45;&gt;x_13y_3_340</title>
<path fill="none" stroke="black" d="M558,-795.89C558,-800.26 558,-824.65 558,-849.08"/>
</g>
<!-- x_11y_2_260 -->
<g id="node26" class="node">
<title>x_11y_2_260</title>
<ellipse fill="none" stroke="pink" cx="702" cy="-960.8" rx="54" ry="54"/>
<text text-anchor="middle" x="702" y="-964" font-family="Times,serif" font-size="11.00">Marie Wendt</text>
<text text-anchor="middle" x="702" y="-952" font-family="Times,serif" font-size="11.00">Unknown</text>
</g>
<!-- x_11y_4_410 -->
<g id="node28" class="node">
<title>x_11y_4_410</title>
<ellipse fill="none" stroke="black" cx="702" cy="-852.8" rx="0.5" ry="0.5"/>
</g>
<!-- x_11y_2_260&#45;&gt;x_11y_4_410 -->
<g id="edge23" class="edge">
<title>x_11y_2_260&#45;&gt;x_11y_4_410</title>
<path fill="none" stroke="black" d="M702,-906.8C702,-882.33 702,-857.86 702,-853.49"/>
</g>
<!-- x_9y_2_260 -->
<g id="node27" class="node">
<title>x_9y_2_260</title>
<polygon fill="none" stroke="grey" points="900,-1014.8 792,-1014.8 792,-906.8 900,-906.8 900,-1014.8"/>
<text text-anchor="middle" x="846" y="-964" font-family="Times,serif" font-size="11.00">Unknown &#160;</text>
<text text-anchor="middle" x="846" y="-952" font-family="Times,serif" font-size="11.00">Unknown</text>
</g>
<!-- x_10y_4_410 -->
<g id="node29" class="node">
<title>x_10y_4_410</title>
<ellipse fill="none" stroke="black" cx="774" cy="-852.8" rx="0.5" ry="0.5"/>
</g>
<!-- x_11y_4_410&#45;&gt;x_10y_4_410 -->
<g id="edge24" class="edge">
<title>x_11y_4_410&#45;&gt;x_10y_4_410</title>
<path fill="none" stroke="black" d="M702.81,-852.8C710.22,-852.8 766.31,-852.8 773.29,-852.8"/>
</g>
<!-- x_10y_4_410&#45;&gt;x_10y_5_560 -->
<g id="edge27" class="edge">
<title>x_10y_4_410&#45;&gt;x_10y_5_560</title>
<path fill="none" stroke="black" d="M774,-852.11C774,-847.74 774,-823.35 774,-798.92"/>
</g>
<!-- x_9y_4_410 -->
<g id="node30" class="node">
<title>x_9y_4_410</title>
<ellipse fill="none" stroke="black" cx="846" cy="-852.8" rx="0.5" ry="0.5"/>
</g>
<!-- x_10y_4_410&#45;&gt;x_9y_4_410 -->
<g id="edge25" class="edge">
<title>x_10y_4_410&#45;&gt;x_9y_4_410</title>
<path fill="none" stroke="black" d="M774.81,-852.8C782.22,-852.8 838.31,-852.8 845.29,-852.8"/>
</g>
<!-- x_9y_4_410&#45;&gt;x_9y_2_260 -->
<g id="edge26" class="edge">
<title>x_9y_4_410&#45;&gt;x_9y_2_260</title>
<path fill="none" stroke="black" d="M846,-853.49C846,-857.86 846,-882.25 846,-906.68"/>
</g>
<!-- x_6y_5_550 -->
<g id="node31" class="node">
<title>x_6y_5_550</title>
<ellipse fill="none" stroke="pink" cx="1062" cy="-752" rx="54" ry="54"/>
<text text-anchor="middle" x="1062" y="-755.2" font-family="Times,serif" font-size="11.00">Gertrud Andert</text>
<text text-anchor="middle" x="1062" y="-743.2" font-family="Times,serif" font-size="11.00">1905</text>
</g>
<!-- x_6y_7_730 -->
<g id="node33" class="node">
<title>x_6y_7_730</title>
<ellipse fill="none" stroke="black" cx="1062" cy="-622.4" rx="0.5" ry="0.5"/>
</g>
<!-- x_6y_5_550&#45;&gt;x_6y_7_730 -->
<g id="edge28" class="edge">
<title>x_6y_5_550&#45;&gt;x_6y_7_730</title>
<path fill="none" stroke="black" d="M1062,-697.79C1062,-665.05 1062,-628.6 1062,-623.11"/>
</g>
<!-- x_2y_5_560 -->
<g id="node32" class="node">
<title>x_2y_5_560</title>
<polygon fill="none" stroke="blue" points="1404,-798.8 1296,-798.8 1296,-690.8 1404,-690.8 1404,-798.8"/>
<text text-anchor="middle" x="1350" y="-748" font-family="Times,serif" font-size="11.00">Willi Andert</text>
<text text-anchor="middle" x="1350" y="-736" font-family="Times,serif" font-size="11.00">1906</text>
</g>
<!-- x_4y_7_730 -->
<g id="node34" class="node">
<title>x_4y_7_730</title>
<ellipse fill="none" stroke="black" cx="1206" cy="-622.4" rx="0.5" ry="0.5"/>
</g>
<!-- x_6y_7_730&#45;&gt;x_4y_7_730 -->
<g id="edge29" class="edge">
<title>x_6y_7_730&#45;&gt;x_4y_7_730</title>
<path fill="none" stroke="black" d="M1062.64,-622.4C1072.54,-622.4 1193.8,-622.4 1205.15,-622.4"/>
</g>
<!-- x_4y_7_730&#45;&gt;x_4y_9_900 -->
<g id="edge32" class="edge">
<title>x_4y_7_730&#45;&gt;x_4y_9_900</title>
<path fill="none" stroke="black" d="M1206,-621.62C1206,-616.24 1206,-584.08 1206,-554.18"/>
</g>
<!-- x_2y_7_730 -->
<g id="node35" class="node">
<title>x_2y_7_730</title>
<ellipse fill="none" stroke="black" cx="1350" cy="-622.4" rx="0.5" ry="0.5"/>
</g>
<!-- x_4y_7_730&#45;&gt;x_2y_7_730 -->
<g id="edge30" class="edge">
<title>x_4y_7_730&#45;&gt;x_2y_7_730</title>
<path fill="none" stroke="black" d="M1206.64,-622.4C1216.54,-622.4 1337.8,-622.4 1349.15,-622.4"/>
</g>
<!-- x_2y_7_730&#45;&gt;x_2y_5_560 -->
<g id="edge31" class="edge">
<title>x_2y_7_730&#45;&gt;x_2y_5_560</title>
<path fill="none" stroke="black" d="M1350,-623.18C1350,-628.56 1350,-660.72 1350,-690.62"/>
</g>
<!-- x4y_10_1040 -->
<g id="node36" class="node">
<title>x4y_10_1040</title>
<ellipse fill="none" stroke="pink" cx="1782" cy="-399.2" rx="54" ry="54"/>
<text text-anchor="middle" x="1782" y="-402.4" font-family="Times,serif" font-size="11.00">Gabi Kosin</text>
<text text-anchor="middle" x="1782" y="-390.4" font-family="Times,serif" font-size="11.00">1954</text>
</g>
<!-- x4y_11_1135 -->
<g id="node38" class="node">
<title>x4y_11_1135</title>
<ellipse fill="none" stroke="black" cx="1782" cy="-330.8" rx="0.5" ry="0.5"/>
</g>
<!-- x4y_10_1040&#45;&gt;x4y_11_1135 -->
<g id="edge33" class="edge">
<title>x4y_10_1040&#45;&gt;x4y_11_1135</title>
<path fill="none" stroke="black" d="M1782,-344.97C1782,-338.23 1782,-333.09 1782,-331.4"/>
</g>
<!-- x12y_10_1010 -->
<g id="node37" class="node">
<title>x12y_10_1010</title>
<polygon fill="none" stroke="blue" points="2412,-474.8 2304,-474.8 2304,-366.8 2412,-366.8 2412,-474.8"/>
<text text-anchor="middle" x="2358" y="-424" font-family="Times,serif" font-size="11.00">Rainer Dabudziak</text>
<text text-anchor="middle" x="2358" y="-412" font-family="Times,serif" font-size="11.00">1951</text>
</g>
<!-- x8y_11_1135 -->
<g id="node39" class="node">
<title>x8y_11_1135</title>
<ellipse fill="none" stroke="black" cx="2070" cy="-330.8" rx="0.5" ry="0.5"/>
</g>
<!-- x4y_11_1135&#45;&gt;x8y_11_1135 -->
<g id="edge34" class="edge">
<title>x4y_11_1135&#45;&gt;x8y_11_1135</title>
<path fill="none" stroke="black" d="M1782.83,-330.8C1799.19,-330.8 2053.35,-330.8 2069.22,-330.8"/>
</g>
<!-- x8y_11_1135&#45;&gt;x8y_12_1230 -->
<g id="edge37" class="edge">
<title>x8y_11_1135&#45;&gt;x8y_12_1230</title>
<path fill="none" stroke="black" d="M2070,-330.03C2070,-328.18 2070,-323.15 2070,-316.61"/>
</g>
<!-- x12y_11_1135 -->
<g id="node40" class="node">
<title>x12y_11_1135</title>
<ellipse fill="none" stroke="black" cx="2358" cy="-330.8" rx="0.5" ry="0.5"/>
</g>
<!-- x8y_11_1135&#45;&gt;x12y_11_1135 -->
<g id="edge35" class="edge">
<title>x8y_11_1135&#45;&gt;x12y_11_1135</title>
<path fill="none" stroke="black" d="M2070.83,-330.8C2087.19,-330.8 2341.35,-330.8 2357.22,-330.8"/>
</g>
<!-- x12y_11_1135&#45;&gt;x12y_10_1010 -->
<g id="edge36" class="edge">
<title>x12y_11_1135&#45;&gt;x12y_10_1010</title>
<path fill="none" stroke="black" d="M2358,-331.37C2358,-334.46 2358,-349.54 2358,-366.46"/>
</g>
<!-- x2y_7_740 -->
<g id="node41" class="node">
<title>x2y_7_740</title>
<ellipse fill="none" stroke="pink" cx="1638" cy="-615.2" rx="54" ry="54"/>
<text text-anchor="middle" x="1638" y="-618.4" font-family="Times,serif" font-size="11.00">Erika Ganzler</text>
<text text-anchor="middle" x="1638" y="-606.4" font-family="Times,serif" font-size="11.00">Unknown</text>
</g>
<!-- x2y_8_889 -->
<g id="node43" class="node">
<title>x2y_8_889</title>
<ellipse fill="none" stroke="black" cx="1638" cy="-507.2" rx="0.5" ry="0.5"/>
</g>
<!-- x2y_7_740&#45;&gt;x2y_8_889 -->
<g id="edge38" class="edge">
<title>x2y_7_740&#45;&gt;x2y_8_889</title>
<path fill="none" stroke="black" d="M1638,-561.2C1638,-536.73 1638,-512.26 1638,-507.89"/>
</g>
<!-- x6y_7_740 -->
<g id="node42" class="node">
<title>x6y_7_740</title>
<polygon fill="none" stroke="blue" points="1980,-669.2 1872,-669.2 1872,-561.2 1980,-561.2 1980,-669.2"/>
<text text-anchor="middle" x="1926" y="-618.4" font-family="Times,serif" font-size="11.00">Siegfried Ganzler</text>
<text text-anchor="middle" x="1926" y="-606.4" font-family="Times,serif" font-size="11.00">Unknown</text>
</g>
<!-- x4y_8_889 -->
<g id="node44" class="node">
<title>x4y_8_889</title>
<ellipse fill="none" stroke="black" cx="1782" cy="-507.2" rx="0.5" ry="0.5"/>
</g>
<!-- x2y_8_889&#45;&gt;x4y_8_889 -->
<g id="edge39" class="edge">
<title>x2y_8_889&#45;&gt;x4y_8_889</title>
<path fill="none" stroke="black" d="M1638.64,-507.2C1648.54,-507.2 1769.8,-507.2 1781.15,-507.2"/>
</g>
<!-- x4y_8_889&#45;&gt;x4y_10_1040 -->
<g id="edge42" class="edge">
<title>x4y_8_889&#45;&gt;x4y_10_1040</title>
<path fill="none" stroke="black" d="M1782,-506.51C1782,-502.14 1782,-477.75 1782,-453.32"/>
</g>
<!-- x6y_8_889 -->
<g id="node45" class="node">
<title>x6y_8_889</title>
<ellipse fill="none" stroke="black" cx="1926" cy="-507.2" rx="0.5" ry="0.5"/>
</g>
<!-- x4y_8_889&#45;&gt;x6y_8_889 -->
<g id="edge40" class="edge">
<title>x4y_8_889&#45;&gt;x6y_8_889</title>
<path fill="none" stroke="black" d="M1782.64,-507.2C1792.54,-507.2 1913.8,-507.2 1925.15,-507.2"/>
</g>
<!-- x6y_8_889&#45;&gt;x6y_7_740 -->
<g id="edge41" class="edge">
<title>x6y_8_889&#45;&gt;x6y_7_740</title>
<path fill="none" stroke="black" d="M1926,-507.89C1926,-512.26 1926,-536.65 1926,-561.08"/>
</g>
<!-- x10y_8_810 -->
<g id="node46" class="node">
<title>x10y_8_810</title>
<ellipse fill="none" stroke="pink" cx="2214" cy="-564.8" rx="54" ry="54"/>
<text text-anchor="middle" x="2214" y="-568" font-family="Times,serif" font-size="11.00">Irene Dabudziak</text>
<text text-anchor="middle" x="2214" y="-556" font-family="Times,serif" font-size="11.00">1931</text>
</g>
<!-- x10y_9_910 -->
<g id="node48" class="node">
<title>x10y_9_910</title>
<ellipse fill="none" stroke="black" cx="2214" cy="-492.8" rx="0.5" ry="0.5"/>
</g>
<!-- x10y_8_810&#45;&gt;x10y_9_910 -->
<g id="edge43" class="edge">
<title>x10y_8_810&#45;&gt;x10y_9_910</title>
<path fill="none" stroke="black" d="M2214,-510.6C2214,-502.29 2214,-495.73 2214,-493.57"/>
</g>
<!-- x14y_8_800 -->
<g id="node47" class="node">
<title>x14y_8_800</title>
<polygon fill="none" stroke="blue" points="2556,-626 2448,-626 2448,-518 2556,-518 2556,-626"/>
<text text-anchor="middle" x="2502" y="-575.2" font-family="Times,serif" font-size="11.00">Paul Dabudziak</text>
<text text-anchor="middle" x="2502" y="-563.2" font-family="Times,serif" font-size="11.00">1930</text>
</g>
<!-- x12y_9_910 -->
<g id="node49" class="node">
<title>x12y_9_910</title>
<ellipse fill="none" stroke="black" cx="2358" cy="-492.8" rx="0.5" ry="0.5"/>
</g>
<!-- x10y_9_910&#45;&gt;x12y_9_910 -->
<g id="edge44" class="edge">
<title>x10y_9_910&#45;&gt;x12y_9_910</title>
<path fill="none" stroke="black" d="M2214.64,-492.8C2224.54,-492.8 2345.8,-492.8 2357.15,-492.8"/>
</g>
<!-- x12y_9_910&#45;&gt;x12y_10_1010 -->
<g id="edge47" class="edge">
<title>x12y_9_910&#45;&gt;x12y_10_1010</title>
<path fill="none" stroke="black" d="M2358,-491.99C2358,-489.77 2358,-483.16 2358,-474.82"/>
</g>
<!-- x14y_9_910 -->
<g id="node50" class="node">
<title>x14y_9_910</title>
<ellipse fill="none" stroke="black" cx="2502" cy="-492.8" rx="0.5" ry="0.5"/>
</g>
<!-- x12y_9_910&#45;&gt;x14y_9_910 -->
<g id="edge45" class="edge">
<title>x12y_9_910&#45;&gt;x14y_9_910</title>
<path fill="none" stroke="black" d="M2358.64,-492.8C2368.54,-492.8 2489.8,-492.8 2501.15,-492.8"/>
</g>
<!-- x14y_9_910&#45;&gt;x14y_8_800 -->
<g id="edge46" class="edge">
<title>x14y_9_910&#45;&gt;x14y_8_800</title>
<path fill="none" stroke="black" d="M2502,-493.31C2502,-495.62 2502,-505.65 2502,-517.81"/>
</g>
</g>
</svg>
