<?xml version="1.0" encoding="UTF-8" standalone="no"?>
<!DOCTYPE svg PUBLIC "-//W3C//DTD SVG 1.1//EN"
 "http://www.w3.org/Graphics/SVG/1.1/DTD/svg11.dtd">
<!-- Generated by graphviz version 5.0.0 (20220707.1540)
 -->
<!-- Title: P Pages: 1 -->
<svg width="2223pt" height="1034pt"
 viewBox="0.00 0.00 2223.00 1034.00" xmlns="http://www.w3.org/2000/svg" xmlns:xlink="http://www.w3.org/1999/xlink">
<g id="graph0" class="graph" transform="scale(1 1) rotate(0) translate(4 1030)">
<title>P</title>
<polygon fill="white" stroke="transparent" points="-4,4 -4,-1030 2219,-1030 2219,4 -4,4"/>
<!-- y1900 -->
<g id="node1" class="node">
<title>y1900</title>
<text text-anchor="middle" x="54" y="-969.2" font-family="Times,serif" font-size="11.00">1900</text>
</g>
<!-- y0 -->
<g id="node3" class="node">
<title>y0</title>
<ellipse fill="none" stroke="black" cx="2214" cy="-972" rx="0.5" ry="0.5"/>
</g>
<!-- y1900&#45;&gt;y0 -->
<g id="edge1" class="edge">
<title>y1900&#45;&gt;y0</title>
<path fill="none" stroke="black" stroke-dasharray="5,2" d="M108.2,-972C438.96,-972 2172.69,-972 2213.28,-972"/>
</g>
<!-- y2000 -->
<g id="node2" class="node">
<title>y2000</title>
<text text-anchor="middle" x="54" y="-69.2" font-family="Times,serif" font-size="11.00">2000</text>
</g>
<!-- y1 -->
<g id="node4" class="node">
<title>y1</title>
<ellipse fill="none" stroke="black" cx="2214" cy="-72" rx="0.5" ry="0.5"/>
</g>
<!-- y2000&#45;&gt;y1 -->
<g id="edge2" class="edge">
<title>y2000&#45;&gt;y1</title>
<path fill="none" stroke="black" stroke-dasharray="5,2" d="M108.2,-72C438.96,-72 2172.69,-72 2213.28,-72"/>
</g>
<!-- x0y_12_75 -->
<g id="node5" class="node">
<title>x0y_12_75</title>
<polygon fill="none" stroke="blue" points="1188,-108 1080,-108 1080,0 1188,0 1188,-108"/>
<text text-anchor="middle" x="1134" y="-57.2" font-family="Times,serif" font-size="11.00">Paul Randy Andert</text>
<text text-anchor="middle" x="1134" y="-45.2" font-family="Times,serif" font-size="11.00">2002</text>
</g>
<!-- x_1y_9_62 -->
<g id="node6" class="node">
<title>x_1y_9_62</title>
<ellipse fill="none" stroke="pink" cx="1062" cy="-279" rx="54" ry="54"/>
<text text-anchor="middle" x="1062" y="-282.2" font-family="Times,serif" font-size="11.00">Silvia Andert</text>
<text text-anchor="middle" x="1062" y="-270.2" font-family="Times,serif" font-size="11.00">1977</text>
</g>
<!-- x_1y_11_18 -->
<g id="node9" class="node">
<title>x_1y_11_18</title>
<ellipse fill="none" stroke="black" cx="1062" cy="-166.5" rx="0.5" ry="0.5"/>
</g>
<!-- x_1y_9_62&#45;&gt;x_1y_11_18 -->
<g id="edge3" class="edge">
<title>x_1y_9_62&#45;&gt;x_1y_11_18</title>
<path fill="none" stroke="black" d="M1062,-224.73C1062,-198.66 1062,-172.02 1062,-167.25"/>
</g>
<!-- x1y_9_12 -->
<g id="node7" class="node">
<title>x1y_9_12</title>
<polygon fill="none" stroke="blue" points="1260,-369 1152,-369 1152,-261 1260,-261 1260,-369"/>
<text text-anchor="middle" x="1206" y="-318.2" font-family="Times,serif" font-size="11.00">Randy Andert</text>
<text text-anchor="middle" x="1206" y="-306.2" font-family="Times,serif" font-size="11.00">1973</text>
</g>
<!-- x0y_11_18 -->
<g id="node8" class="node">
<title>x0y_11_18</title>
<ellipse fill="none" stroke="black" cx="1134" cy="-166.5" rx="0.5" ry="0.5"/>
</g>
<!-- x0y_11_18&#45;&gt;x0y_12_75 -->
<g id="edge7" class="edge">
<title>x0y_11_18&#45;&gt;x0y_12_75</title>
<path fill="none" stroke="black" d="M1134,-165.78C1134,-161.1 1134,-134.34 1134,-108.18"/>
</g>
<!-- x1y_11_18 -->
<g id="node10" class="node">
<title>x1y_11_18</title>
<ellipse fill="none" stroke="black" cx="1206" cy="-166.5" rx="0.5" ry="0.5"/>
</g>
<!-- x0y_11_18&#45;&gt;x1y_11_18 -->
<g id="edge5" class="edge">
<title>x0y_11_18&#45;&gt;x1y_11_18</title>
<path fill="none" stroke="black" d="M1134.81,-166.5C1142.22,-166.5 1198.31,-166.5 1205.29,-166.5"/>
</g>
<!-- x_1y_11_18&#45;&gt;x0y_11_18 -->
<g id="edge4" class="edge">
<title>x_1y_11_18&#45;&gt;x0y_11_18</title>
<path fill="none" stroke="black" d="M1062.81,-166.5C1070.22,-166.5 1126.31,-166.5 1133.29,-166.5"/>
</g>
<!-- x1y_11_18&#45;&gt;x1y_9_12 -->
<g id="edge6" class="edge">
<title>x1y_11_18&#45;&gt;x1y_9_12</title>
<path fill="none" stroke="black" d="M1206,-167.16C1206,-173.31 1206,-221.15 1206,-260.76"/>
</g>
</g>
</svg>
