<?xml version="1.0" encoding="UTF-8" standalone="no"?>
<!DOCTYPE svg PUBLIC "-//W3C//DTD SVG 1.1//EN"
 "http://www.w3.org/Graphics/SVG/1.1/DTD/svg11.dtd">
<!-- Generated by graphviz version 5.0.0 (20220707.1540)
 -->
<!-- Title: P Pages: 1 -->
<svg width="548pt" height="404pt"
 viewBox="0.00 0.00 548.00 404.00" xmlns="http://www.w3.org/2000/svg" xmlns:xlink="http://www.w3.org/1999/xlink">
<g id="graph0" class="graph" transform="scale(1 1) rotate(0) translate(4 400)">
<title>P</title>
<polygon fill="white" stroke="transparent" points="-4,4 -4,-400 544,-400 544,4 -4,4"/>
<!-- x0y0 -->
<g id="node1" class="node">
<title>x0y0</title>
<polygon fill="none" stroke="blue" points="324,-108 216,-108 216,0 324,0 324,-108"/>
<text text-anchor="middle" x="270" y="-51.2" font-family="Times,serif" font-size="11.00">Paul Randy Andert</text>
</g>
<!-- x0y1 -->
<g id="node2" class="node">
<title>x0y1</title>
<ellipse fill="none" stroke="black" cx="270" cy="-126" rx="0.5" ry="0.5"/>
</g>
<!-- x0y1&#45;&gt;x0y0 -->
<g id="edge5" class="edge">
<title>x0y1&#45;&gt;x0y0</title>
<path fill="none" stroke="black" d="M270,-125.19C270,-122.97 270,-116.36 270,-108.02"/>
</g>
<!-- x2y1 -->
<g id="node6" class="node">
<title>x2y1</title>
<ellipse fill="none" stroke="black" cx="414" cy="-126" rx="0.5" ry="0.5"/>
</g>
<!-- x0y1&#45;&gt;x2y1 -->
<g id="edge3" class="edge">
<title>x0y1&#45;&gt;x2y1</title>
<path fill="none" stroke="black" d="M270.64,-126C280.54,-126 401.8,-126 413.15,-126"/>
</g>
<!-- x_2y2 -->
<g id="node3" class="node">
<title>x_2y2</title>
<ellipse fill="none" stroke="pink" cx="126" cy="-198" rx="54" ry="54"/>
<text text-anchor="middle" x="126" y="-195.2" font-family="Times,serif" font-size="11.00">Silvia Andert</text>
</g>
<!-- x_2y1 -->
<g id="node4" class="node">
<title>x_2y1</title>
<ellipse fill="none" stroke="black" cx="126" cy="-126" rx="0.5" ry="0.5"/>
</g>
<!-- x_2y2&#45;&gt;x_2y1 -->
<g id="edge1" class="edge">
<title>x_2y2&#45;&gt;x_2y1</title>
<path fill="none" stroke="black" d="M126,-143.8C126,-135.49 126,-128.93 126,-126.77"/>
</g>
<!-- x_2y1&#45;&gt;x0y1 -->
<g id="edge2" class="edge">
<title>x_2y1&#45;&gt;x0y1</title>
<path fill="none" stroke="black" d="M126.64,-126C136.54,-126 257.8,-126 269.15,-126"/>
</g>
<!-- x2y2 -->
<g id="node5" class="node">
<title>x2y2</title>
<polygon fill="none" stroke="blue" points="468,-252 360,-252 360,-144 468,-144 468,-252"/>
<text text-anchor="middle" x="414" y="-195.2" font-family="Times,serif" font-size="11.00">Randy Andert</text>
</g>
<!-- x2y1&#45;&gt;x2y2 -->
<g id="edge4" class="edge">
<title>x2y1&#45;&gt;x2y2</title>
<path fill="none" stroke="black" d="M414,-126.81C414,-129.03 414,-135.64 414,-143.98"/>
</g>
<!-- x_2y3 -->
<g id="node7" class="node">
<title>x_2y3</title>
<ellipse fill="none" stroke="black" cx="126" cy="-270" rx="0.5" ry="0.5"/>
</g>
<!-- x_2y3&#45;&gt;x_2y2 -->
<g id="edge10" class="edge">
<title>x_2y3&#45;&gt;x_2y2</title>
<path fill="none" stroke="black" d="M126,-269.19C126,-266.97 126,-260.36 126,-252.02"/>
</g>
<!-- x_1y3 -->
<g id="node11" class="node">
<title>x_1y3</title>
<ellipse fill="none" stroke="black" cx="198" cy="-270" rx="0.5" ry="0.5"/>
</g>
<!-- x_2y3&#45;&gt;x_1y3 -->
<g id="edge8" class="edge">
<title>x_2y3&#45;&gt;x_1y3</title>
<path fill="none" stroke="black" d="M126.81,-270C134.22,-270 190.31,-270 197.29,-270"/>
</g>
<!-- x_3y4 -->
<g id="node8" class="node">
<title>x_3y4</title>
<ellipse fill="none" stroke="pink" cx="54" cy="-342" rx="54" ry="54"/>
<text text-anchor="middle" x="54" y="-345.2" font-family="Times,serif" font-size="11.00">Edith Inge</text>
<text text-anchor="middle" x="54" y="-333.2" font-family="Times,serif" font-size="11.00">Gertrud Andert </text>
</g>
<!-- x_3y3 -->
<g id="node9" class="node">
<title>x_3y3</title>
<ellipse fill="none" stroke="black" cx="54" cy="-270" rx="0.5" ry="0.5"/>
</g>
<!-- x_3y4&#45;&gt;x_3y3 -->
<g id="edge6" class="edge">
<title>x_3y4&#45;&gt;x_3y3</title>
<path fill="none" stroke="black" d="M54,-287.8C54,-279.49 54,-272.93 54,-270.77"/>
</g>
<!-- x_3y3&#45;&gt;x_2y3 -->
<g id="edge7" class="edge">
<title>x_3y3&#45;&gt;x_2y3</title>
<path fill="none" stroke="black" d="M54.81,-270C62.22,-270 118.31,-270 125.29,-270"/>
</g>
<!-- x_1y4 -->
<g id="node10" class="node">
<title>x_1y4</title>
<polygon fill="none" stroke="blue" points="252,-396 144,-396 144,-288 252,-288 252,-396"/>
<text text-anchor="middle" x="198" y="-339.2" font-family="Times,serif" font-size="11.00">Rudi Horst Andert</text>
</g>
<!-- x_1y3&#45;&gt;x_1y4 -->
<g id="edge9" class="edge">
<title>x_1y3&#45;&gt;x_1y4</title>
<path fill="none" stroke="black" d="M198,-270.81C198,-273.03 198,-279.64 198,-287.98"/>
</g>
<!-- x2y3 -->
<g id="node12" class="node">
<title>x2y3</title>
<ellipse fill="none" stroke="black" cx="414" cy="-270" rx="0.5" ry="0.5"/>
</g>
<!-- x2y3&#45;&gt;x2y2 -->
<g id="edge15" class="edge">
<title>x2y3&#45;&gt;x2y2</title>
<path fill="none" stroke="black" d="M414,-269.19C414,-266.97 414,-260.36 414,-252.02"/>
</g>
<!-- x3y3 -->
<g id="node16" class="node">
<title>x3y3</title>
<ellipse fill="none" stroke="black" cx="486" cy="-270" rx="0.5" ry="0.5"/>
</g>
<!-- x2y3&#45;&gt;x3y3 -->
<g id="edge13" class="edge">
<title>x2y3&#45;&gt;x3y3</title>
<path fill="none" stroke="black" d="M414.81,-270C422.22,-270 478.31,-270 485.29,-270"/>
</g>
<!-- x1y4 -->
<g id="node13" class="node">
<title>x1y4</title>
<ellipse fill="none" stroke="pink" cx="342" cy="-342" rx="54" ry="54"/>
<text text-anchor="middle" x="342" y="-339.2" font-family="Times,serif" font-size="11.00">Gabi Kosin</text>
</g>
<!-- x1y3 -->
<g id="node14" class="node">
<title>x1y3</title>
<ellipse fill="none" stroke="black" cx="342" cy="-270" rx="0.5" ry="0.5"/>
</g>
<!-- x1y4&#45;&gt;x1y3 -->
<g id="edge11" class="edge">
<title>x1y4&#45;&gt;x1y3</title>
<path fill="none" stroke="black" d="M342,-287.8C342,-279.49 342,-272.93 342,-270.77"/>
</g>
<!-- x1y3&#45;&gt;x2y3 -->
<g id="edge12" class="edge">
<title>x1y3&#45;&gt;x2y3</title>
<path fill="none" stroke="black" d="M342.81,-270C350.22,-270 406.31,-270 413.29,-270"/>
</g>
<!-- x3y4 -->
<g id="node15" class="node">
<title>x3y4</title>
<polygon fill="none" stroke="blue" points="540,-396 432,-396 432,-288 540,-288 540,-396"/>
<text text-anchor="middle" x="486" y="-339.2" font-family="Times,serif" font-size="11.00">Rainer Dabudziak</text>
</g>
<!-- x3y3&#45;&gt;x3y4 -->
<g id="edge14" class="edge">
<title>x3y3&#45;&gt;x3y4</title>
<path fill="none" stroke="black" d="M486,-270.81C486,-273.03 486,-279.64 486,-287.98"/>
</g>
</g>
</svg>
